SplineFontDB: 3.0
FontName: BukvitsaUnicode
FullName: Bukvitsa Unicode
FamilyName: Bukvitsa
Weight: Medium
Copyright: Copyright 1999, Rev. Theodore Jurewicz, Erie, Pennsylvania, US(creator); Copyright 2000 Starina / Russian Antiquties; Copyright 2013 Aleksandr Andreev and Nikita Simmons (reencoded for Unicode and added OpenType features)\n\nThis font is part of the Ponomar Project and is distributed under the GNU General Public License, version 3, or under the SIL Open Font License Version 1.1, at your choosing.
Version: 1.1
DefaultBaseFilename: BukvitsaUnicode
ItalicAngle: 0
UnderlinePosition: -113
UnderlineWidth: 20
Ascent: 800
Descent: 200
sfntRevision: 0x00010000
LayerCount: 3
Layer: 0 0 "Back"  1
Layer: 1 0 "Fore"  0
Layer: 2 1 "TTFLayer"  0
NeedsXUIDChange: 1
XUID: [1021 300 1517649419 7164317]
UseXUID: 1
FSType: 0
OS2Version: 2
OS2_WeightWidthSlopeOnly: 0
OS2_UseTypoMetrics: 1
CreationTime: 1156574743
ModificationTime: 1385788715
PfmFamily: 17
TTFWeight: 500
TTFWidth: 5
LineGap: 38
VLineGap: 0
Panose: 2 0 6 8 8 0 0 2 0 4
OS2TypoAscent: 720
OS2TypoAOffset: 0
OS2TypoDescent: -2
OS2TypoDOffset: 0
OS2TypoLinegap: 54
OS2WinAscent: 911
OS2WinAOffset: 0
OS2WinDescent: 85
OS2WinDOffset: 0
HheadAscent: 917
HheadAOffset: 0
HheadDescent: -85
HheadDOffset: 0
OS2SubXSize: 700
OS2SubYSize: 650
OS2SubXOff: 0
OS2SubYOff: 140
OS2SupXSize: 700
OS2SupYSize: 650
OS2SupXOff: 0
OS2SupYOff: 477
OS2StrikeYSize: 50
OS2StrikeYPos: 250
OS2Vendor: 'pyrs'
OS2CodePages: 00000001.00000000
OS2UnicodeRanges: 00000001.00000000.00000000.00000000
Lookup: 4 0 0 "'ccmp' Canonical Equivalents"  {"'ccmp' Canonical Equivalents-1"  } ['ccmp' ('DFLT' <'dflt' > 'cyrl' <'dflt' > 'latn' <'dflt' > ) ]
Lookup: 4 0 0 "'ccmp' Precomposed Forms"  {"'ccmp' Precomposed Forms-1"  } ['ccmp' ('DFLT' <'dflt' > 'cyrl' <'dflt' > 'latn' <'dflt' > ) ]
Lookup: 4 6 0 "'ccmp' Double and Tripple Titlos"  {"'ccmp' Double and Tripple Titlos-1"  } ['ccmp' ('DFLT' <'dflt' > 'cyrl' <'dflt' > 'latn' <'dflt' > ) ]

StartChar: .notdef
Encoding: 196 -1 0
Width: 427
Flags: W
HStem: 0 19<29 398> 748 22<29 398>
VStem: 0 22<34 733> 405 22<34 733>
DStem2: 29 748 22 733 0.465951 -0.884811<10.0105 395.419 421.078 806.952> 22 34 29 19 0.465951 0.884811<0 385.408 411.068 796.942>
LayerCount: 3
Fore
SplineSet
0 770 m 1
 427 770 l 1
 427 0 l 1
 0 0 l 1
 0 770 l 1
29 748 m 1
 213 398 l 1
 398 748 l 1
 29 748 l 1
221 383 m 1
 405 34 l 1
 405 733 l 1
 221 383 l 1
398 19 m 1
 213 369 l 1
 29 19 l 1
 398 19 l 1
22 733 m 1
 22 34 l 1
 206 383 l 1
 22 733 l 1
EndSplineSet
Validated: 1
Layer: 2
SplineSet
0 770 m 1,0,-1
 427 770 l 1,1,-1
 427 0 l 1,2,-1
 0 0 l 1,3,-1
 0 770 l 1,0,-1
29 748 m 1,4,-1
 213 398 l 1,5,-1
 398 748 l 1,6,-1
 29 748 l 1,4,-1
221 383 m 1,7,-1
 405 34 l 1,8,-1
 405 733 l 1,9,-1
 221 383 l 1,7,-1
398 19 m 1,10,-1
 213 369 l 1,11,-1
 29 19 l 1,12,-1
 398 19 l 1,10,-1
22 733 m 1,13,-1
 22 34 l 1,14,-1
 206 383 l 1,15,-1
 22 733 l 1,13,-1
EndSplineSet
EndChar

StartChar: uni0021
Encoding: 33 33 1
Width: 120
GlyphClass: 1
Flags: W
HStem: 5 87<18.96 91.04> 696 20G<39.5 44.5>
VStem: 12 86<10.607 85.6359> 26 60<430.074 714.016> 36 42<138.586 509.277 654.938 715.342> 42 29<131.54 391.429>
LayerCount: 3
Fore
SplineSet
55 5 m 257xe0
 32 5 12 24 12 47 c 257
 12 70 32 92 55 92 c 256
 78 92 98 70 98 47 c 256
 98 24 78 5 55 5 c 257xe0
42 716 m 0xc4
 47 716 75 715 75 712 c 256
 75 705 81 687 82 678 c 0
 85 668 86 659 87 651 c 2
 87 651 86 645 86 630 c 0xd0
 86 559 78 472 78 395 c 0xc8
 78 319 71 232 71 134 c 1
 67 133 56 131 49 131 c 0
 45 131 42 132 42 134 c 0xc4
 42 184 36 244 36 302 c 0xc8
 36 421 26 519 26 654 c 1xd0
 30 674 36 694 36 715 c 256xc8
 36 716 37 716 42 716 c 0xc4
EndSplineSet
Validated: 1
Layer: 2
SplineSet
55 5 m 256,0,1
 38 5 38 5 25 17.5 c 128,-1,2
 12 30 12 30 12 47 c 128,-1,3
 12 64 12 64 25 78 c 128,-1,4
 38 92 38 92 55 92 c 128,-1,5
 72 92 72 92 85 78 c 128,-1,6
 98 64 98 64 98 47 c 128,-1,7
 98 30 98 30 85 17.5 c 128,-1,8
 72 5 72 5 55 5 c 256,0,1
42 716 m 0,9,10
 75 716 75 716 75 712 c 128,-1,11
 75 708 75 708 78.5 695 c 128,-1,12
 82 682 82 682 82 678 c 1,13,14
 85 669 85 669 87 651 c 1,15,16
 86 645 86 645 86 630 c 0,17,18
 86 595 86 595 82 514.5 c 128,-1,19
 78 434 78 434 78 395 c 0,20,21
 78 360 78 360 74.5 273 c 128,-1,22
 71 186 71 186 71 134 c 1,23,24
 59 131 59 131 49 131 c 0,25,26
 42 131 42 131 42 134 c 0,27,28
 42 158 42 158 39 215 c 128,-1,29
 36 272 36 272 36 302 c 0,30,31
 36 359 36 359 31 471.5 c 128,-1,32
 26 584 26 584 26 654 c 1,33,34
 36 704 36 704 36 715 c 0,35,36
 36 716 36 716 42 716 c 0,9,10
EndSplineSet
EndChar

StartChar: uni0028
Encoding: 39 40 2
Width: 168
GlyphClass: 1
Flags: W
HStem: 8 16<85.1617 126.943> 36 25<25.0851 65> 39 39<100.551 123.84> 67 15<79.0303 100.974> 105 10<81.8088 120.125> 618 15<67.1657 129.568> 651 21<87.2444 115.96> 661 16<36.0093 60.1852> 708 11<90.4467 119.762>
VStem: 21 46<117.057 618.999> 65 11<55 62.1109> 93 31<39.0404 66.7656> 141 10<44.2277 84.5947 651.495 684.205>
LayerCount: 3
Fore
SplineSet
107 719 m 0x8dd8
 135 719 153 697 153 667 c 0
 153 652 142 636 136 631 c 0
 126 620 114 618 99 618 c 0
 90 618 80 619 69 619 c 0
 68 619 67 618 67 617 c 0
 67 446 74 281 74 109 c 1
 84 111 91 115 107 115 c 0
 137 115 151 88 151 58 c 0
 151 30 135 18 114 10 c 0
 110 9 107 8 105 8 c 0
 86 8 69 23 56 32 c 0
 52 34 48 36 45 36 c 256
 41 36 23 29 21 27 c 1xcdd8
 19 30 18 33 18 35 c 0
 18 49 40 61 53 61 c 0
 58 61 60 55 65 55 c 1
 65 71 80 82 96 82 c 0xddb8
 97 82 105 78 106 78 c 0
 109 78 105 79 108 79 c 0
 118 79 124 69 124 60 c 0
 124 53 115 39 108 39 c 0xacb8
 104 39 93 43 93 48 c 0
 93 54 114 67 96 67 c 0
 83 67 76 61 76 48 c 0x9cb8
 76 35 93 24 105 24 c 0
 129 24 141 45 141 67 c 256
 141 87 123 105 102 105 c 0
 83 105 68 91 58 87 c 0
 43 80 37 79 24 68 c 1
 24 164 21 253 21 350 c 0
 21 456 23 555 23 666 c 1
 42 647 67 633 99 633 c 0
 100 633 111 634 112 634 c 0
 124 634 132 639 135 648 c 0
 138 657 140 665 140 671 c 0
 140 685 121 708 107 708 c 0
 96 708 86 703 86 692 c 0
 86 686 88 672 95 672 c 0x9ed8
 106 672 106 678 108 686 c 0
 108 688 109 689 112 689 c 0
 118 689 122 668 123 661 c 0x8dd8
 123 653 116 651 109 651 c 0x8ed8
 99 651 87 655 82 658 c 0
 76 661 72 667 70 674 c 1
 65 669 63 666 63 664 c 0
 63 662 60 661 55 661 c 0
 41 661 39 668 29 674 c 1
 30 677 33 679 38 679 c 0
 40 679 47 677 48 677 c 0
 60 677 62 690 66 698 c 0
 74 710 86 719 107 719 c 0x8dd8
EndSplineSet
Validated: 1
Layer: 2
SplineSet
107 719 m 0,0,1
 128 719 128 719 140.5 704.5 c 128,-1,2
 153 690 153 690 153 667 c 0,3,4
 153 645 153 645 136 631 c 1,5,6
 124 618 124 618 99 618 c 0,7,8
 95 618 95 618 85 618.5 c 128,-1,9
 75 619 75 619 69 619 c 0,10,11
 67 619 67 619 67 617 c 0,12,13
 67 532 67 532 70.5 363.5 c 128,-1,14
 74 195 74 195 74 109 c 1,15,16
 104 115 104 115 107 115 c 0,17,18
 128 115 128 115 139.5 98.5 c 128,-1,19
 151 82 151 82 151 58 c 0,20,21
 151 24 151 24 114 10 c 0,22,23
 106 8 106 8 105 8 c 0,24,25
 91 8 91 8 56 32 c 1,26,27
 48 36 48 36 45 36 c 128,-1,28
 42 36 42 36 32.5 32.5 c 128,-1,29
 23 29 23 29 21 27 c 1,30,31
 18 32 18 32 18 35 c 0,32,33
 18 45 18 45 30 53 c 128,-1,34
 42 61 42 61 53 61 c 0,35,36
 56 61 56 61 59 58 c 128,-1,37
 62 55 62 55 65 55 c 1,38,39
 65 67 65 67 74.5 74.5 c 128,-1,40
 84 82 84 82 96 82 c 1,41,-1
 101 80 l 1,42,-1
 106 78 l 1,43,44
 108.5 78.5 108.5 78.5 108 79 c 1,45,46
 124 79 124 79 124 60 c 0,47,48
 124 54 124 54 118.5 46.5 c 128,-1,49
 113 39 113 39 108 39 c 0,50,51
 104 39 104 39 98.5 42 c 128,-1,52
 93 45 93 45 93 48 c 0,53,54
 93 49 93 49 94.5 51.5 c 128,-1,55
 96 54 96 54 98.145 56.015 c 0,56,57
 108 67 108 67 96 67 c 0,58,59
 76 67 76 67 76 48 c 0,60,61
 76 39 76 39 85.5 31.5 c 128,-1,62
 95 24 95 24 105 24 c 0,63,64
 122 24 122 24 131.5 36.5 c 128,-1,65
 141 49 141 49 141 67 c 0,66,67
 141 82 141 82 129.5 93.5 c 128,-1,68
 118 105 118 105 102 105 c 0,69,70
 94 105 94 105 85.5 101.5 c 128,-1,71
 77 98 77 98 69 93 c 128,-1,72
 61 88 61 88 58 87 c 0,73,74
 32 75 32 75 24 68 c 1,75,76
 24 116 24 116 22.5 208.5 c 128,-1,77
 21 301 21 301 21 350 c 0,78,79
 21 402 21 402 22 506 c 128,-1,80
 23 610 23 610 23 666 c 1,81,82
 56 633 56 633 99 633 c 0,83,84
 100 633 100 633 106 633.5 c 2,85,-1
 112 634 l 1,86,87
 130 634 130 634 135 648 c 0,88,89
 140 663 140 663 140 671 c 0,90,91
 140 682 140 682 128.5 695 c 128,-1,92
 117 708 117 708 107 708 c 0,93,94
 86 708 86 708 86 692 c 0,95,96
 86 672 86 672 95 672 c 0,97,98
 105 672 105 672 107.391 683.418 c 0,99,100
 108 685 108 685 108 686 c 0,101,102
 108 689 108 689 112 689 c 0,103,104
 119 689 119 689 123 661 c 1,105,106
 123 651 123 651 109 651 c 0,107,108
 94 651 94 651 82 658 c 1,109,110
 73 662 73 662 70 674 c 1,111,112
 63 667 63 667 63 664 c 128,-1,113
 63 661 63 661 55 661 c 0,114,115
 49 661 49 661 45 662.5 c 128,-1,116
 41 664 41 664 36.5 668 c 128,-1,117
 32 672 32 672 29 674 c 1,118,119
 31 679 31 679 38 679 c 0,120,121
 39 679 39 679 43.5 678 c 2,122,-1
 48 677 l 2,123,124
 52 677 52 677 55.5 679.5 c 128,-1,125
 59 682 59 682 60 684.5 c 128,-1,126
 61 687 61 687 63 691.5 c 128,-1,127
 65 696 65 696 66 698 c 0,128,129
 80 719 80 719 107 719 c 0,0,1
EndSplineSet
EndChar

StartChar: uni0029
Encoding: 40 41 3
Width: 150
GlyphClass: 1
Flags: W
HStem: 8 16<25.8083 67.3084> 36 25<83.5196 128.394> 39 40<28.0811 51.627> 67 15<47.5494 72.908> 105 10<31.7351 73.2261> 619 14<23.3413 85.3454> 650 22<46.6722 65.82> 652 37<31.1108 47.8176> 661 16<93.5319 116.991> 708 10<33.6958 61.9573>
VStem: 1 10<44.6306 84.3343 654.803 681.763> 28 21<45.2164 66.8824> 79 49<109 608.989> 86 45<117.057 618.999> 131 4<27.1406 30>
LayerCount: 3
Fore
SplineSet
79 109 m 1xdc7a
 80 281 83 446 86 617 c 0
 86 618 85 619 84 619 c 0
 73 619 62 618 53 618 c 0
 39 618 27 620 17 631 c 0
 13 636 0 652 0 667 c 0
 0 697 17 718 45 718 c 0
 75 718 84 702 94 684 c 0
 96 679 99 677 104 677 c 0
 106 677 113 679 115 679 c 0
 120 679 123 677 124 674 c 1
 114 668 112 661 97 661 c 0xdcf4
 92 661 89 662 90 664 c 0
 91 666 88 669 83 674 c 1
 79 661 65 650 49 650 c 0x8e74
 45 650 41 651 37 652 c 0x8d74
 32 654 30 657 30 661 c 0x8cf4
 30 669 34 689 40 689 c 0x8d74
 47 689 44 679 48 674 c 0
 50 673 53 672 58 672 c 0
 65 672 67 686 67 692 c 0
 67 703 57 708 46 708 c 0
 32 708 13 685 13 671 c 0
 13 665 15 657 18 648 c 0
 21 639 29 634 41 634 c 0
 42 634 53 633 54 633 c 0
 85 633 111 647 129 666 c 1
 130 555 131 456 131 350 c 0x8e74
 131 253 131 164 128 68 c 1
 110 84 96 84 75 99 c 0
 69 103 59 105 50 105 c 0
 29 105 11 87 11 67 c 256
 11 45 24 24 48 24 c 0
 60 24 76 35 76 48 c 0
 76 61 69 67 56 67 c 0x9e78
 51 67 49 66 49 65 c 0
 49 59 59 54 59 48 c 0
 59 43 50 39 45 39 c 0
 38 39 28 53 28 60 c 0
 28 69 35 79 45 79 c 0xac78
 46 79 44 78 46 78 c 0
 48 78 55 82 57 82 c 0
 73 82 86 70 88 55 c 1
 93 55 95 61 100 61 c 0
 113 61 135 49 135 36 c 0
 135 33 133 30 131 27 c 1
 131 30 110 36 107 36 c 0
 99 36 88 26 81 22 c 0
 72 16 60 8 47 8 c 1
 33 8 14 23 8 32 c 0
 3 41 1 51 1 60 c 0
 1 88 19 115 46 115 c 0
 62 115 68 111 79 109 c 1xdc7a
EndSplineSet
Validated: 1
Layer: 2
SplineSet
79 109 m 1,0,1
 80 272 80 272 86 617 c 0,2,3
 86 619 86 619 84 619 c 0,4,5
 78 619 78 619 67.5 618.5 c 128,-1,6
 57 618 57 618 53 618 c 0,7,8
 29 618 29 618 17 631 c 1,9,10
 0 652 0 652 0 667 c 0,11,12
 0 690 0 690 12 704 c 128,-1,13
 24 718 24 718 45 718 c 0,14,15
 59 718 59 718 69 712.5 c 128,-1,16
 79 707 79 707 83 701.5 c 128,-1,17
 87 696 87 696 94 684 c 0,18,19
 97 677 97 677 104 677 c 0,20,21
 105 677 105 677 109.5 678 c 128,-1,22
 114 679 114 679 115 679 c 0,23,24
 122 679 122 679 124 674 c 1,25,26
 121 672 121 672 116.5 668 c 128,-1,27
 112 664 112 664 108 662.5 c 128,-1,28
 104 661 104 661 97 661 c 0,29,30
 90.1312 661.796 90.1312 661.796 90 664 c 1,31,32
 91 666 91 666 83 674 c 1,33,34
 80 664 80 664 70.5 657 c 128,-1,35
 61 650 61 650 49 650 c 0,36,37
 45 650 45 650 37 652 c 1,38,39
 30 655 30 655 30 661 c 0,40,41
 30 669 30 669 33 679 c 128,-1,42
 36 689 36 689 40 689 c 0,43,44
 43 689 43 689 44 686.5 c 128,-1,45
 45 684 45 684 45.5 680 c 128,-1,46
 46 676 46 676 48 674 c 0,47,48
 52 672 52 672 58 672 c 0,49,50
 67 672 67 672 67 692 c 0,51,52
 67 708 67 708 46 708 c 0,53,54
 36 708 36 708 24.5 695 c 128,-1,55
 13 682 13 682 13 671 c 0,56,57
 13 663 13 663 18 648 c 0,58,59
 23 634 23 634 41 634 c 0,60,61
 42 634 42 634 48 633.5 c 2,62,-1
 54 633 l 1,63,64
 98 633 98 633 129 666 c 1,65,66
 131 444 131 444 131 350 c 0,67,68
 131 164 131 164 128 68 c 1,69,70
 118 77 118 77 101 84.5 c 128,-1,71
 84 92 84 92 75 99 c 0,72,73
 66 105 66 105 50 105 c 128,-1,74
 34 105 34 105 22.5 93.5 c 128,-1,75
 11 82 11 82 11 67 c 0,76,77
 11 49 11 49 21 36.5 c 128,-1,78
 31 24 31 24 48 24 c 0,79,80
 58 24 58 24 67 31.5 c 128,-1,81
 76 39 76 39 76 48 c 0,82,83
 76 67 76 67 56 67 c 0,84,85
 49 67 49 67 49 65 c 0,86,87
 49 62 49 62 54 56.5 c 128,-1,88
 59 51 59 51 59 48 c 0,89,90
 59 39 59 39 45 39 c 0,91,92
 40 39 40 39 34 46.5 c 128,-1,93
 28 54 28 54 28 60 c 0,94,95
 28 67 28 67 33 73 c 128,-1,96
 38 79 38 79 45 79 c 1,97,-1
 45 78.5 l 2,98,99
 45 78 45 78 46 78 c 128,-1,100
 47 78 47 78 51.5 80 c 128,-1,101
 56 82 56 82 57 82 c 0,102,103
 69 82 69 82 77.5 74 c 128,-1,104
 86 66 86 66 88 55 c 1,105,106
 90 55 90 55 94 58 c 128,-1,107
 98 61 98 61 100 61 c 0,108,109
 111 61 111 61 123 53 c 128,-1,110
 135 45 135 45 135 36 c 0,111,112
 135 33 135 33 131 27 c 1,113,114
 131 29 131 29 120.5 32.5 c 128,-1,115
 110 36 110 36 107 36 c 0,116,117
 103 36 103 36 98.5 33.5 c 128,-1,118
 94 31 94 31 88.5 27 c 128,-1,119
 83 23 83 23 81 22 c 0,120,121
 60 8 60 8 47 8 c 0,122,123
 37 8 37 8 25 16 c 128,-1,124
 13 24 13 24 8 32 c 0,125,126
 1 45 1 45 1 60 c 0,127,128
 1 82 1 82 13.5 98.5 c 128,-1,129
 26 115 26 115 46 115 c 1,130,-1
 79 109 l 1,0,1
EndSplineSet
EndChar

StartChar: uni002A
Encoding: 41 42 4
Width: 225
GlyphClass: 1
Flags: W
HStem: 614 7<145 196> 715 10<142 196>
VStem: 13 203
DStem2: 30 719 13 730 0.514496 -0.857493<0 51.7926> 87 719 90 709 0.376798 0.926295<0 46.4718> 13 730 30 719 0.989132 -0.147033<18.4326 74.8131> 30 621 13 612 0.993533 0.113547<0 52.5437> 88 627 83 620 0.452692 -0.891667<3.97821 60.8254> 170 667 158 667 0.655473 -0.755219<0 51.7824> 158 667 170 667 0.58651 0.809942<7.03812 61.1646>
LayerCount: 3
Fore
SplineSet
145 614 m 1
 116 555 l 1
 83 620 l 1
 13 612 l 1
 49 670 l 1
 13 730 l 1
 87 719 l 1
 111 778 l 1
 142 725 l 1
 212 725 l 1
 170 667 l 1
 216 614 l 1
 145 614 l 1
158 667 m 1
 196 715 l 1
 138 715 l 1
 112 759 l 1
 90 709 l 1
 30 719 l 1
 60 669 l 1
 30 621 l 1
 88 627 l 1
 116 573 l 1
 140 621 l 1
 196 621 l 1
 158 667 l 1
EndSplineSet
Validated: 1
Layer: 2
SplineSet
145 614 m 1,0,-1
 116 555 l 1,1,-1
 83 620 l 1,2,-1
 13 612 l 1,3,-1
 49 670 l 1,4,-1
 13 730 l 1,5,-1
 87 719 l 1,6,-1
 111 778 l 1,7,-1
 142 725 l 1,8,-1
 212 725 l 1,9,-1
 170 667 l 1,10,-1
 216 614 l 1,11,-1
 145 614 l 1,0,-1
158 667 m 1,12,-1
 196 715 l 1,13,-1
 138 715 l 1,14,-1
 112 759 l 1,15,-1
 90 709 l 1,16,-1
 30 719 l 1,17,-1
 60 669 l 1,18,-1
 30 621 l 1,19,-1
 88 627 l 1,20,-1
 116 573 l 1,21,-1
 140 621 l 1,22,-1
 196 621 l 1,23,-1
 158 667 l 1,12,-1
EndSplineSet
EndChar

StartChar: uni002C
Encoding: 43 44 5
Width: 141
GlyphClass: 1
Flags: W
HStem: 129 43<36.8121 70.9967>
VStem: 74 49<67.8548 124.571>
LayerCount: 3
Fore
SplineSet
10 125 m 5
 23 141 35 161 52 169 c 4
 56 171 61 172 65 172 c 4
 69 172 73 171 77 170 c 4
 86 167 98 160 111 149 c 4
 120 142 123 132 123 122 c 4
 123 102 109 79 99 64 c 4
 87 47 71 28 52 9 c 5
 57 18 l 6
 66 33 74 59 74 85 c 4
 74 93 73 101 71 109 c 4
 67 124 54 129 37 129 c 4
 29 129 20 128 10 125 c 5
EndSplineSet
Validated: 1
Layer: 2
SplineSet
10 125 m 5,0,1
 13 128 13 128 19.5 137 c 128,-1,2
 26 146 26 146 30 150.5 c 128,-1,3
 34 155 34 155 40 160.5 c 128,-1,4
 46 166 46 166 52 169 c 128,-1,5
 58 172 58 172 65 172 c 0,6,7
 69 172 69 172 77 170 c 0,8,9
 92 165 92 165 111 149 c 0,10,11
 123 140 123 140 123 122 c 0,12,13
 123 100 123 100 99 64 c 0,14,15
 80 37 80 37 52 9 c 1,16,-1
 57 18 l 1,17,18
 74 46 74 46 74 85 c 0,19,20
 74 97 74 97 71 109 c 0,21,22
 66 129 66 129 37 129 c 0,23,24
 23 129 23 129 10 125 c 5,0,1
EndSplineSet
EndChar

StartChar: uni002D
Encoding: 44 45 6
Width: 398
GlyphClass: 1
Flags: W
HStem: 349 18<287.265 324.463> 373 21<92.1344 128.98> 384 17<151.17 169.858> 396 18<265.409 290.993> 418 10<109.331 127.207> 431 24<225.706 295.292> 431 17<211.192 251.999 268.478 274.248> 456 22<83.3839 156.74>
VStem: 15 48<368.428 436.398> 77 6<411.973 431.622> 173 10<373.46 379.5> 245 46<396.901 414.013> 301 15<387.555 422.181> 333 48<385.653 450.196>
LayerCount: 3
Fore
SplineSet
331 379 m 1x8dfc
 331 385 333 409 333 414 c 0
 333 433 326 443 314 448 c 0
 311 450 310 451 310 452 c 0
 310 460 351 469 371 469 c 0
 376 469 379 469 381 468 c 1
 381 459 l 2
 381 444 370 417 368 404 c 0
 365 392 360 387 353 377 c 0
 344 365 314 349 294 349 c 0
 245 349 220 376 198 402 c 0
 187 415 175 428 164 439 c 0
 153 450 138 456 120 456 c 0
 106 456 83 436 83 422 c 256
 83 407 101 394 115 394 c 0xdbfc
 122 394 129 399 129 405 c 0
 129 420 120 414 108 418 c 1
 109 425 120 428 127 428 c 0
 140 428 142 424 151 416 c 0
 153 414 149 401 153 401 c 0
 154 401 162 402 163 402 c 0
 174 402 183 394 183 383 c 0
 183 380 174 372 173 369 c 1
 169 377 169 384 158 384 c 0xa9fc
 156 384 152 382 147 378 c 0
 142 375 136 373 131 373 c 2
 125 373 l 2
 97 373 77 387 77 416 c 0
 77 432 86 448 97 456 c 1
 80 449 69 438 63 423 c 1
 63 405 l 2
 63 394 76 377 78 368 c 1
 60 360 36 351 20 342 c 1
 15 350 15 349 15 358 c 0
 15 407 35 447 66 466 c 0
 77 474 91 478 108 478 c 0
 152 478 178 460 201 432 c 0
 205 428 221 415 225 411 c 0
 235 401 235 401 246 390 c 0
 254 382 262 378 269 378 c 0
 280 378 301 388 301 399 c 0
 301 409 293 431 283 431 c 0
 274 431 267 423 265 415 c 1
 266 414 268 414 271 414 c 0
 275 414 275 414 280 414 c 0
 286 414 291 411 291 405 c 256
 291 399 282 396 277 396 c 0
 263 396 245 401 245 417 c 0
 245 420 251 428 252 430 c 0
 252 431 251 431 248 431 c 2
 239 431 l 2xddfc
 224 431 206 436 206 451 c 0
 206 457 225 448 225 448 c 0x8bfc
 240 448 259 455 275 455 c 0
 301 455 316 427 316 402 c 0
 316 385 306 373 287 368 c 1
 289 367 291 367 294 367 c 0
 298 367 298 367 300 367 c 0
 309 367 325 376 331 379 c 1x8dfc
EndSplineSet
Validated: 1
Layer: 2
SplineSet
331 379 m 1,0,1
 331 382 331 382 332 397 c 128,-1,2
 333 412 333 412 333 414 c 0,3,4
 333 440 333 440 314 448 c 1,5,6
 310 451 310 451 310 452 c 0,7,8
 310 458 310 458 332.5 463.5 c 128,-1,9
 355 469 355 469 371 469 c 0,10,11
 379 469 379 469 381 468 c 1,12,-1
 381 459 l 2,13,14
 381 450 381 450 375 429 c 128,-1,15
 369 408 369 408 368 404 c 0,16,17
 366 395 366 395 353 377 c 0,18,19
 346 368 346 368 327 358.5 c 128,-1,20
 308 349 308 349 294 349 c 0,21,22
 271 349 271 349 251.5 357.5 c 128,-1,23
 232 366 232 366 222 375.5 c 128,-1,24
 212 385 212 385 198 402 c 0,25,26
 182 422 182 422 164 439 c 0,27,28
 147 456 147 456 120 456 c 0,29,30
 109 456 109 456 96 444 c 128,-1,31
 83 432 83 432 83 422 c 0,32,33
 83 411 83 411 93.5 402.5 c 128,-1,34
 104 394 104 394 115 394 c 0,35,36
 129 394 129 394 129 405 c 0,37,38
 129 412 129 412 127 414 c 128,-1,39
 125 416 125 416 118.5 416.5 c 128,-1,40
 112 417 112 417 108 418 c 1,41,42
 109 428 109 428 127 428 c 0,43,44
 138 428 138 428 151 416 c 0,45,46
 152 415 152 415 151.5 411.5 c 128,-1,47
 151 408 151 408 151 404.5 c 128,-1,48
 151 401 151 401 153 401 c 0,49,50
 154 401 154 401 158 401.5 c 128,-1,51
 162 402 162 402 163 402 c 0,52,53
 171 402 171 402 177 396.5 c 128,-1,54
 183 391 183 391 183 383 c 0,55,56
 183 381 183 381 178 375.5 c 128,-1,57
 173 370 173 370 173 369 c 1,58,59
 172 370 172 370 170.5 374 c 128,-1,60
 169 378 169 378 168 379.5 c 128,-1,61
 167 381 167 381 164.5 382.5 c 128,-1,62
 162 384 162 384 158 384 c 128,-1,63
 154 384 154 384 147 378 c 1,64,65
 139 373 139 373 131 373 c 2,66,-1
 125 373 l 2,67,68
 77 373 77 373 77 416 c 0,69,70
 77 441 77 441 97 456 c 1,71,72
 72 446 72 446 63 423 c 1,73,-1
 63 405 l 2,74,75
 63 399 63 399 70 385 c 128,-1,76
 77 371 77 371 78 368 c 1,77,78
 22 343 22 343 20 342 c 1,79,80
 15 350 15 350 15 358 c 0,81,82
 15 435 15 435 66 466 c 1,83,84
 82.5 478 82.5 478 108 478 c 0,85,86
 163 478 163 478 201 432 c 0,87,88
 203 430 203 430 213 421.5 c 128,-1,89
 223 413 223 413 225 411 c 2,90,-1
 246 390 l 2,91,92
 258 378 258 378 269 378 c 0,93,94
 278 378 278 378 289.5 384.5 c 128,-1,95
 301 391 301 391 301 399 c 0,96,97
 301 408 301 408 295.5 419.5 c 128,-1,98
 290 431 290 431 283 431 c 0,99,100
 269 431 269 431 265 415 c 1,101,102
 266 414 266 414 271 414 c 2,103,-1
 280 414 l 2,104,105
 291 414 291 414 291 405 c 128,-1,106
 291 396 291 396 277 396 c 0,107,108
 245 396 245 396 245 417 c 0,109,110
 245 418 245 418 246.5 421 c 128,-1,111
 248 424 248 424 250 426.5 c 128,-1,112
 252 429 252 429 252 430 c 128,-1,113
 252 431 252 431 248 431 c 2,114,-1
 239 431 l 2,115,116
 206 431 206 431 206 451 c 1,117,118
 207 454 207 454 211 453 c 128,-1,119
 215 452 215 452 220 450 c 2,120,-1
 225 448 l 1,121,122
 232 448 232 448 249.5 451.5 c 128,-1,123
 267 455 267 455 275 455 c 0,124,125
 293 455 293 455 304.5 438.5 c 128,-1,126
 316 422 316 422 316 402 c 0,127,128
 316 376 316 376 287 368 c 1,129,130
 289 367 289 367 294 367 c 2,131,-1
 300 367 l 2,132,133
 307 367 307 367 331 379 c 1,0,1
EndSplineSet
EndChar

StartChar: uni002E
Encoding: 45 46 7
Width: 154
GlyphClass: 1
Flags: W
HStem: 5 87<18.96 91.04>
VStem: 12 86<10.607 85.6359>
LayerCount: 3
Fore
SplineSet
55 5 m 257
 32 5 12 24 12 47 c 257
 12 70 32 92 55 92 c 256
 78 92 98 70 98 47 c 256
 98 24 78 5 55 5 c 257
EndSplineSet
Validated: 1
Layer: 2
SplineSet
55 5 m 256,0,1
 38 5 38 5 25 17.5 c 128,-1,2
 12 30 12 30 12 47 c 128,-1,3
 12 64 12 64 25 78 c 128,-1,4
 38 92 38 92 55 92 c 128,-1,5
 72 92 72 92 85 78 c 128,-1,6
 98 64 98 64 98 47 c 128,-1,7
 98 30 98 30 85 17.5 c 128,-1,8
 72 5 72 5 55 5 c 256,0,1
EndSplineSet
EndChar

StartChar: uni003A
Encoding: 47 58 8
Width: 108
GlyphClass: 1
Flags: W
HStem: 125 87<7.54924 81.04> 502 83<9.85939 84.1406>
VStem: 0 88<131.665 204.451 510.402 577.535>
LayerCount: 3
Fore
SplineSet
47 502 m 256
 24 502 4 521 4 544 c 256
 4 567 23 585 46 585 c 256
 69 585 90 567 90 544 c 256
 90 521 70 502 47 502 c 256
45 125 m 256
 22 125 0 144 0 167 c 256
 0 190 22 212 45 212 c 256
 68 212 88 190 88 167 c 256
 88 144 68 125 45 125 c 256
EndSplineSet
Validated: 1
Layer: 2
SplineSet
47 502 m 256,0,1
 30 502 30 502 17 514.5 c 128,-1,2
 4 527 4 527 4 544 c 128,-1,3
 4 561 4 561 16.5 573 c 128,-1,4
 29 585 29 585 46 585 c 0,5,6
 64 585 64 585 77 573 c 128,-1,7
 90 561 90 561 90 544 c 128,-1,8
 90 527 90 527 77 514.5 c 128,-1,9
 64 502 64 502 47 502 c 256,0,1
45 125 m 256,10,11
 27 125 27 125 13.5 137.5 c 128,-1,12
 0 150 0 150 0 167 c 128,-1,13
 0 184 0 184 14 198 c 128,-1,14
 28 212 28 212 45 212 c 128,-1,15
 62 212 62 212 75 198 c 128,-1,16
 88 184 88 184 88 167 c 128,-1,17
 88 150 88 150 75 137.5 c 128,-1,18
 62 125 62 125 45 125 c 256,10,11
EndSplineSet
EndChar

StartChar: uni003B
Encoding: 48 59 9
Width: 120
GlyphClass: 1
Flags: W
HStem: 179 43<20.914 61.1766> 505 87<7.26379 75.5774>
VStem: 0 88<518.376 577.577> 64 49<117.324 174.261>
LayerCount: 3
Fore
SplineSet
0 175 m 1xe0
 8 185 15 194 22 202 c 0
 29 211 36 216 42 219 c 0
 47 221 51 222 55 222 c 0
 69 222 84 214 101 199 c 0
 109 192 113 183 113 172 c 0
 113 157 105 138 89 114 c 0
 78 98 63 80 42 59 c 1
 47 68 l 2
 54 81 59 97 62 115 c 0
 63 125 64 133 64 138 c 0xd0
 64 145 63 151 62 156 c 0
 58 171 46 179 27 179 c 0
 19 179 10 178 0 175 c 1xe0
0 547 m 256xe0
 0 558 4 569 14 578 c 0
 22 587 33 592 45 592 c 256
 57 592 67 587 76 578 c 0
 84 569 88 558 88 547 c 256
 88 536 84 526 76 518 c 0
 67 509 57 505 45 505 c 256
 33 505 22 509 14 518 c 0
 4 526 0 536 0 547 c 256xe0
EndSplineSet
Validated: 1
Layer: 2
SplineSet
0 175 m 1,0,1
 17 197 17 197 22 202 c 0,2,3
 31 213 31 213 42 219 c 1,4,5
 50 222 50 222 55 222 c 0,6,7
 75 222 75 222 101 199 c 0,8,9
 113 188.5 113 188.5 113 172 c 0,10,11
 113 150 113 150 89 114 c 0,12,13
 71 88 71 88 42 59 c 1,14,-1
 47 68 l 2,15,16
 57 87 57 87 62 115 c 1,17,18
 64 135 64 135 64 138 c 0,19,20
 64 146 64 146 62 156 c 0,21,22
 56 179 56 179 27 179 c 0,23,24
 13 179 13 179 0 175 c 1,0,1
0 547 m 256,25,26
 0 565 0 565 14 578 c 1,27,28
 26 592 26 592 45 592 c 0,29,30
 62 592 62 592 76 578 c 1,31,32
 88 564 88 564 88 547 c 0,33,34
 88 530 88 530 76 518 c 0,35,36
 63 505 63 505 45 505 c 0,37,38
 26 505 26 505 14 518 c 1,39,40
 0 529 0 529 0 547 c 256,25,26
EndSplineSet
EndChar

StartChar: uni0041
Encoding: 54 65 10
Width: 299
VWidth: 841
GlyphClass: 2
Flags: W
HStem: 0 14<76 83.6337 202 221 272 288> 703 13<119 219 271 290>
VStem: 34 15<18.8035 41> 39 19<156 193.017> 45 0 77 41<275.852 455.748> 93 38<130.943 284.288> 103 37<59.0213 267.449> 118 11<605 636.166> 157 31<572 577> 165 17<628 647.118> 223 49<14 346 348.024 554.203 604 703>
AnchorPoint: "Diacritic" 175.944 798.096 basechar 0
AnchorPoint: "Yerok" 247.944 798.096 basechar 0
LayerCount: 3
Fore
SplineSet
129 275 m 1xc090
 160 312 191 341 223 364 c 1
 223 506 l 2
 223 521 222 538 221 555 c 1
 206 539 194 528 184 523 c 0
 146 501 118 474 118 415 c 2
 118 363 l 2xc410
 118 322 122 293 129 275 c 1xc090
77 326 m 0
 77 366 75 370 75 385 c 0
 76 400 77 411 80 420 c 0
 89 448 106 474 132 497 c 0
 155 517 179 539 205 560 c 1
 213 567 l 1
 216 583 l 1
 214 589 207 594 195 597 c 1
 177 587 l 1
 188 577 l 1
 188 569 l 1
 177 562 l 1
 157 572 l 1
 157 583 l 2xc450
 156 589 161 596 172 604 c 1
 164 612 160 619 160 626 c 0
 160 638 164 653 165 663 c 1
 182 636 l 1
 177 628 l 1
 181 620 188 615 198 612 c 0
 208 609 215 607 219 604 c 1
 219 703 l 1
 119 703 l 1
 126 670 129 643 129 621 c 0
 129 620 129 618 129 617 c 0
 129 586 113 570 80 569 c 1
 62 580 l 1
 62 611 l 1
 66 619 l 1
 77 604 89 595 100 594 c 1
 117 605 l 1
 118 613 l 1xc0b0
 118 624 113 638 104 655 c 1
 104 655 77 698 77 715 c 1xc410
 105 715 132 716 158 719 c 0
 159 719 160 719 162 719 c 0
 167 719 174 718 183 716 c 1
 183 716 183 716 290 716 c 1
 290 703 l 1
 271 703 l 1
 270 652 270 617 270 598 c 0
 270 585 270 585 270 583 c 0
 271 578 271 526 272 425 c 0
 272 324 272 231 272 146 c 0
 272 57 272 57 272 14 c 1
 288 14 l 1
 288 0 l 1
 202 0 l 1
 202 14 l 1
 221 14 l 1
 222 31 223 73 223 139 c 2
 223 292 l 2
 222 319 222 337 222 346 c 1
 190 323 162 297 137 266 c 0
 132 259 129 256 130 256 c 0
 131 256 131 254 131 250 c 2
 131 201 l 2xc210
 131 178 140 150 140 130 c 0
 140 85 119 42 78 0 c 0
 77 -1 77 -1 76 -1 c 0
 76 -1 76 -1 76 0 c 0
 61 3 53 6 50 9 c 1
 41 13 36 18 34 23 c 1
 34 37 l 2xe110
 33 42 35 52 39 67 c 0
 47 98 51 116 51 123 c 0
 51 136 39 148 39 160 c 0xd010
 39 172 42 178 45 188 c 1
 46 198 46 207 45 214 c 1xc810
 48 211 58 164 58 157 c 0
 58 156 l 0
 55 156 62 142 63 140 c 2
 78 111 l 1
 66 86 l 1
 87 81 87 76 87 52 c 1
 84 50 72 42 67 45 c 1
 60 54 l 1
 70 74 l 1
 66 78 l 1
 63 78 l 1
 58 67 l 1xd010
 49 41 l 1
 49 24 54 15 70 15 c 0
 90 15 90 24 97 42 c 0
 101 53 103 63 103 72 c 0xe110
 103 76 103 80 102 83 c 0
 100 93 99 112 99 141 c 1
 95 160 93 182 93 205 c 0xc210
 93 242 90 263 85 268 c 0
 80 273 77 293 77 326 c 0
EndSplineSet
Validated: 1
Layer: 2
SplineSet
129 275 m 1,0,1
 174 329 174 329 223 364 c 1,2,-1
 223 506 l 2,3,4
 223 521 223 521 221 555 c 1,5,6
 197 530 197 530 184 523 c 0,7,8
 152 504 152 504 135 480 c 128,-1,9
 118 456 118 456 118 415 c 2,10,-1
 118 363 l 2,11,12
 118 303 118 303 129 275 c 1,0,1
77 326 m 0,13,14
 77 349 77 349 76 365 c 128,-1,15
 75 381 75 381 75 385 c 0,16,17
 77 410 77 410 80 420 c 0,18,19
 94 463 94 463 132 497 c 0,20,21
 197 554 197 554 205 560 c 2,22,-1
 213 567 l 1,23,-1
 216 583 l 1,24,25
 213 593 213 593 195 597 c 1,26,-1
 177 587 l 1,27,-1
 188 577 l 1,28,-1
 188 569 l 1,29,-1
 177 562 l 1,30,-1
 157 572 l 1,31,-1
 157 583 l 1,32,33
 155.5 592 155.5 592 172 604 c 1,34,35
 160 616 160 616 160 626 c 0,36,37
 160 633 160 633 162.5 646.5 c 128,-1,38
 165 660 165 660 165 663 c 1,39,-1
 182 636 l 1,40,-1
 177 628 l 1,41,42
 183 617 183 617 198 612 c 0,43,44
 215 607 215 607 219 604 c 1,45,-1
 219 703 l 1,46,-1
 119 703 l 1,47,48
 129 656 129 656 129 621 c 2,49,-1
 129 617 l 2,50,51
 129 570 129 570 80 569 c 1,52,-1
 62 580 l 1,53,-1
 62 611 l 1,54,-1
 66 619 l 1,55,56
 83 596 83 596 100 594 c 1,57,-1
 117 605 l 1,58,-1
 118 613 l 1,59,60
 118 629 118 629 104 655 c 1,61,62
 77 698 77 698 77 715 c 1,63,64
 123 715 123 715 158 719 c 1,65,-1
 162 719 l 2,66,67
 169.5 719 169.5 719 183 716 c 1,68,-1
 290 716 l 1,69,-1
 290 703 l 1,70,-1
 271 703 l 1,71,72
 270 652 270 652 270 598 c 2,73,74
 270 583 l 2,75,76
 270 581 270 581 272 425 c 1,77,78
 272 146 l 1,79,80
 272 14 l 1,81,-1
 288 14 l 1,82,-1
 288 0 l 1,83,-1
 202 0 l 1,84,-1
 202 14 l 1,85,-1
 221 14 l 1,86,87
 223 48 223 48 223 139 c 2,88,-1
 223 292 l 1,89,90
 222 319 222 319 222 346 c 1,91,92
 173 311 173 311 137 266 c 0,93,94
 135 263 135 263 133 260.5 c 128,-1,95
 131 258 131 258 130.5 257 c 2,96,-1
 130 256 l 2,97,98
 131 256 131 256 131 250 c 2,99,-1
 131 201 l 2,100,101
 131 189 131 189 135.5 164.5 c 128,-1,102
 140 140 140 140 140 130 c 0,103,104
 140 64 140 64 78 0 c 0,105,106
 77 -1 77 -1 76 -1 c 1,107,-1
 76 0 l 1,108,109
 55 4 55 4 50 9 c 1,110,111
 37 15 37 15 34 23 c 1,112,-1
 34 37 l 1,113,114
 33 43 33 43 39 67 c 0,115,116
 51 114 51 114 51 123 c 0,117,118
 51 130 51 130 45 142 c 128,-1,119
 39 154 39 154 39 160 c 0,120,121
 39 168 39 168 45 188 c 1,122,123
 47 203 47 203 45 214 c 1,124,125
 47 212 47 212 52.5 187.5 c 128,-1,126
 58 163 58 163 58 157 c 2,127,-1
 58 156 l 1,128,129
 57 155 57 155 57 154 c 128,-1,130
 57 153 57 153 59 149 c 128,-1,131
 61 145 61 145 61.5 143.5 c 128,-1,132
 62 142 62 142 63 140 c 2,133,-1
 78 111 l 1,134,-1
 66 86 l 1,135,136
 81 82 81 82 84 76.5 c 128,-1,137
 87 71 87 71 87 52 c 1,138,139
 72 42 72 42 67 45 c 1,140,-1
 60 54 l 1,141,-1
 70 74 l 1,142,-1
 66 78 l 1,143,-1
 63 78 l 1,144,-1
 58 67 l 1,145,-1
 49 41 l 1,146,147
 49 15 49 15 70 15 c 0,148,149
 75 15 75 15 78.5 16 c 128,-1,150
 82 17 82 17 84 18 c 128,-1,151
 86 19 86 19 88.5 22 c 128,-1,152
 91 25 91 25 91.5 26.5 c 128,-1,153
 92 28 92 28 94 34 c 128,-1,154
 96 40 96 40 97 42 c 0,155,156
 103 58.5 103 58.5 103 72 c 0,157,158
 103 80 103 80 102 83 c 0,159,160
 99 98 99 98 99 141 c 1,161,162
 93 169 93 169 93 205 c 0,163,164
 93 260 93 260 85 268 c 128,-1,165
 77 276 77 276 77 326 c 0,13,14
EndSplineSet
AlternateSubs2: "'ss02' Cyrillic Equivalent Forms-1" uni0410
EndChar

StartChar: uni0042
Encoding: 55 66 11
Width: 320
VWidth: 841
GlyphClass: 2
Flags: W
HStem: 0 9<43 59 266 284> 358 11<169.259 196.923> 426 12<210 222.92> 587 28<135.315 165.696> 698 17<153.332 187.929>
VStem: 59 53<14 562.672> 61 41<419.83 651.062> 116 13<555 579.429> 148 34<380.142 413.338> 148 20<369.406 385.64> 168 8<556 575.721> 182 27<295.568 321> 200 18<370.596 402> 209 57<14 211.406 222 231.456> 212 54<14.7932 214 607 640> 228 16<443.314 470.906>
DStem2: 158 452 161 439 0.986394 -0.164399<-3.75 36.7145>
AnchorPoint: "Diacritic" 181.944 796.096 basechar 0
AnchorPoint: "Yerok" 233.944 796.096 basechar 0
LayerCount: 3
Fore
SplineSet
131 669 m 2xf908
 116 669 102 596 102 563 c 0
 102 556 102 549 103 542 c 0
 107 498 109 457 109 418 c 1
 113 433 129 444 158 452 c 1
 182 448 l 1xfb10
 203 438 l 1
 210 438 l 2
 222 438 228 447 228 464 c 0
 228 467 226 469 221 471 c 1
 198 461 l 1
 203 482 211 493 221 493 c 0
 227 493 234 487 241 474 c 0
 243 471 244 468 244 467 c 2
 244 459 l 2
 244 452 237 442 223 431 c 0
 220 428 218 427 217 426 c 2
 210 426 l 1
 218 402 l 1
 218 394 l 1xf909
 207 326 l 1
 209 316 l 1xf910
 209 309 212 304 218 299 c 0xf908
 227 292 231 287 231 284 c 0
 230 273 222 281 220 273 c 1
 205 278 195 284 190 290 c 0
 185 297 182 303 182 306 c 2
 182 321 l 1xf910
 200 363 l 1
 172 358 l 2
 171 358 l 0
 162 358 148 374 148 382 c 2
 148 397 l 1
 150 401 151 404 151 406 c 2
 151 415 l 1
 149 420 l 2
 149 423 150 424 153 424 c 1
 162 418 l 1
 167 407 182 409 182 396 c 0xf988
 182 388 177 383 168 380 c 1
 168 373 172 369 181 369 c 0
 192 369 199 373 200 382 c 1
 200 395 l 2
 200 424 189 438 167 438 c 1
 161 439 l 1
 142 433 117 414 113 391 c 1
 113 368 l 2
 113 353 122 332 139 305 c 0
 153 284 174 266 203 252 c 0
 215 246 223 242 228 240 c 2xf949
 258 225 l 1
 263 224 266 222 266 219 c 0
 266 149 266 79 266 9 c 1
 284 9 l 1
 284 0 l 1
 43 0 l 1
 43 10 l 1
 59 10 l 1
 59 191 l 1
 58 316 l 1
 58 396 l 1
 59 479 l 1xfd02
 61 509 l 1
 62 549 l 1
 62 612 l 1
 69 632 79 650 92 667 c 0
 115 695 139 711 162 715 c 1
 203 715 l 2
 218 715 232 701 244 674 c 0xfb01
 247 668 248 664 249 661 c 1
 255 653 255 648 259 640 c 1
 263 618 l 1
 263 607 l 1
 245 556 l 2
 236 533 211 504 184 500 c 1
 172 500 l 2
 159 500 143 509 124 528 c 0
 119 533 116 539 116 545 c 2
 116 560 l 2
 117 561 117 563 117 565 c 0
 117 573 123 583 129 592 c 0
 138 607 147 615 155 615 c 2
 168 615 l 1
 182 602 l 1
 182 597 l 1
 183 591 l 1
 176 556 l 1
 169 555 168 560 168 566 c 0
 168 572 158 587 151 587 c 2
 142 587 l 1
 133 578 129 571 129 566 c 2
 129 555 l 1
 140 534 l 2
 143 529 146 526 150 524 c 2
 160 519 l 2
 163 517 165 515 167 514 c 1
 181 517 191 521 197 527 c 0
 204 534 209 538 212 539 c 1xf932
 214 546 l 1
 214 559 l 1
 218 576 l 1
 218 616 l 1
 209 651 200 673 192 684 c 0
 186 694 179 698 172 698 c 0
 159 698 146 684 132 669 c 1
 131 669 l 2xf908
212 48 m 1xfd02
 212 103 212 159 212 214 c 1xfd02
 209 222 l 1
 209 230 l 1xf904
 173 245 141 277 112 326 c 1
 112 14 l 1
 210 14 l 1
 210 31 211 43 212 48 c 1xfd02
223 392 m 1
 222 392 l 1
 223 395 l 1
 224 394 l 1
 223 392 l 1
EndSplineSet
Validated: 1
Layer: 2
SplineSet
131 669 m 2,0,1
 121 669 121 669 111.5 630 c 128,-1,2
 102 591 102 591 102 563 c 0,3,4
 102 549 102 549 103 542 c 0,5,6
 109 476 109 476 109 418 c 1,7,8
 115 440 115 440 158 452 c 1,9,-1
 182 448 l 1,10,-1
 203 438 l 1,11,-1
 210 438 l 2,12,13
 228 438 228 438 228 464 c 0,14,15
 228 468 228 468 221 471 c 1,16,-1
 198 461 l 1,17,18
 206 493 206 493 221 493 c 0,19,20
 231 493 231 493 241 474 c 0,21,22
 244 470 244 470 244 467 c 2,23,-1
 244 459 l 2,24,25
 244 448 244 448 223 431 c 0,26,27
 221 429 221 429 219 427.5 c 2,28,-1
 217 426 l 1,29,-1
 210 426 l 1,30,-1
 218 402 l 1,31,-1
 218 394 l 1,32,-1
 207 326 l 1,33,-1
 209 316 l 1,34,35
 209 306 209 306 218 299 c 0,36,37
 231 289 231 289 231 284 c 0,38,39
 230 278 230 278 225.5 277.5 c 128,-1,40
 221 277 221 277 220 273 c 1,41,42
 198 280 198 280 190 290 c 0,43,44
 182 301 182 301 182 306 c 2,45,-1
 182 321 l 1,46,-1
 200 363 l 1,47,-1
 172 358 l 1,48,-1
 171 358 l 2,49,50
 164 358 164 358 156 367 c 128,-1,51
 148 376 148 376 148 382 c 2,52,-1
 148 397 l 1,53,54
 151 403 151 403 151 406 c 2,55,-1
 151 415 l 1,56,-1
 149 420 l 1,57,58
 149 424 149 424 153 424 c 1,59,-1
 162 418 l 1,60,61
 164 413 164 413 173 408 c 128,-1,62
 182 403 182 403 182 396 c 0,63,64
 182 385 182 385 168 380 c 1,65,66
 168 369 168 369 181 369 c 0,67,68
 199 369 199 369 200 382 c 1,69,-1
 200 395 l 2,70,71
 200 438 200 438 167 438 c 1,72,-1
 161 439 l 1,73,74
 145 434 145 434 130.5 420.5 c 128,-1,75
 116 407 116 407 113 391 c 1,76,-1
 113 368 l 2,77,78
 113 346 113 346 139 305 c 0,79,80
 161 272 161 272 203 252 c 0,81,82
 223 242 223 242 228 240 c 2,83,-1
 258 225 l 1,84,85
 266 223 266 223 266 219 c 2,86,-1
 266 9 l 1,87,-1
 284 9 l 1,88,-1
 284 0 l 1,89,-1
 43 0 l 1,90,-1
 43 10 l 1,91,-1
 59 10 l 1,92,-1
 59 191 l 1,93,-1
 58 316 l 1,94,-1
 58 396 l 1,95,-1
 59 479 l 1,96,-1
 61 509 l 1,97,-1
 62 549 l 1,98,-1
 62 612 l 1,99,100
 72 641 72 641 92 667 c 0,101,102
 126 709 126 709 162 715 c 1,103,-1
 203 715 l 2,104,105
 226 715 226 715 244 674 c 0,106,107
 246 670 246 670 249 661 c 1,108,109
 252 657 252 657 253.5 654 c 128,-1,110
 255 651 255 651 256.5 647 c 128,-1,111
 258 643 258 643 259 640 c 2,112,-1
 263 618 l 1,113,-1
 263 607 l 1,114,-1
 245 556 l 2,115,116
 238 537 238 537 220.5 520 c 128,-1,117
 203 503 203 503 184 500 c 1,118,-1
 172 500 l 2,119,120
 152 500 152 500 124 528 c 0,121,122
 116 536 116 536 116 545 c 2,123,-1
 116 560 l 1,124,125
 117 561 117 561 117 565 c 0,126,127
 117 574 117 574 129 592 c 0,128,129
 143 615 143 615 155 615 c 2,130,-1
 168 615 l 1,131,-1
 182 602 l 1,132,-1
 182 597 l 1,133,-1
 183 591 l 1,134,-1
 176 556 l 1,135,136
 171 555 171 555 169.5 558 c 128,-1,137
 168 561 168 561 168 566 c 128,-1,138
 168 571 168 571 162 579 c 128,-1,139
 156 587 156 587 151 587 c 2,140,-1
 142 587 l 1,141,142
 129 574 129 574 129 566 c 2,143,-1
 129 555 l 1,144,-1
 140 534 l 2,145,146
 144 527 144 527 150 524 c 2,147,-1
 160 519 l 2,148,149
 161 518 161 518 163.5 516.5 c 128,-1,150
 166 515 166 515 167 514 c 1,151,152
 189 519 189 519 197 527 c 0,153,154
 207.5 537.5 207.5 537.5 212 539 c 1,155,-1
 214 546 l 1,156,-1
 214 559 l 1,157,-1
 218 576 l 1,158,-1
 218 616 l 1,159,160
 205 666 205 666 192 684 c 1,161,162
 184 698 184 698 172 698 c 0,163,164
 159 698 159 698 132 669 c 1,165,-1
 131 669 l 2,0,1
212 48 m 1,166,-1
 212 214 l 1,167,-1
 209 222 l 1,168,-1
 209 230 l 1,169,170
 156 252 156 252 112 326 c 1,171,-1
 112 14 l 1,172,-1
 210 14 l 1,173,174
 210 38 210 38 212 48 c 1,166,-1
223 392 m 1,175,-1
 222 392 l 1,176,-1
 223 395 l 1,177,-1
 224 394 l 1,178,-1
 223 392 l 1,175,-1
EndSplineSet
AlternateSubs2: "'ss02' Cyrillic Equivalent Forms-1" uni0412
EndChar

StartChar: uni0043
Encoding: 56 67 12
Width: 290
VWidth: 841
GlyphClass: 2
Flags: W
HStem: 0 16<112.913 155.138> 79 15<124 126> 341 7<250.325 257.999> 696 20G<152 180>
VStem: 45 61<326.085 552 556 586.147> 83 17<39 70.4458> 166 18<31 117> 168 40<18.4507 23 513.333 530> 172 53<570.429 586.734 644.096 695.853> 184 41<587 628> 206 30<292 312> 233 12<484.172 511.871> 236 34<104.777 206.5>
DStem2: 100 134 117 108 0.290482 0.956881<-42.94 10.5257>
AnchorPoint: "Diacritic" 169.944 796.096 basechar 0
AnchorPoint: "Yerok" 213.944 796.096 basechar 0
LayerCount: 3
Fore
SplineSet
169 697 m 0xf040
 157 697 125 662 125 654 c 1
 106 617 l 1
 106 557 l 2
 106 556 106 556 104 556 c 2
 103 556 l 1
 101 552 l 1
 101 439 110 347 128 277 c 1
 149 200 l 1
 178 120 l 1
 184 100 l 1
 184 57 l 1
 178 31 l 1
 179 26 l 1
 217 51 236 78 236 109 c 0xfa08
 236 121 233 127 233 141 c 0xf010
 233 185 206 226 206 278 c 0
 206 320 224 337 258 348 c 1
 258 343 256 341 253 341 c 0
 250 341 249 339 250 336 c 1
 236 312 l 1
 236 298 l 1xf020
 237 292 l 1
 253 248 262 222 264 213 c 0
 268 196 270 182 270 171 c 0
 270 157 269 146 266 138 c 0
 247 83 230 48 214 33 c 2
 203 23 l 2
 203 22 200 20 195 16 c 0
 188 10 174 5 155 0 c 1
 121 0 l 1
 107 2 86 24 86 39 c 1
 83 61 l 1
 83 78 l 1
 100 134 l 1
 100 145 l 1
 80 204 l 2
 81 205 81 206 81 207 c 0
 81 208 81 209 82 210 c 1
 90 206 89 200 96 190 c 0
 105 176 126 159 126 138 c 1
 117 108 l 1
 107 87 l 1
 124 94 l 1
 137 94 l 1
 156 79 l 1
 156 68 l 2
 156 62 149 59 145 56 c 1
 142 52 135 47 132 44 c 1
 126 44 124 47 124 52 c 1
 131 63 l 1
 126 79 l 1
 120 79 100 67 100 61 c 0
 100 56 100 51 100 46 c 0
 103 27 116 19 133 16 c 1
 143 16 l 1
 153 19 166 33 166 44 c 2
 166 101 l 1
 163 117 l 1
 151 158 139 184 127 196 c 0
 123 200 119 210 116 216 c 0
 102 244 94 253 83 271 c 1xf608
 63 310 45 385 45 454 c 0
 45 530 62 588 91 639 c 0
 110 673 136 699 168 716 c 1xf9
 180 708 l 1
 221 708 231 651 231 599 c 1
 225 579 l 1
 225 574 l 1xf080
 218 549 l 1
 208 530 l 1
 208 522 l 1xf1
 211 509 l 1
 211 493 l 2
 211 487 219 485 225 484 c 0xf040
 228 483 230 487 233 495 c 0
 238 509 242 517 245 519 c 1
 245 501 l 1
 249 484 l 1
 244 471 227 469 219 463 c 1
 222 462 l 1
 224 460 l 1
 215 462 191 476 187 480 c 0
 181 488 168 510 168 518 c 2
 168 527 l 1xf110
 170 537 l 2
 171 544 172 549 172 552 c 0xf080
 172 556 174 562 177 570 c 2
 184 587 l 1
 184 601 l 1
 191 628 l 1
 194 644 l 1
 193 646 192 651 189 660 c 2
 186 674 l 2
 184 683 180 690 173 693 c 1
 173 696 172 697 169 697 c 0xf040
EndSplineSet
Validated: 1
Layer: 2
SplineSet
169 697 m 0,0,1
 161 697 161 697 143 679 c 128,-1,2
 125 661 125 661 125 654 c 1,3,-1
 106 617 l 1,4,-1
 106 557 l 2,5,6
 106 556 106 556 104 556 c 2,7,-1
 103 556 l 1,8,-1
 101 552 l 1,9,10
 101 382 101 382 128 277 c 1,11,-1
 149 200 l 1,12,-1
 178 120 l 1,13,-1
 184 100 l 1,14,-1
 184 57 l 1,15,-1
 178 31 l 1,16,-1
 179 26 l 1,17,18
 236 64 236 64 236 109 c 0,19,20
 236 115 236 115 234.5 124.5 c 128,-1,21
 233 134 233 134 233 141 c 0,22,23
 233 162 233 162 219.5 206.5 c 128,-1,24
 206 251 206 251 206 278 c 0,25,26
 206 308 206 308 218.5 323.5 c 128,-1,27
 231 339 231 339 258 348 c 1,28,29
 258 341 258 341 253 341 c 128,-1,30
 248 341 248 341 250 336 c 1,31,-1
 236 312 l 1,32,-1
 236 298 l 1,33,-1
 237 292 l 1,34,35
 261 225 261 225 264 213 c 0,36,37
 270 187.5 270 187.5 270 171 c 0,38,39
 270 149 270 149 266 138 c 0,40,41
 237 55 237 55 214 33 c 2,42,-1
 203 23 l 2,43,44
 203 22 203 22 195 16 c 0,45,46
 186 8 186 8 155 0 c 1,47,-1
 121 0 l 1,48,49
 110 2 110 2 98 15 c 128,-1,50
 86 28 86 28 86 39 c 1,51,-1
 83 61 l 1,52,-1
 83 78 l 1,53,-1
 100 134 l 1,54,-1
 100 145 l 1,55,-1
 80 204 l 1,56,57
 81 205 81 205 81 207 c 128,-1,58
 81 209 81 209 82 210 c 1,59,60
 86 208 86 208 87.5 205.5 c 128,-1,61
 89 203 89 203 91 198.5 c 128,-1,62
 93 194 93 194 96 190 c 0,63,64
 98 186 98 186 107 176 c 128,-1,65
 116 166 116 166 121 156.5 c 128,-1,66
 126 147 126 147 126 138 c 1,67,-1
 117 108 l 1,68,-1
 107 87 l 1,69,-1
 124 94 l 1,70,-1
 137 94 l 1,71,-1
 156 79 l 1,72,-1
 156 68 l 2,73,74
 156 64 156 64 145 56 c 0,75,76
 143 54 143 54 138 49.5 c 128,-1,77
 133 45 133 45 132 44 c 1,78,79
 124 44 124 44 124 52 c 1,80,-1
 131 63 l 1,81,-1
 126 79 l 1,82,83
 121 79 121 79 110.5 72 c 128,-1,84
 100 65 100 65 100 61 c 2,85,-1
 100 46 l 1,86,87
 104 21 104 21 133 16 c 1,88,-1
 143 16 l 1,89,90
 151 18 151 18 158.5 27 c 128,-1,91
 166 36 166 36 166 44 c 2,92,-1
 166 101 l 1,93,-1
 163 117 l 1,94,95
 145 178 145 178 127 196 c 0,96,97
 125 198 125 198 116 216 c 0,98,99
 113 222 113 222 83 271 c 1,100,101
 45 345 45 345 45 454 c 0,102,103
 45 558 45 558 91 639 c 0,104,105
 120 690 120 690 168 716 c 1,106,-1
 180 708 l 1,107,108
 231 708 231 708 231 599 c 1,109,-1
 225 579 l 1,110,-1
 225 574 l 1,111,-1
 218 549 l 1,112,-1
 208 530 l 1,113,-1
 208 522 l 1,114,-1
 211 509 l 1,115,-1
 211 493 l 2,116,117
 211 486 211 486 225 484 c 0,118,119
 227 483 227 483 229 485.5 c 128,-1,120
 231 488 231 488 233 495 c 0,121,122
 240.5 516 240.5 516 245 519 c 1,123,-1
 245 501 l 1,124,-1
 249 484 l 1,125,126
 247 478 247 478 241.5 474.5 c 128,-1,127
 236 471 236 471 229 468 c 128,-1,128
 222 465 222 465 219 463 c 1,129,-1
 222 462 l 1,130,-1
 224 460 l 1,131,132
 218 461 218 461 204 469 c 128,-1,133
 190 477 190 477 187 480 c 0,134,135
 168 505 168 505 168 518 c 2,136,-1
 168 527 l 1,137,-1
 170 537 l 2,138,139
 172 551 172 551 172 552 c 0,140,141
 172 557 172 557 177 570 c 2,142,-1
 184 587 l 1,143,-1
 184 601 l 1,144,-1
 191 628 l 1,145,-1
 194 644 l 2,146,147
 194 645 194 645 193 647 c 128,-1,148
 192 649 192 649 191 652.5 c 128,-1,149
 190 656 190 656 189 660 c 2,150,-1
 186 674 l 2,151,152
 183 689 183 689 173 693 c 1,153,154
 173 697 173 697 169 697 c 0,0,1
EndSplineSet
AlternateSubs2: "'ss02' Cyrillic Equivalent Forms-1" uni0421
EndChar

StartChar: uni0044
Encoding: 57 68 13
Width: 305
VWidth: 841
GlyphClass: 2
Flags: W
HStem: 0 16<34 53 101 115> 66 29<138.806 154.998> 130 11<142 148.262> 251 11<140.112 164.52> 552 13<136 138.842> 684 19<159.376 185.999> 697 18<37 51 101 112>
VStem: 34 81<0 16 697 715> 52 62<46.8116 91 108 128.989 565.012 635 696 697> 53 48<16 73 91 572 639 696> 127 13<242 250.062> 129 19<507.008 516.785> 155 24<95.1414 126.93 576.291 618.132> 174 11<199.661 236.048> 182 8<516.948 544.712> 208 46<47.9271 99> 213 48<128 619>
DStem2: 131 155 125 133 0.644871 0.764291<-20.3479 71.4455>
AnchorPoint: "Diacritic" 165.944 796.096 basechar 0
AnchorPoint: "Yerok" 237.944 796.096 basechar 0
LayerCount: 3
Fore
SplineSet
266 124 m 1xf8
 264 125 l 1
 266 126 l 1
 267 126 l 1
 266 124 l 1xf8
155 66 m 2xfc08
 150 66 138 78 138 83 c 0
 138 91 141 95 146 95 c 1
 152 98 155 102 155 107 c 0
 155 115 148 130 140 130 c 0
 133 130 114 115 114 108 c 2
 114 89 l 2
 114 66 143 33 164 30 c 1
 182 35 208 49 208 71 c 1xfca9
 211 99 l 1
 205 117 l 1
 207 128 l 1
 214 158 l 1
 213 199 l 1
 213 587 l 1
 205 631 l 1
 196 666 184 684 170 684 c 0
 168 684 166 683 163 682 c 0
 160 681 143 665 113 635 c 1
 110 608 l 1
 110 594 l 1
 111 586 l 2
 111 581 125 565 130 565 c 0
 136 565 151 585 151 591 c 2
 151 608 l 1
 148 625 l 1
 160 645 l 1
 166 645 l 2
 167 644 168 643 169 641 c 1
 162 632 l 1
 164 620 176 605 176 592 c 2
 176 581 l 2
 176 578 173 572 167 564 c 1
 182 561 181 557 190 548 c 1
 190 520 l 2
 190 512 183 505 169 498 c 0
 166 497 164 496 163 496 c 2
 145 496 l 2
 135 496 129 506 129 515 c 0
 129 520 130 523 133 526 c 0
 140 533 145 536 148 537 c 1
 157 531 l 1
 171 524 l 1
 160 517 l 1
 155 517 151 516 148 513 c 1
 148 510 152 508 161 506 c 1
 175 510 182 518 182 530 c 0xfc1280
 182 542 177 549 167 552 c 1
 150 552 l 1
 136 548 l 1
 124 551 l 2
 116 552 108 559 101 572 c 1
 99 560 l 1
 99 91 l 1
 103 99 l 1
 106 116 115 135 131 155 c 0
 147 175 158 188 164 194 c 0
 171 201 174 208 174 217 c 0
 174 232 167 251 153 251 c 0
 152 251 152 251 151 251 c 0
 144 250 140 248 140 245 c 1
 144 238 149 246 154 240 c 0
 157 236 158 234 159 231 c 1
 142 196 l 1
 132 194 l 1
 132 206 l 1
 127 226 l 1
 127 244 l 2
 127 250 140 262 146 262 c 2
 162 262 l 2
 168 262 175 250 183 227 c 0
 184 223 185 221 185 220 c 2
 185 208 l 1xfc64
 182 193 171 179 152 165 c 1
 125 133 l 1
 142 141 l 1
 151 141 l 1
 170 126 179 115 179 109 c 2
 179 92 l 1
 162 66 l 1
 155 66 l 2xfc08
184 703 m 0
 198 703 216 689 222 680 c 1
 227 680 l 1
 255 619 l 1
 261 589 l 1
 261 120 l 1xfc4080
 254 98 l 1
 254 65 213 18 187 11 c 1
 171 8 l 2
 169 8 169 8 167 8 c 0
 139 8 111 45 103 69 c 0
 102 71 102 72 101 73 c 2
 101 16 l 1xfc41
 115 16 l 1
 115 0 l 1
 34 0 l 1
 34 16 l 1xfd
 53 16 l 1xfc40
 52 136 l 1xfc80
 53 211 l 1
 53 228 l 1
 55 281 57 322 57 349 c 2
 55 463 l 1
 52 506 51 584 51 697 c 1
 37 697 l 1
 33 715 l 1
 112 715 l 1
 112 696 l 1
 101 696 l 1
 101 639 l 1xfa40
 115 664 129 680 142 687 c 0
 163 698 177 703 184 703 c 0
EndSplineSet
Validated: 1
Layer: 2
SplineSet
266 124 m 1,0,-1
 264 125 l 1,1,-1
 266 126 l 1,2,-1
 267 126 l 1,3,-1
 266 124 l 1,0,-1
155 66 m 2,4,5
 151 66 151 66 144.5 72.5 c 128,-1,6
 138 79 138 79 138 83 c 0,7,8
 138 95 138 95 146 95 c 1,9,10
 155 99.5 155 99.5 155 107 c 0,11,12
 155 114 155 114 150.5 122 c 128,-1,13
 146 130 146 130 140 130 c 0,14,15
 135 130 135 130 124.5 121.5 c 128,-1,16
 114 113 114 113 114 108 c 2,17,-1
 114 89 l 2,18,19
 114 72 114 72 131 52 c 128,-1,20
 148 32 148 32 164 30 c 1,21,22
 181 35 181 35 194.5 45.5 c 128,-1,23
 208 56 208 56 208 71 c 1,24,-1
 211 99 l 1,25,-1
 205 117 l 1,26,-1
 207 128 l 1,27,-1
 214 158 l 1,28,-1
 213 199 l 1,29,-1
 213 587 l 1,30,-1
 205 631 l 1,31,32
 191 684 191 684 170 684 c 0,33,34
 169 684 169 684 163 682 c 0,35,36
 159 680 159 680 113 635 c 1,37,-1
 110 608 l 1,38,-1
 110 594 l 1,39,-1
 111 586 l 2,40,41
 111 582 111 582 118.5 573.5 c 128,-1,42
 126 565 126 565 130 565 c 128,-1,43
 134 565 134 565 142.5 575.5 c 128,-1,44
 151 586 151 586 151 591 c 2,45,-1
 151 608 l 1,46,-1
 148 625 l 1,47,-1
 160 645 l 1,48,-1
 166 645 l 1,49,50
 168 643 168 643 169 641 c 1,51,-1
 162 632 l 1,52,53
 163 627 163 627 169.5 613 c 128,-1,54
 176 599 176 599 176 592 c 2,55,-1
 176 581 l 2,56,57
 176 576 176 576 167 564 c 1,58,59
 174 563 174 563 177 561.5 c 128,-1,60
 180 560 180 560 184 555 c 128,-1,61
 188 550 188 550 190 548 c 1,62,-1
 190 520 l 2,63,64
 190 508 190 508 169 498 c 0,65,66
 168 498 168 498 166 496.91 c 128,-1,67
 164 496 164 496 163 496 c 2,68,-1
 145 496 l 2,69,70
 129 496 129 496 129 515 c 0,71,72
 129 522 129 522 133 526 c 0,73,74
 142 535 142 535 148 537 c 1,75,-1
 157 531 l 1,76,-1
 171 524 l 1,77,-1
 160 517 l 1,78,79
 152 517 152 517 148 513 c 1,80,81
 148 509 148 509 161 506 c 1,82,83
 182 512 182 512 182 530 c 128,-1,84
 182 548 182 548 167 552 c 1,85,-1
 150 552 l 1,86,-1
 136 548 l 1,87,-1
 124 551 l 1,88,89
 111 553 111 553 101 572 c 1,90,-1
 99 560 l 1,91,-1
 99 91 l 1,92,-1
 103 99 l 1,93,94
 108 126 108 126 131 155 c 0,95,96
 155 185 155 185 164 194 c 0,97,98
 174 204 174 204 174 217 c 128,-1,99
 174 230 174 230 168.5 240.5 c 128,-1,100
 163 251 163 251 153 251 c 2,101,-1
 151 251 l 1,102,103
 140 249 140 249 140 245 c 1,104,105
 142 241 142 241 146.5 242 c 128,-1,106
 151 243 151 243 154 240 c 0,107,108
 158 235 158 235 159 231 c 1,109,-1
 142 196 l 1,110,-1
 132 194 l 1,111,-1
 132 206 l 1,112,-1
 127 226 l 1,113,-1
 127 244 l 2,114,115
 127 248 127 248 134 255 c 128,-1,116
 141 262 141 262 146 262 c 2,117,-1
 162 262 l 2,118,119
 171 262 171 262 183 227 c 0,120,121
 183.5 225 183.5 225 184.375 222.375 c 0,122,123
 185 220.5 185 220.5 185 220 c 2,124,-1
 185 208 l 1,125,126
 181 186 181 186 152 165 c 1,127,-1
 125 133 l 1,128,-1
 142 141 l 1,129,-1
 151 141 l 1,130,131
 179 119 179 119 179 109 c 2,132,-1
 179 92 l 1,133,-1
 162 66 l 1,134,-1
 155 66 l 2,4,5
184 703 m 0,135,136
 194 703 194 703 205.5 695.5 c 128,-1,137
 217 688 217 688 222 680 c 1,138,-1
 227 680 l 1,139,-1
 255 619 l 1,140,-1
 261 589 l 1,141,-1
 261 120 l 1,142,-1
 254 98 l 1,143,144
 254 74 254 74 230.5 45.5 c 128,-1,145
 207 17 207 17 187 11 c 1,146,-1
 171 8 l 1,147,-1
 167 8 l 2,148,149
 148 8 148 8 129 28 c 128,-1,150
 110 48 110 48 103 69 c 0,151,152
 101 73 101 73 101 73 c 1,153,-1
 101 16 l 1,154,-1
 115 16 l 1,155,-1
 115 0 l 1,156,-1
 34 0 l 1,157,-1
 34 16 l 1,158,-1
 53 16 l 1,159,-1
 52 136 l 1,160,-1
 53 211 l 1,161,-1
 53 228 l 1,162,163
 57 334 57 334 57 349 c 2,164,-1
 55 463 l 1,165,166
 51 520 51 520 51 697 c 1,167,-1
 37 697 l 1,168,-1
 33 715 l 1,169,-1
 112 715 l 1,170,-1
 112 696 l 1,171,-1
 101 696 l 1,172,-1
 101 639 l 1,173,174
 122 676 122 676 142 687 c 0,175,176
 173 703 173 703 184 703 c 0,135,136
EndSplineSet
EndChar

StartChar: uni0045
Encoding: 58 69 14
Width: 287
VWidth: 842
GlyphClass: 2
Flags: W
HStem: 5 14<117.218 144> 708 11<158.925 172>
VStem: 51 53<380 600.481> 84 20<54 64> 100 27<101.058 170.368> 169 17<47 126.726> 170 39<504 592.023> 174 76<472.128 529.484> 195 37<581.369 694.429> 203 34<236.193 320.463> 236 35<93.6256 202.885>
AnchorPoint: "Diacritic" 179.944 798.096 basechar 0
AnchorPoint: "Yerok" 229.944 772.096 basechar 0
LayerCount: 3
Fore
SplineSet
104 380 m 1xe1
 121 399 137 429 173 429 c 1
 182 421 195 412 212 402 c 1
 239 416 l 1
 239 408 l 1
 232 398 226 389 220 381 c 0
 214 373 205 369 192 369 c 1
 142 400 l 1
 125 391 119 372 111 355 c 1
 122 328 136 285 152 227 c 0
 168 169 178 134 181 123 c 0
 184 112 186 102 186 95 c 0
 186 84 180 47 180 34 c 2
 180 29 l 1
 217 53 236 79 236 128 c 0xe420
 236 160 229 181 220 200 c 0
 209 227 203 245 203 255 c 0
 203 301 224 343 259 351 c 1
 258 349 253 341 244 328 c 0
 239 321 237 312 237 302 c 0xc040
 237 289 253 239 254 236 c 0
 265 207 271 183 271 166 c 0
 271 95 213 5 156 5 c 0
 104 5 95 10 87 43 c 0
 85 52 84 62 84 72 c 0xd020
 84 92 87 99 94 115 c 0
 100 129 102 138 101 143 c 0
 100 146 100 148 100 149 c 2
 81 207 l 1
 83 214 l 1
 94 199 127 160 127 145 c 0
 127 142 126 137 124 130 c 2
 124 130 124 130 119 115 c 0
 115 103 111 95 108 90 c 1
 116 95 124 98 131 98 c 0
 134 98 136 97 138 97 c 1
 157 82 l 1
 157 72 l 1
 133 47 l 1
 125 55 l 1
 132 66 l 1
 127 82 l 1xc8
 104 64 l 1
 104 54 l 1xd0
 100 49 l 1xc8
 104 29 123 19 144 19 c 1
 169 47 l 1
 169 52 l 2
 169 95 164 125 154 142 c 1
 138 182 109 240 84 281 c 0xd4
 73 300 67 318 67 336 c 1
 59 352 51 408 51 450 c 0
 51 478 54 511 61 548 c 1
 61 562 64 578 71 596 c 0
 76 609 86 628 101 653 c 0
 112 670 125 686 140 700 c 0
 154 713 167 719 178 719 c 0
 180 719 180 719 181 719 c 0
 198 708 208 700 212 696 c 0
 230 679 232 670 232 633 c 0xe080
 232 602 230 593 220 571 c 0
 213 554 209 541 209 533 c 2xc2
 212 504 l 1
 226 495 l 1
 246 530 l 1
 246 519 247 507 250 495 c 1
 239 469 230 454 221 451 c 1
 225 447 l 1
 206 455 189 476 174 510 c 0xc1
 171 516 170 525 170 538 c 0xc2
 170 562 183 608 189 626 c 0
 193 636 195 646 195 655 c 1xc080
 191 662 191 672 188 682 c 0
 183 695 179 702 174 704 c 1
 172 708 l 1
 149 708 132 688 121 648 c 0
 110 608 104 551 104 477 c 2
 104 380 l 1xe1
EndSplineSet
Validated: 1
Layer: 2
SplineSet
104 380 m 1,0,1
 106 382 106 382 116.5 395 c 128,-1,2
 127 408 127 408 132 412.5 c 128,-1,3
 137 417 137 417 148.5 423 c 128,-1,4
 160 429 160 429 173 429 c 1,5,6
 186.5 417 186.5 417 212 402 c 1,7,-1
 239 416 l 1,8,-1
 239 408 l 1,9,10
 222 383 222 383 220 381 c 0,11,12
 211 369 211 369 192 369 c 1,13,-1
 142 400 l 1,14,15
 137 397 137 397 133 393.5 c 128,-1,16
 129 390 129 390 125.5 384.5 c 128,-1,17
 122 379 122 379 120.5 376 c 128,-1,18
 119 373 119 373 115.5 365 c 128,-1,19
 112 357 112 357 111 355 c 1,20,21
 129 312 129 312 152 227 c 0,22,23
 159 202 159 202 165.5 178 c 128,-1,24
 172 154 172 154 176 140.5 c 128,-1,25
 180 127 180 127 181 123 c 0,26,27
 186 105 186 105 186 95 c 0,28,29
 186 90 186 90 183 65.5 c 128,-1,30
 180 41 180 41 180 34 c 2,31,-1
 180 29 l 1,32,33
 236 65 236 65 236 128 c 0,34,35
 236 166 236 166 220 200 c 1,36,37
 203 242 203 242 203 255 c 0,38,39
 203 291 203 291 218 318 c 128,-1,40
 233 345 233 345 259 351 c 1,41,42
 257 346 257 346 244 328 c 0,43,44
 237 318 237 318 237 302 c 0,45,46
 237 287 237 287 254 236 c 1,47,48
 271 191 271 191 271 166 c 0,49,50
 271 111 271 111 234.5 58 c 128,-1,51
 198 5 198 5 156 5 c 0,52,53
 117 5 117 5 105 11.5 c 128,-1,54
 93 18 93 18 87 43 c 0,55,56
 84 57 84 57 84 72 c 0,57,58
 84 92 84 92 94 115 c 0,59,60
 103 135 103 135 101 143 c 0,61,62
 100 146 100 146 100 149 c 2,63,-1
 81 207 l 1,64,-1
 83 214 l 1,65,66
 85 212 85 212 94.5 199.5 c 128,-1,67
 104 187 104 187 109.5 179 c 128,-1,68
 115 171 115 171 121 160.5 c 128,-1,69
 127 150 127 150 127 145 c 0,70,71
 127 140.5 127 140.5 124 130 c 2,72,-1
 119 115 l 2,73,74
 114 100 114 100 108 90 c 1,75,76
 121 98 121 98 131 98 c 0,77,78
 133 98 133 98 135 97.5 c 128,-1,79
 137 97 137 97 138 97 c 2,80,-1
 157 82 l 1,81,-1
 157 72 l 1,82,-1
 133 47 l 1,83,-1
 125 55 l 1,84,-1
 132 66 l 1,85,-1
 127 82 l 1,86,-1
 104 64 l 1,87,-1
 104 54 l 1,88,-1
 100 49 l 1,89,90
 106 19 106 19 144 19 c 1,91,-1
 169 47 l 1,92,-1
 169 52 l 2,93,94
 169 116.5 169 116.5 154 142 c 1,95,96
 126 212 126 212 84 281 c 0,97,98
 67 310 67 310 67 336 c 1,99,100
 51 368 51 368 51 450 c 0,101,102
 51 495 51 495 61 548 c 1,103,104
 61 570 61 570 71 596 c 0,105,106
 78.5 615.5 78.5 615.5 101 653 c 0,107,108
 118 680 118 680 140 700 c 0,109,110
 160 719 160 719 178 719 c 2,111,-1
 181 719 l 1,112,113
 204 704 204 704 212 696 c 0,114,115
 225 683 225 683 228.5 672 c 128,-1,116
 232 661 232 661 232 633 c 0,117,118
 232 597 232 597 220 571 c 1,119,120
 209 544 209 544 209 533 c 1,121,-1
 212 504 l 1,122,-1
 226 495 l 1,123,-1
 246 530 l 1,124,125
 246 511 246 511 250 495 c 1,126,127
 233 455 233 455 221 451 c 1,128,-1
 225 447 l 1,129,130
 196.5 459 196.5 459 174 510 c 0,131,132
 170 518 170 518 170 538 c 0,133,134
 170 569 170 569 189 626 c 0,135,136
 195 641 195 641 195 655 c 1,137,138
 193 659 193 659 191 669 c 128,-1,139
 189 679 189 679 188 682 c 0,140,141
 181 701 181 701 174 704 c 1,142,-1
 172 708 l 1,143,144
 137.5 708 137.5 708 121 648 c 0,145,146
 104 586 104 586 104 477 c 2,147,-1
 104 380 l 1,0,1
EndSplineSet
AlternateSubs2: "'ss02' Cyrillic Equivalent Forms-1" uni0415
EndChar

StartChar: uni0046
Encoding: 59 70 15
Width: 312
VWidth: 841
GlyphClass: 2
Flags: W
HStem: 3 15<46 74 125 152> 702 17<46 66.4317 128 209.766 271.371 300>
VStem: 73 49<22 693> 174 21<368 393.875> 195 21<564 627.561> 230 28<584 605.743> 230 12<282.69 322.689>
AnchorPoint: "Diacritic" 165.944 796.096 basechar 0
AnchorPoint: "Yerok" 237.944 796.096 basechar 0
LayerCount: 3
Fore
SplineSet
69 13 m 1xe0
 67 13 l 1
 68 12 l 1
 69 13 l 1xe0
74 202 m 0
 74 254 73 327 73 347 c 0
 71 413 70 521 70 672 c 0
 70 687 67 697 60 702 c 1
 46 702 l 1
 46 719 l 1
 300 719 l 1
 300 702 l 1
 279 702 l 1
 237 661 216 620 216 577 c 2
 216 564 l 1
 230 548 l 1xea
 241 548 l 1
 247 560 l 1
 247 571 l 1
 230 584 l 1
 230 594 l 1
 243 617 247 619 258 639 c 1
 258 605 l 2
 258 605 258 604 258 603 c 0
 258 599 260 588 264 572 c 1
 254 549 l 1
 234 537 l 1
 204 544 195 563 195 599 c 0xec
 195 642 200 675 210 696 c 1
 205 699 201 700 198 700 c 2
 128 700 l 1
 122 693 l 1
 122 400 l 1
 163 429 l 1
 168 428 l 1
 183 428 184 436 199 436 c 0
 216 436 229 433 238 427 c 1
 224 411 195 394 195 368 c 1
 210 347 l 1
 220 362 l 1
 220 368 l 2
 220 370 211 383 210 384 c 1
 214 390 l 1
 218 389 222 389 225 389 c 0
 236 389 244 391 248 395 c 1
 253 391 l 1
 246 381 239 360 234 344 c 1
 223 339 l 1
 233 333 242 314 242 300 c 0
 242 295 233 274 215 237 c 1
 216 226 222 219 232 218 c 1
 218 218 l 2
 211 218 204 219 198 220 c 1
 194 227 192 234 192 239 c 0
 192 244 194 250 198 257 c 1
 188 257 l 1
 168 282 l 1
 168 295 l 2
 168 307 174 312 174 321 c 0
 174 323 173 325 173 327 c 1
 201 303 l 1
 198 298 l 1
 189 298 l 1
 182 289 l 1
 205 269 l 1
 222 269 230 282 230 309 c 0
 230 319 224 326 211 331 c 0
 181 343 174 348 174 385 c 0xf2
 174 394 175 404 178 417 c 1
 148 414 134 397 119 377 c 1
 120 376 121 317 121 198 c 0
 121 138 122 78 125 18 c 1
 152 18 l 1
 152 3 l 1
 46 3 l 1
 46 18 l 1
 74 18 l 1
 71 22 l 1
 73 104 74 164 74 202 c 0
EndSplineSet
Validated: 1
Layer: 2
SplineSet
69 13 m 1,0,-1
 67 13 l 1,1,-1
 68 12 l 1,2,-1
 69 13 l 1,0,-1
74 202 m 0,3,4
 74 232 74 232 73.5 286.5 c 128,-1,5
 73 341 73 341 73 347 c 0,6,7
 70 446 70 446 70 672 c 0,8,9
 70 695 70 695 60 702 c 1,10,-1
 46 702 l 1,11,-1
 46 719 l 1,12,-1
 300 719 l 1,13,-1
 300 702 l 1,14,-1
 279 702 l 1,15,16
 216 640 216 640 216 577 c 2,17,-1
 216 564 l 1,18,-1
 230 548 l 1,19,-1
 241 548 l 1,20,-1
 247 560 l 1,21,-1
 247 571 l 1,22,-1
 230 584 l 1,23,-1
 230 594 l 1,24,25
 237 606 237 606 245 617.5 c 128,-1,26
 253 629 253 629 258 639 c 1,27,-1
 258 605 l 1,28,-1
 258 603 l 2,29,30
 258 596 258 596 264 572 c 1,31,-1
 254 549 l 1,32,-1
 234 537 l 1,33,34
 212 542 212 542 203.5 556.5 c 128,-1,35
 195 571 195 571 195 599 c 0,36,37
 195 664 195 664 210 696 c 1,38,39
 203 700 203 700 198 700 c 2,40,-1
 128 700 l 1,41,-1
 122 693 l 1,42,-1
 122 400 l 1,43,-1
 163 429 l 1,44,-1
 168 428 l 1,45,46
 176 428 176 428 184 432 c 128,-1,47
 192 436 192 436 199 436 c 0,48,49
 224.5 436 224.5 436 238 427 c 1,50,51
 235 424 235 424 222 412 c 128,-1,52
 209 400 209 400 202 390 c 128,-1,53
 195 380 195 380 195 368 c 1,54,-1
 210 347 l 1,55,-1
 220 362 l 1,56,-1
 220 368 l 2,57,58
 220 374 220 374 210 384 c 1,59,-1
 214 390 l 1,60,61
 218 389 218 389 225 389 c 0,62,63
 242 389 242 389 248 395 c 1,64,-1
 253 391 l 1,65,66
 245 380 245 380 234 344 c 1,67,-1
 223 339 l 1,68,69
 230 335 230 335 236 323 c 128,-1,70
 242 311 242 311 242 300 c 0,71,72
 242 292.5 242 292.5 215 237 c 1,73,74
 217 220 217 220 232 218 c 1,75,-1
 218 218 l 2,76,77
 210 218 210 218 198 220 c 1,78,79
 192 230 192 230 192 239 c 0,80,81
 192 246.5 192 246.5 198 257 c 1,82,-1
 188 257 l 1,83,-1
 168 282 l 1,84,-1
 168 295 l 2,85,86
 168 301 168 301 171 309 c 128,-1,87
 174 317 174 317 174 321 c 0,88,89
 174 322 174 322 173.5 324 c 128,-1,90
 173 326 173 326 173 327 c 2,91,-1
 201 303 l 1,92,-1
 198 298 l 1,93,-1
 189 298 l 1,94,-1
 182 289 l 1,95,-1
 205 269 l 1,96,97
 230 269 230 269 230 309 c 0,98,99
 230 324 230 324 211 331 c 0,100,101
 187 340 187 340 180.5 349 c 128,-1,102
 174 358 174 358 174 385 c 0,103,104
 174 400 174 400 178 417 c 1,105,106
 147 414 147 414 119 377 c 1,107,108
 121 375 121 375 121 198 c 0,109,110
 121 98 121 98 125 18 c 1,111,-1
 152 18 l 1,112,-1
 152 3 l 1,113,-1
 46 3 l 1,114,-1
 46 18 l 1,115,-1
 74 18 l 1,116,-1
 71 22 l 1,117,118
 74 145 74 145 74 202 c 0,3,4
EndSplineSet
EndChar

StartChar: uni0047
Encoding: 60 71 16
Width: 272
VWidth: 841
GlyphClass: 2
Flags: W
HStem: -6 16<130.487 167.937> 131 22<119 125> 272 17<143 197 234 256> 355 11<152 155> 442 34<140 146> 519 13<145.472 186.217> 707 12<128.656 166.614>
VStem: 33 43<59.3852 617> 90 32<348 354> 99 12<216.203 251.352 463.731 492.22> 109 11<300.674 329.414> 114 60<590.001 614> 153 11<136.358 169.591> 197 37<32.6297 272> 204 33<548.049 675.323>
AnchorPoint: "Diacritic" 141.944 796.096 basechar 0
AnchorPoint: "Yerok" 213.944 796.096 basechar 0
LayerCount: 3
Fore
SplineSet
127 281 m 1xff48
 110 293 109 296 109 315 c 0
 109 318 109 322 109 326 c 0xff20
 109 338 103 344 92 344 c 1
 90 350 l 1
 108 361 l 1
 122 354 l 1xff80
 123 348 l 1
 152 366 l 1
 166 366 l 1
 184 353 198 346 207 346 c 0
 209 346 209 346 210 346 c 2
 212 339 l 1
 165 314 l 1
 154 334 l 1
 160 345 l 1
 155 355 l 1
 147 355 l 2
 134 355 120 319 120 315 c 0
 120 301 135 290 143 285 c 1
 150 286 l 1
 150 289 l 1
 256 289 l 1
 256 274 l 1
 234 274 l 1
 234 57 l 2xff24
 234 48 221 34 195 17 c 0
 172 2 153 -6 139 -6 c 0
 104 -6 79 22 64 44 c 0
 43 74 33 103 33 132 c 2
 33 561 l 2
 33 594 44 627 65 662 c 0
 88 700 115 719 145 719 c 2
 173 719 l 2
 199 719 218 699 230 660 c 0
 235 645 237 629 237 613 c 2
 237 608 l 2
 238 606 238 603 238 601 c 0
 238 584 225 552 218 544 c 0
 202 525 193 519 158 519 c 0
 133 519 111 501 111 478 c 0
 111 464 123 458 133 455 c 1
 139 456 l 1
 132 467 l 1
 140 476 l 1
 157 476 l 1
 162 467 163 460 161 453 c 1
 146 442 l 1
 123 442 l 2
 109 442 97 452 97 468 c 0
 97 490 121 516 139 523 c 1
 118 536 114 546 114 574 c 0
 114 604 140 626 165 626 c 1
 174 614 l 1xff52
 174 611 173 608 171 604 c 2
 167 590 l 2
 164 578 165 570 168 565 c 1
 150 580 l 1
 153 587 l 1
 146 590 l 1
 129 575 l 1
 127 567 l 1
 132 546 145 532 171 532 c 0
 193 532 204 559 204 613 c 0
 204 655 178 707 150 707 c 0
 116 707 87 663 87 627 c 0
 87 623 87 623 87 621 c 1
 81 617 l 1
 81 268 l 2
 81 250 76 189 76 177 c 2
 76 160 l 2
 76 157 76 154 76 150 c 0
 76 120 79 90 87 64 c 0
 95 37 117 19 153 10 c 1xff0a
 174 10 197 52 197 75 c 2
 197 272 l 1
 146 272 l 2
 131 272 111 251 111 235 c 0
 111 218 124 205 137 200 c 1
 161 219 l 1
 174 202 l 1xff54
 161 181 l 1
 163 176 164 172 164 167 c 2
 164 152 l 2
 164 119 150 116 125 106 c 1
 105 125 l 1
 105 132 l 1
 119 153 l 1
 125 153 l 1
 136 141 l 1
 129 131 l 1
 117 131 l 1
 128 122 l 1
 145 127 153 139 153 157 c 0
 153 160 153 160 153 164 c 1
 140 181 99 198 99 225 c 0
 99 257 106 267 127 281 c 1xff48
EndSplineSet
Validated: 1
Layer: 2
SplineSet
127 281 m 1,0,1
 114 290 114 290 111.5 295 c 128,-1,2
 109 300 109 300 109 315 c 2,3,-1
 109 326 l 2,4,5
 109 344 109 344 92 344 c 1,6,-1
 90 350 l 1,7,-1
 108 361 l 1,8,-1
 122 354 l 1,9,-1
 123 348 l 1,10,-1
 152 366 l 1,11,-1
 166 366 l 1,12,13
 194 346 194 346 207 346 c 2,14,15
 210 346 l 1,16,-1
 212 339 l 1,17,-1
 165 314 l 1,18,-1
 154 334 l 1,19,-1
 160 345 l 1,20,-1
 155 355 l 1,21,-1
 147 355 l 2,22,23
 139 355 139 355 129.5 338 c 128,-1,24
 120 321 120 321 120 315 c 0,25,26
 120 299 120 299 143 285 c 1,27,-1
 150 286 l 1,28,-1
 150 289 l 1,29,-1
 256 289 l 1,30,-1
 256 274 l 1,31,-1
 234 274 l 1,32,-1
 234 57 l 2,33,34
 234 42 234 42 195 17 c 0,35,36
 160 -6 160 -6 139 -6 c 0,37,38
 98 -6 98 -6 64 44 c 0,39,40
 33 88 33 88 33 132 c 2,41,-1
 33 561 l 2,42,43
 33 609 33 609 65 662 c 0,44,45
 100 719 100 719 145 719 c 2,46,-1
 173 719 l 2,47,48
 212 719 212 719 230 660 c 0,49,50
 237 639 237 639 237 613 c 2,51,-1
 237 608 l 1,52,53
 238 606 238 606 238 601 c 0,54,55
 238 589 238 589 231 570 c 128,-1,56
 224 551 224 551 218 544 c 0,57,58
 205 529 205 529 194 524 c 128,-1,59
 183 519 183 519 158 519 c 0,60,61
 139 519 139 519 125 507 c 128,-1,62
 111 495 111 495 111 478 c 0,63,64
 111 462 111 462 133 455 c 1,65,-1
 139 456 l 1,66,-1
 132 467 l 1,67,-1
 140 476 l 1,68,-1
 157 476 l 1,69,70
 164 463 164 463 161 453 c 1,71,-1
 146 442 l 1,72,-1
 123 442 l 2,73,74
 112 442 112 442 104.5 449 c 128,-1,75
 97 456 97 456 97 468 c 0,76,77
 97 484 97 484 110.5 500.5 c 128,-1,78
 124 517 124 517 139 523 c 1,79,80
 124 533 124 533 119 543 c 128,-1,81
 114 553 114 553 114 574 c 0,82,83
 114 596 114 596 129.5 611 c 128,-1,84
 145 626 145 626 165 626 c 1,85,-1
 174 614 l 1,86,87
 174 610 174 610 171 604 c 1,88,-1
 167 590 l 2,89,90
 163 574 163 574 168 565 c 1,91,-1
 150 580 l 1,92,-1
 153 587 l 1,93,-1
 146 590 l 1,94,-1
 129 575 l 1,95,-1
 127 567 l 1,96,97
 135 532 135 532 171 532 c 0,98,99
 204 532 204 532 204 613 c 0,100,101
 204 646 204 646 187 676.5 c 128,-1,102
 170 707 170 707 150 707 c 0,103,104
 125 707 125 707 106 681 c 128,-1,105
 87 655 87 655 87 627 c 2,106,-1
 87 621 l 1,107,-1
 81 617 l 1,108,-1
 81 268 l 2,109,110
 81 258 81 258 78.5 220 c 128,-1,111
 76 182 76 182 76 177 c 2,112,-1
 76 160 l 1,113,-1
 76 150 l 2,114,115
 76 100 76 100 87 64 c 0,116,117
 99 23.5 99 23.5 153 10 c 1,118,119
 168 10 168 10 182.5 33 c 128,-1,120
 197 56 197 56 197 75 c 2,121,-1
 197 272 l 1,122,-1
 146 272 l 2,123,124
 135 272 135 272 123 259.5 c 128,-1,125
 111 247 111 247 111 235 c 0,126,127
 111 210 111 210 137 200 c 1,128,-1
 161 219 l 1,129,-1
 174 202 l 1,130,-1
 161 181 l 1,131,132
 164 173 164 173 164 167 c 2,133,-1
 164 152 l 2,134,135
 164 137 164 137 159.5 128.5 c 128,-1,136
 155 120 155 120 149.5 116.5 c 128,-1,137
 144 113 144 113 130.107 108.017 c 0,138,139
 127 107 127 107 125 106 c 1,140,-1
 105 125 l 1,141,-1
 105 132 l 1,142,-1
 119 153 l 1,143,-1
 125 153 l 1,144,-1
 136 141 l 1,145,-1
 129 131 l 1,146,-1
 117 131 l 1,147,-1
 128 122 l 1,148,149
 153 129 153 129 153 157 c 2,150,-1
 153 164 l 1,151,152
 152 166 152 166 125.5 187.5 c 128,-1,153
 99 209 99 209 99 225 c 0,154,155
 99 248 99 248 105 259 c 128,-1,156
 111 270 111 270 127 281 c 1,0,1
EndSplineSet
EndChar

StartChar: uni0048
Encoding: 61 72 17
Width: 314
VWidth: 841
GlyphClass: 2
Flags: W
HStem: 0 9<51 65 122 131 212 228 278 295> 490 27<128.009 143 195.001 210.988> 702 13<48 62 124 133 216 226 277 284>
VStem: 65 57<9 393 446 700> 128 52<481.979 504.371> 161 20<377 383> 195 16<490.369 499.859> 228 50<9 421 457 703>
DStem2: 123 433 119 424 0.728628 -0.68491<3.24968 23.3015 38.253 61.9333> 175 433 168 424 0.787505 -0.616308<0.0342393 29.2404> 225 439 192 450 0.71154 -0.702646<-31.2099 -0.800482>
AnchorPoint: "Diacritic" 173.944 792.096 basechar 0
AnchorPoint: "Yerok" 245.944 792.096 basechar 0
LayerCount: 3
Fore
SplineSet
168 484 m 1xf3
 149 459 l 1
 166 438 l 1
 188 457 l 1
 168 484 l 1xf3
192 450 m 1
 175 433 l 1
 197 411 l 1
 214 429 l 1
 192 450 l 1
168 424 m 1
 152 408 l 1
 173 386 l 1
 191 406 l 1
 168 424 l 1
139 450 m 1
 123 433 l 1
 139 416 l 1
 159 431 l 1
 139 450 l 1
191 341 m 1
 186 333 190 331 182 331 c 1
 174 330 l 1
 181 319 l 1
 194 311 l 1
 181 303 l 1
 173 291 l 1
 165 303 l 1
 153 311 l 1
 165 319 l 1
 172 330 l 1
 166 329 l 1
 162 326 159 340 159 342 c 2
 166 361 l 1
 145 352 l 1
 139 352 127 361 127 367 c 1
 134 386 l 1
 157 367 l 1
 161 377 l 1
 161 383 l 1
 119 424 l 1
 119 209 120 88 120 62 c 0
 122 37 122 19 122 9 c 1
 131 9 l 1
 131 -0 l 1
 50 -0 l 1
 51 9 l 1
 65 9 l 1
 65 393 l 1
 53 408 l 1
 36 419 l 1
 52 431 l 1
 62 446 l 1
 62 702 l 1
 48 702 l 1
 48 715 l 1
 133 715 l 1
 135 700 l 1
 124 700 l 1
 124 559 l 1
 122 526 121 499 121 478 c 2
 121 446 l 1
 121 446 121 446 122 446 c 0
 123 446 136 461 161 491 c 1xf7
 159 498 l 1
 156 500 153 501 151 502 c 1
 146 494 141 490 136 490 c 0
 131 490 128 494 128 504 c 0
 128 512 133 517 142 517 c 2
 143 517 l 1
 145 518 l 1
 159 504 l 1
 151 537 l 1
 154 536 l 1
 164 536 l 1
 158 546 l 1
 146 554 l 1
 158 562 l 1
 166 575 l 1
 174 562 l 1
 187 554 l 1
 174 546 l 1
 168 536 l 1
 184 536 l 1
 175 515 l 1
 175 505 l 1
 191 516 l 1
 203 518 l 2
 208 518 211 513 211 504 c 0
 211 495 207 490 200 490 c 0
 197 490 195 491 195 492 c 0
 195 494 195 497 194 500 c 1
 190 502 188 503 187 504 c 0
 183 504 180 496 180 493 c 0xfb
 180 487 192 472 217 447 c 2
 225 439 l 2
 226 440 226 442 226 446 c 2
 226 703 l 1
 216 703 l 1
 216 715 l 1
 284 715 l 1
 284 703 l 1
 277 703 l 1
 277 457 l 1
 278 458 l 1
 290 442 l 1
 307 431 l 1
 291 419 l 1
 285 411 280 404 280 405 c 0
 280 406 279 406 278 405 c 1
 278 9 l 1
 295 9 l 1
 295 0 l 1
 212 0 l 1
 212 9 l 1
 228 9 l 1
 228 421 l 1
 220 424 l 1
 194 398 181 384 181 381 c 0xf7
 181 372 182 367 185 367 c 1
 212 385 l 1
 212 381 212 379 213 379 c 2
 215 378 l 1
 215 362 l 1
 204 355 l 1
 180 358 l 1xfb
 191 341 l 1
EndSplineSet
Validated: 1
Layer: 2
SplineSet
168 484 m 1,0,-1
 149 459 l 1,1,-1
 166 438 l 1,2,-1
 188 457 l 1,3,-1
 168 484 l 1,0,-1
192 450 m 1,4,-1
 175 433 l 1,5,-1
 197 411 l 1,6,-1
 214 429 l 1,7,-1
 192 450 l 1,4,-1
168 424 m 1,8,-1
 152 408 l 1,9,-1
 173 386 l 1,10,-1
 191 406 l 1,11,-1
 168 424 l 1,8,-1
139 450 m 1,12,-1
 123 433 l 1,13,-1
 139 416 l 1,14,-1
 159 431 l 1,15,-1
 139 450 l 1,12,-1
191 341 m 1,16,17
 189 338 189 338 188.5 335 c 128,-1,18
 188 332 188 332 187 331.5 c 128,-1,19
 186 331 186 331 182 331 c 2,20,-1
 174 330 l 1,21,-1
 181 319 l 1,22,-1
 194 311 l 1,23,-1
 181 303 l 1,24,-1
 173 291 l 1,25,-1
 165 303 l 1,26,-1
 153 311 l 1,27,-1
 165 319 l 1,28,-1
 172 330 l 1,29,-1
 166 329 l 1,30,31
 163 327 163 327 161 333 c 128,-1,32
 159 339 159 339 159 342 c 1,33,-1
 166 361 l 1,34,-1
 145 352 l 1,35,36
 140 352 140 352 133.5 357.5 c 128,-1,37
 127 363 127 363 127 367 c 1,38,-1
 134 386 l 1,39,-1
 157 367 l 1,40,-1
 161 377 l 1,41,-1
 161 383 l 1,42,-1
 119 424 l 1,43,44
 119 329 119 329 119.5 245.5 c 128,-1,45
 120 162 120 162 120 115 c 128,-1,46
 120 68 120 68 120 62 c 0,47,48
 122 37 122 37 122 9 c 1,49,-1
 131 9 l 1,50,-1
 131 -0 l 1,51,-1
 50 -0 l 1,52,-1
 51 9 l 1,53,-1
 65 9 l 1,54,-1
 65 393 l 1,55,-1
 53 408 l 1,56,-1
 36 419 l 1,57,-1
 52 431 l 1,58,-1
 62 446 l 1,59,-1
 62 702 l 1,60,-1
 48 702 l 1,61,-1
 48 715 l 1,62,-1
 133 715 l 1,63,-1
 135 700 l 1,64,-1
 124 700 l 1,65,-1
 124 559 l 1,66,67
 121 509.5 121 509.5 121 478 c 2,68,-1
 121 446 l 1,69,-1
 122 446 l 2,70,71
 123.5 446 123.5 446 161 491 c 1,72,-1
 159 498 l 1,73,-1
 151 502 l 1,74,75
 143.5 490 143.5 490 136 490 c 0,76,77
 128 490 128 490 128 504 c 0,78,79
 128 517 128 517 142 517 c 2,80,-1
 143 517 l 1,81,-1
 145 518 l 1,82,-1
 159 504 l 1,83,-1
 151 537 l 1,84,-1
 154 536 l 1,85,-1
 164 536 l 1,86,-1
 158 546 l 1,87,-1
 146 554 l 1,88,-1
 158 562 l 1,89,-1
 166 575 l 1,90,-1
 174 562 l 1,91,-1
 187 554 l 1,92,-1
 174 546 l 1,93,-1
 168 536 l 1,94,-1
 184 536 l 1,95,-1
 175 515 l 1,96,-1
 175 505 l 1,97,-1
 191 516 l 1,98,-1
 203 518 l 1,99,100
 211 518 211 518 211 504 c 128,-1,101
 211 490 211 490 200 490 c 0,102,103
 195 490 195 490 195 492 c 0,104,105
 195 497 195 497 194 500 c 1,106,107
 188 503 188 503 187 504 c 1,108,109
 180 504 180 504 180 493 c 0,110,111
 180 484 180 484 217 447 c 2,112,-1
 225 439 l 1,113,114
 226 440 226 440 226 446 c 2,115,-1
 226 703 l 1,116,-1
 216 703 l 1,117,-1
 216 715 l 1,118,-1
 284 715 l 1,119,-1
 284 703 l 1,120,-1
 277 703 l 1,121,-1
 277 457 l 1,122,-1
 278 458 l 1,123,-1
 290 442 l 1,124,-1
 307 431 l 1,125,-1
 291 419 l 2,126,127
 289.719 417.29 289.719 417.29 287.329 414.077 c 2,128,-1
 280 405 l 1,129,130
 280 407 280 407 278 405 c 1,131,-1
 278 9 l 1,132,-1
 295 9 l 1,133,-1
 295 0 l 1,134,-1
 212 0 l 1,135,-1
 212 9 l 1,136,-1
 228 9 l 1,137,-1
 228 421 l 1,138,-1
 220 424 l 1,139,140
 181 385 181 385 181 381 c 0,141,142
 181 367 181 367 185 367 c 1,143,-1
 212 385 l 1,144,145
 212 379 212 379 213 379 c 2,146,-1
 215 378 l 1,147,-1
 215 362 l 1,148,-1
 204 355 l 1,149,-1
 180 358 l 1,150,-1
 191 341 l 1,16,17
EndSplineSet
EndChar

StartChar: uni0049
Encoding: 62 73 18
Width: 134
VWidth: 841
GlyphClass: 2
Flags: W
HStem: -0 15<11 34 90 117> 707 15<3 31 88 109>
VStem: 35 53<15 404.673 405.327 405.626 406.327 707>
AnchorPoint: "Diacritic" 63.944 790.096 basechar 0
AnchorPoint: "Yerok" 65.944 792.096 basechar 0
LayerCount: 3
Fore
SplineSet
89 387 m 1
 90 262 90 138 90 15 c 1
 117 15 l 1
 117 -0 l 1
 11 -0 l 1
 11 15 l 1
 34 15 l 1
 35 72 l 1
 35 389 l 1
 25 393 20 398 20 405 c 0
 20 412 25 417 35 422 c 1
 32 575 31 670 31 707 c 1
 3 707 l 1
 3 722 l 1
 109 722 l 1
 109 707 l 1
 88 707 l 1
 88 613 88 518 88 424 c 1
 102 419 110 413 110 406 c 0
 110 398 103 392 89 387 c 1
EndSplineSet
Validated: 1
Layer: 2
SplineSet
89 387 m 1,0,1
 90 262 90 262 90 15 c 1,2,-1
 117 15 l 1,3,-1
 117 -0 l 1,4,-1
 11 -0 l 1,5,-1
 11 15 l 1,6,-1
 34 15 l 1,7,-1
 35 72 l 1,8,-1
 35 389 l 1,9,10
 20 395 20 395 20 405 c 0,11,12
 20 414 20 414 35 422 c 1,13,14
 31 626 31 626 31 707 c 1,15,-1
 3 707 l 1,16,-1
 3 722 l 1,17,-1
 109 722 l 1,18,-1
 109 707 l 1,19,-1
 88 707 l 1,20,21
 88 424 l 1,22,23
 110 416 110 416 110 406 c 0,24,25
 110 394 110 394 89 387 c 1,0,1
EndSplineSet
AlternateSubs2: "'ss02' Cyrillic Equivalent Forms-1" uni0406
EndChar

StartChar: uni004A
Encoding: 63 74 19
Width: 303
VWidth: 840
GlyphClass: 2
Flags: W
HStem: -5 14<101.136 157.954> 499 17<91.3465 117.802> 692 23<117.5 200 252 284>
VStem: 40 29<76 138> 47 22<53.1798 76 107 154.488> 78 16<243 255.964> 121 18<519.672 555.443> 200 54<50.7137 692>
AnchorPoint: "Diacritic" 215.944 794.096 basechar 0
AnchorPoint: "Yerok" 213.944 796.096 basechar 0
LayerCount: 3
Fore
SplineSet
102 516 m 0xf7
 108 516 121 523 121 528 c 0
 121 539 101 581 100 583 c 0
 91 602 65 659 60 671 c 0
 47 698 41 713 41 716 c 1
 94 715 l 1
 251 715 l 1
 251 713 l 1
 287 713 l 1
 284 698 l 1
 252 698 l 1
 253 653 254 584 254 490 c 2
 254 167 l 1
 253 137 252 111 252 90 c 1
 240 49 208 15 160 0 c 1
 137 -5 l 1
 121 -5 l 2
 89 -5 47 43 47 62 c 1xef
 43 76 l 1
 40 95 l 1
 40 107 l 1xf7
 47 138 l 1xef
 65 195 138 185 148 253 c 1
 145 260 130 267 121 267 c 0
 112 267 94 260 94 250 c 2
 94 243 l 1
 96 239 l 1
 104 239 l 2
 111 239 119 250 126 252 c 1
 122 239 l 1
 123 236 123 233 123 231 c 0
 124 222 118 216 103 213 c 1
 86 216 78 223 78 235 c 0
 78 249 96 274 108 275 c 0
 114 276 118 277 120 278 c 1
 118 283 l 1
 119 288 122 293 125 300 c 2
 136 317 l 1
 145 322 159 340 170 340 c 1
 160 314 l 1
 144 297 l 1
 160 270 l 1
 160 239 l 2
 160 230 149 215 127 193 c 1
 120 188 106 183 102 176 c 1
 107 177 l 2
 111 177 123 166 127 163 c 0
 140 155 152 134 156 114 c 1
 156 96 l 1
 152 94 150 90 150 83 c 1
 144 77 141 74 140 74 c 2
 135 75 l 1
 130 54 l 1
 130 49 133 47 134 44 c 1
 107 60 l 1
 107 79 l 1
 123 122 l 1
 123 126 120 132 115 141 c 0
 105 157 97 165 92 165 c 0
 85 165 78 156 71 139 c 0
 70 136 69 133 69 131 c 2
 69 88 l 2
 69 87 72 80 77 65 c 1
 82 40 93 12 113 12 c 1
 125 9 l 1
 136 9 l 2
 167 9 202 54 202 72 c 0
 201 123 200 177 200 232 c 2
 200 692 l 1
 127 692 l 1
 108 690 l 1
 119 663 122 659 130 628 c 2
 139 597 l 1
 139 532 l 1
 133 515 112 499 90 499 c 1
 85 500 l 2
 81 500 76 496 71 488 c 1
 79 472 l 1
 71 472 l 1
 57 493 l 1
 57 500 63 506 74 511 c 1
 64 525 l 1
 49 537 l 1
 49 542 52 549 59 558 c 0
 65 567 68 571 68 572 c 2
 68 585 l 1
 77 585 l 1
 92 555 l 2
 93 551 91 548 86 546 c 1
 78 549 l 1
 75 548 78 545 85 539 c 1
 87 535 l 1
 87 530 95 516 102 516 c 0xf7
EndSplineSet
Validated: 1
Layer: 2
SplineSet
102 516 m 128,-1,1
 107 516 107 516 114 520 c 128,-1,2
 121 524 121 524 121 528 c 0,3,4
 121 541 121 541 100 583 c 0,5,6
 72 641 72 641 60 671 c 1,7,8
 41 710 41 710 41 716 c 1,9,-1
 94 715 l 1,10,-1
 251 715 l 1,11,-1
 251 713 l 1,12,-1
 287 713 l 1,13,-1
 284 698 l 1,14,-1
 252 698 l 1,15,16
 254 608 254 608 254 490 c 2,17,-1
 254 167 l 1,18,19
 252 107 252 107 252 90 c 1,20,21
 232 23 232 23 160 0 c 1,22,-1
 137 -5 l 1,23,-1
 121 -5 l 2,24,25
 99 -5 99 -5 73 20.5 c 128,-1,26
 47 46 47 46 47 62 c 1,27,-1
 43 76 l 1,28,-1
 40 95 l 1,29,-1
 40 107 l 1,30,-1
 47 138 l 1,31,32
 53 157 53 157 69 170.5 c 128,-1,33
 85 184 85 184 100.5 191.5 c 128,-1,34
 116 199 116 199 130.5 214.5 c 128,-1,35
 145 230 145 230 148 253 c 1,36,37
 146 258 146 258 137 262.5 c 128,-1,38
 128 267 128 267 121 267 c 0,39,40
 113 267 113 267 103.5 262 c 128,-1,41
 94 257 94 257 94 250 c 2,42,-1
 94 243 l 1,43,-1
 96 239 l 1,44,-1
 104 239 l 2,45,46
 108 239 108 239 115.5 245 c 128,-1,47
 123 251 123 251 126 252 c 1,48,-1
 122 239 l 1,49,50
 123 236 123 236 123 231 c 0,51,52
 124 224 124 224 119 219.5 c 128,-1,53
 114 215 114 215 103 213 c 1,54,55
 78 217 78 217 78 235 c 0,56,57
 78 246 78 246 88.5 260 c 128,-1,58
 99 274 99 274 108 275 c 0,59,60
 117 276.5 117 276.5 120 278 c 1,61,-1
 118 283 l 2,62,63
 118 284 118 284 125 300 c 1,64,-1
 136 317 l 1,65,66
 138 318 138 318 151 329 c 128,-1,67
 164 340 164 340 170 340 c 1,68,-1
 160 314 l 1,69,-1
 144 297 l 1,70,-1
 160 270 l 1,71,-1
 160 239 l 2,72,73
 160 226 160 226 127 193 c 0,74,75
 125 191 125 191 119 188 c 128,-1,76
 113 185 113 185 108.5 182 c 128,-1,77
 104 179 104 179 102 176 c 1,78,-1
 107 177 l 2,79,80
 108 177 108 177 127 163 c 1,81,82
 149 150 149 150 156 114 c 1,83,-1
 156 96 l 1,84,85
 150 93 150 93 150 83 c 1,86,87
 141 74 141 74 140 74 c 2,88,-1
 135 75 l 1,89,-1
 130 54 l 2,90,91
 130 51 130 51 132.434 46.9471 c 0,92,93
 134 45 134 45 134 44 c 2,94,-1
 107 60 l 1,95,-1
 107 79 l 1,96,-1
 123 122 l 1,97,98
 123 127 123 127 115 141 c 0,99,100
 100 165 100 165 92 165 c 0,101,102
 82 165 82 165 71 139 c 0,103,104
 69 133 69 133 69 131 c 2,105,-1
 69 88 l 1,106,-1
 69.5 87 l 2,107,108
 70 86 70 86 70.5 84 c 128,-1,109
 71 82 71 82 72 79.5 c 128,-1,110
 73 77 73 77 74.5 73 c 128,-1,111
 76 69 76 69 77 65 c 0,112,113
 88 12 88 12 113 12 c 1,114,-1
 125 9 l 1,115,-1
 136 9 l 2,116,117
 157 9 157 9 179.5 33 c 128,-1,118
 202 57 202 57 202 72 c 0,119,120
 200 174 200 174 200 232 c 2,121,-1
 200 692 l 1,122,-1
 127 692 l 1,123,-1
 108 690 l 1,124,125
 124 650 124 650 130 628 c 2,126,-1
 139 597 l 1,127,-1
 139 532 l 1,128,129
 134 519 134 519 120 509 c 128,-1,130
 106 499 106 499 90 499 c 1,131,-1
 85 500 l 1,132,133
 78 500 78 500 71 488 c 1,134,-1
 79 472 l 1,135,-1
 71 472 l 1,136,-1
 57 493 l 1,137,138
 57 503 57 503 74 511 c 1,139,-1
 64 525 l 1,140,-1
 49 537 l 1,141,142
 49 545 49 545 59 558 c 1,143,-1
 68 572 l 1,144,-1
 68 585 l 1,145,-1
 77 585 l 1,146,-1
 92 555 l 1,147,148
 93.5 549 93.5 549 86 546 c 1,149,-1
 78 549 l 1,150,151
 74.64 547.88 74.64 547.88 85 539 c 1,152,-1
 87 535 l 1,153,154
 87 531 87 531 92 523.5 c 128,-1,0
 97 516 97 516 102 516 c 128,-1,1
EndSplineSet
AlternateSubs2: "'ss02' Cyrillic Equivalent Forms-1" uni0408
EndChar

StartChar: uni004B
Encoding: 64 75 20
Width: 261
VWidth: 840
GlyphClass: 2
Flags: W
HStem: -0 15<39 54 99 121 173 189 237 253> 240 14<229 234.878> 250 14<167.514 194.356> 317 12<144.016 183> 357 11<136 177.879> 423 15<175.162 182> 699 15<31 47 101 113 171 187 235 253>
VStem: 47 56<157 233 288 699> 51 52<15 233 288 387> 147 16<384 411.365> 182 8<445 457.823> 187 50<15 214.572 564 699> 207 4<395 400> 235 15<254.172 267>
AnchorPoint: "Yerok" 213.944 796.096 basechar 0
AnchorPoint: "Diacritic" 141.944 796.096 basechar 0
LayerCount: 3
Fore
SplineSet
178 264 m 0xbf6c
 191 264 201 273 201 288 c 0
 201 296 198 303 191 309 c 0
 185 314 181 317 180 317 c 2
 168 317 l 1
 144 311 l 1
 133 304 122 291 113 272 c 0
 108 262 113 266 108 249 c 1
 151 227 186 216 212 216 c 2
 220 216 l 1
 231 217 237 217 237 216 c 2
 237 15 l 1
 255 15 l 1
 253 3 l 1
 173 3 l 1
 173 15 l 1
 189 15 l 1
 188 118 l 1
 185 160 l 1
 185 206 l 1
 179 211 169 214 155 217 c 0
 139 220 122 226 104 233 c 1
 101 144 99 71 99 15 c 1
 121 15 l 1
 121 -0 l 1
 39 -0 l 1
 39 15 l 1
 54 15 l 1
 51 157 l 1xbed0
 47 466 l 1
 47 544 47 621 47 699 c 1
 31 699 l 1
 31 714 l 1
 113 714 l 1
 113 699 l 1
 101 699 l 1
 104 682 106 664 106 645 c 0
 106 615 105 587 105 546 c 0
 105 510 104 487 103 478 c 1
 118 503 146 526 189 547 c 1
 188 551 184 553 186 558 c 1
 187 568 l 1
 187 699 l 1xbf50
 171 699 l 1
 171 714 l 1
 253 714 l 1
 253 699 l 1
 235 699 l 1xbe44
 236 692 237 681 237 666 c 2
 237 564 l 1
 226 554 l 1
 213 553 199 546 183 533 c 0
 166 520 154 512 148 509 c 1
 122 485 114 463 106 433 c 1
 106 417 l 2
 106 406 114 392 131 375 c 0
 136 370 140 368 145 368 c 2
 158 368 l 2
 177 368 190 379 198 401 c 1
 198 413 l 2
 198 418 192 423 187 423 c 0xbe50
 182 423 163 406 163 400 c 2
 163 390 l 2
 163 387 164 384 166 380 c 1
 161 380 147 387 147 391 c 2
 147 414 l 2
 147 421 157 428 176 436 c 0
 179 437 181 438 182 438 c 2
 182 466 l 1xbe60
 184 477 201 496 215 496 c 0
 225 496 237 494 237 481 c 1xbe50
 222 464 l 1
 216 467 l 1
 217 468 217 470 217 473 c 0
 217 484 203 473 198 465 c 0
 193 457 190 450 190 445 c 1
 208 419 l 1
 207 413 l 1
 211 395 l 1
 207 400 l 1
 203 379 184 357 160 357 c 1
 136 361 l 2
 127 362 116 371 103 387 c 1
 103 354 103 321 103 288 c 1
 108 315 129 329 166 329 c 1
 183 327 l 1
 197 324 206 311 210 288 c 1
 214 274 l 1
 221 260 l 1
 229 254 l 1
 234 254 236 258 235 267 c 1
 222 279 l 1
 226 291 l 1
 226 323 l 2
 226 326 228 327 232 327 c 1
 250 279 l 1
 250 255 l 2
 250 251 234 240 231 240 c 0xdf6c
 218 242 209 251 204 266 c 1
 194 255 186 250 179 250 c 2
 171 250 l 1
 163 251 152 262 152 270 c 2
 152 280 l 2
 152 283 165 299 178 299 c 0
 179 299 180 299 181 299 c 0
 185 298 187 297 188 294 c 1
 167 273 l 1
 168 267 172 264 178 264 c 0xbf6c
EndSplineSet
Validated: 1
Layer: 2
SplineSet
178 264 m 0,0,1
 201 264 201 264 201 288 c 0,2,3
 201 300 201 300 191 309 c 0,4,5
 181 317 181 317 180 317 c 2,6,-1
 168 317 l 1,7,-1
 144 311 l 1,8,9
 126 300 126 300 113 272 c 0,10,11
 110 267 110 267 110 262.5 c 128,-1,12
 110 258 110 258 108 249 c 1,13,14
 172 216 172 216 212 216 c 2,15,-1
 220 216 l 1,16,17
 237 218 237 218 237 216 c 2,18,-1
 237 15 l 1,19,-1
 255 15 l 1,20,-1
 253 3 l 1,21,-1
 173 3 l 1,22,-1
 173 15 l 1,23,-1
 189 15 l 1,24,-1
 188 118 l 1,25,-1
 185 160 l 1,26,-1
 185 206 l 1,27,28
 178 212 178 212 155 217 c 0,29,30
 136 221 136 221 104 233 c 1,31,32
 99 85 99 85 99 15 c 1,33,-1
 121 15 l 1,34,-1
 121 -0 l 1,35,-1
 39 -0 l 1,36,-1
 39 15 l 1,37,-1
 54 15 l 1,38,-1
 51 157 l 1,39,-1
 47 466 l 1,40,-1
 47 699 l 1,41,-1
 31 699 l 1,42,-1
 31 714 l 1,43,-1
 113 714 l 1,44,-1
 113 699 l 1,45,-1
 101 699 l 1,46,47
 106 671 106 671 106 645 c 0,48,49
 106 631 106 631 105.5 599.5 c 128,-1,50
 105 568 105 568 105 546 c 0,51,52
 105 496 105 496 103 478 c 1,53,54
 126 516 126 516 189 547 c 0,55,56
 189 548 189 548 187.231 550.684 c 0,57,58
 185 555 185 555 186 558 c 2,59,-1
 187 568 l 1,60,-1
 187 699 l 1,61,-1
 171 699 l 1,62,-1
 171 714 l 1,63,-1
 253 714 l 1,64,-1
 253 699 l 1,65,-1
 235 699 l 1,66,67
 237 685 237 685 237 666 c 2,68,-1
 237 564 l 1,69,-1
 226 554 l 1,70,71
 207 553 207 553 183 533 c 1,72,73
 158 514 158 514 148 509 c 1,74,75
 119 482 119 482 106 433 c 1,76,-1
 106 417 l 2,77,78
 106 400 106 400 131 375 c 0,79,80
 138 368 138 368 145 368 c 2,81,-1
 158 368 l 2,82,83
 186 368 186 368 198 401 c 1,84,-1
 198 413 l 2,85,86
 198 417 198 417 194.5 420 c 128,-1,87
 191 423 191 423 187 423 c 128,-1,88
 183 423 183 423 173 413.5 c 128,-1,89
 163 404 163 404 163 400 c 2,90,-1
 163 390 l 2,91,92
 163 386 163 386 166 380 c 1,93,94
 162 380 162 380 154.5 384 c 128,-1,95
 147 388 147 388 147 391 c 2,96,-1
 147 414 l 2,97,98
 147 424 147 424 176 436 c 0,99,100
 177 436 177 436 179 437.09 c 128,-1,101
 181 438 181 438 182 438 c 1,102,-1
 182 466 l 1,103,104
 184 475 184 475 194.5 485.5 c 128,-1,105
 205 496 205 496 215 496 c 0,106,107
 237 496 237 496 237 481 c 1,108,-1
 222 464 l 1,109,-1
 216 467 l 1,110,111
 217 468 217 468 217 473 c 0,112,113
 217 484.59 217 484.59 203.398 471.483 c 0,114,115
 200.014 468.223 200.014 468.223 198 465 c 0,116,117
 190 452 190 452 190 445 c 1,118,-1
 208 419 l 1,119,-1
 207 413 l 1,120,-1
 211 395 l 1,121,-1
 207 400 l 1,122,123
 204 383 204 383 190.5 370 c 128,-1,124
 177 357 177 357 160 357 c 1,125,-1
 136 361 l 1,126,127
 123 362 123 362 103 387 c 1,128,-1
 103 288 l 1,129,130
 111 329 111 329 166 329 c 1,131,-1
 183 327 l 1,132,133
 204 322.5 204 322.5 210 288 c 1,134,-1
 214 274 l 1,135,-1
 221 260 l 1,136,-1
 229 254 l 1,137,138
 236 254 236 254 235 267 c 1,139,-1
 222 279 l 1,140,-1
 226 291 l 1,141,-1
 226 323 l 2,142,143
 226 327 226 327 232 327 c 1,144,-1
 250 279 l 1,145,-1
 250 255 l 2,146,147
 250 252 250 252 242 246 c 128,-1,148
 234 240 234 240 231 240 c 0,149,150
 212 243 212 243 204 266 c 1,151,152
 189 250 189 250 179 250 c 2,153,-1
 171 250 l 1,154,155
 165 251 165 251 158.5 257.5 c 128,-1,156
 152 264 152 264 152 270 c 2,157,-1
 152 280 l 2,158,159
 152 283 152 283 160.5 291 c 128,-1,160
 169 299 169 299 178 299 c 2,161,-1
 181 299 l 1,162,163
 187 298 187 298 188 294 c 1,164,-1
 167 273 l 1,165,166
 168 264 168 264 178 264 c 0,0,1
EndSplineSet
AlternateSubs2: "'ss02' Cyrillic Equivalent Forms-1" uni041A
EndChar

StartChar: uni004C
Encoding: 65 76 21
Width: 286
VWidth: 841
GlyphClass: 2
Flags: W
HStem: -0 15<39 56 113 198 254.028 277> 707 15<39 60 113 129>
VStem: 57 56<15 707> 142 35<306 317.813> 166 23<379.423 448.232> 188 8<453.875 495.77> 193 14<277 330.798> 210 34<180 194> 224 7<262.875 285.952>
DStem2: 163 206 177 210 0.343866 0.939019<8.5702 91.0716>
AnchorPoint: "Yerok" 189 597.434 basechar 0
AnchorPoint: "Diacritic" 85.0001 801.434 basechar 0
LayerCount: 3
Fore
SplineSet
188 487 m 0xe4
 188 492 185 491 192 496 c 1
 194 496 195 495 196 492 c 2
 196 471 l 1xe4
 189 403 l 1xe8
 189 392 195 367 207 328 c 1
 207 306 l 1
 197 260 l 1
 177 210 l 1
 208 230 224 252 224 276 c 1
 226 286 l 1
 229 285 231 283 231 280 c 0xf280
 231 277 232 273 233 269 c 2
 244 220 l 1
 244 180 l 1xe1
 224 171 l 1xe080
 215 173 210 177 210 183 c 2
 210 194 l 1
 208 199 l 1
 200 197 189 180 188 171 c 2xe5
 187 158 l 1
 190 133 l 1
 200 100 226 61 241 40 c 0
 252 25 258 17 259 15 c 1
 277 15 l 1
 277 -0 l 1
 39 -0 l 1
 39 15 l 1
 56 15 l 1
 57 525 l 1
 57 572 l 1
 60 611 l 1
 60 707 l 1
 39 707 l 1
 39 722 l 1
 129 722 l 1
 129 707 l 1
 113 707 l 1
 113 25 l 1
 114 21 l 1
 113 15 l 1
 198 15 l 1
 190 29 l 1
 179 45 177 58 170 78 c 0
 167 85 165 93 162 102 c 1
 162 153 l 1
 163 161 l 1
 163 206 l 1
 189 277 l 1xe8
 193 292 l 1
 193 319 l 1
 191 328 187 332 181 332 c 1
 176 326 173 321 170 318 c 1
 171 318 l 1
 175 314 177 311 177 310 c 2
 177 306 l 1
 160 269 l 1
 149 257 l 1
 149 280 l 1
 142 314 l 1
 142 323 l 2xf2
 142 332 149 339 162 344 c 0
 165 345 168 346 169 346 c 2
 195 338 l 1
 187 361 179 371 170 399 c 0
 168 406 166 413 166 419 c 0xe8
 166 436 174 449 188 456 c 1
 188 466 188 477 188 487 c 0xe4
EndSplineSet
Validated: 1
Layer: 2
SplineSet
188 487 m 2,0,1
 188 493 188 493 192 496 c 1,2,3
 195 496 195 496 196 492 c 1,4,-1
 196 471 l 1,5,-1
 189 403 l 1,6,7
 189 386.5 189 386.5 207 328 c 1,8,-1
 207 306 l 1,9,-1
 197 260 l 1,10,-1
 177 210 l 1,11,12
 224 240 224 240 224 276 c 1,13,-1
 226 286 l 1,14,15
 231 284 231 284 231 280 c 0,16,17
 231 277 231 277 233 269 c 2,18,-1
 244 220 l 1,19,-1
 244 180 l 1,20,-1
 224 171 l 1,21,22
 210 174 210 174 210 183 c 2,23,-1
 210 194 l 1,24,-1
 208 199 l 1,25,26
 202 198 202 198 195.5 188 c 128,-1,27
 189 178 189 178 188 171 c 2,28,-1
 187 158 l 1,29,-1
 190 133 l 1,30,31
 201 95 201 95 241 40 c 0,32,33
 258 16 258 16 259 15 c 1,34,-1
 277 15 l 1,35,-1
 277 -0 l 1,36,-1
 39 -0 l 1,37,-1
 39 15 l 1,38,-1
 56 15 l 1,39,-1
 57 525 l 1,40,-1
 57 572 l 1,41,-1
 60 611 l 1,42,-1
 60 707 l 1,43,-1
 39 707 l 1,44,-1
 39 722 l 1,45,-1
 129 722 l 1,46,-1
 129 707 l 1,47,-1
 113 707 l 1,48,-1
 113 25 l 1,49,-1
 114 21 l 1,50,-1
 113 15 l 1,51,-1
 198 15 l 1,52,-1
 190 29 l 1,53,54
 184 37 184 37 170 78 c 2,55,-1
 162 102 l 1,56,-1
 162 153 l 1,57,-1
 163 161 l 1,58,-1
 163 206 l 1,59,-1
 189 277 l 1,60,-1
 193 292 l 1,61,-1
 193 319 l 1,62,63
 190 332 190 332 181 332 c 1,64,65
 179 329 179 329 175.5 324.5 c 128,-1,66
 172 320 172 320 170 318 c 1,67,-1
 171 318 l 1,68,69
 177 312 177 312 177 310 c 2,70,-1
 177 306 l 1,71,-1
 160 269 l 1,72,-1
 149 257 l 1,73,-1
 149 280 l 1,74,-1
 142 314 l 1,75,-1
 142 323 l 2,76,77
 142 336 142 336 162 344 c 0,78,79
 168 346 168 346 169 346 c 2,80,-1
 195 338 l 1,81,82
 191 348 191 348 183 366 c 128,-1,83
 175 384 175 384 170 399 c 0,84,85
 166 413 166 413 166 419 c 0,86,87
 166 445 166 445 188 456 c 1,88,-1
 188 487 l 2,0,1
EndSplineSet
EndChar

StartChar: uni004D
Encoding: 66 77 22
Width: 426
VWidth: 840
GlyphClass: 2
Flags: W
HStem: 6 15<85.4808 104 210 230 274 292 334 348 393 417> 58 13<87.8848 103> 345 44<153.234 170.047> 476 19<123 146.588> 509 17<138.448 147 309 321.95> 581 53<177 190.768> 699 16<218 231 275 292 334 347 393 409>
VStem: 59 22<22.5708 56.6385> 97 37<189.816 377 573.713 615.771> 122 42<45 250.777> 132 22<659.572 667> 153 38<582 599> 153 20<370 388.415 496.217 508.909> 184 14<221.5 234> 231 44<16 499 526 699> 289 23<526.054 549.68 583.145 606.859 680.917 691.671> 323 11<596.372 604> 341 52<484.832 533> 347 46<21 230.637 554 699> 358 35<113.042 501>
DStem2: 289 635 297 619 0.375009 0.927021<0 46.9762>
AnchorPoint: "Yerok" 367 798.547 basechar 0
AnchorPoint: "Diacritic" 255 798.547 basechar 0
LayerCount: 3
Fore
SplineSet
161 617 m 1xff9380
 151 616 134 604 134 593 c 0
 134 585 139 578 149 571 c 1
 154 578 156 582 153 582 c 1
 153 599 l 1
 163 599 l 1
 165 607 l 1
 161 617 l 1xff9380
295 685 m 1
 295 688 299 692 302 692 c 0
 309 692 312 689 312 683 c 1
 315 670 l 2
 317 667 313 667 315 664 c 1
 297 619 l 1
 299 615 l 1
 302 625 307 630 315 630 c 1
 334 611 l 1
 331 601 328 595 323 594 c 1
 323 604 l 1
 317 607 l 1
 314 604 312 601 312 598 c 0
 312 595 313 593 315 591 c 2
 323 583 l 1
 333 574 340 564 347 554 c 1
 347 699 l 1
 334 699 l 1
 334 715 l 1
 409 715 l 1
 409 699 l 1
 393 699 l 1
 393 21 l 1xff03a0
 417 21 l 1
 417 6 l 1
 334 6 l 1
 334 21 l 1
 348 21 l 1
 355 162 358 260 358 314 c 0
 358 378 355 381 355 501 c 1
 333 479 298 461 293 431 c 0
 291 418 279 382 278 378 c 1
 278 345 l 1
 274 317 l 1
 274 16 l 1
 292 16 l 1
 292 0 l 1
 210 0 l 1
 210 16 l 1
 230 16 l 1
 230 357 l 1
 231 366 l 1
 231 499 l 1
 222 484 211 472 197 461 c 0
 179 448 168 439 164 435 c 0
 158 429 153 422 150 413 c 1
 165 420 l 1
 177 420 l 2
 183 420 187 415 193 411 c 0
 195 410 200 405 207 398 c 0
 208 397 209 391 211 380 c 1
 209 377 l 1
 209 363 l 1
 175 303 l 1
 175 290 l 1
 198 237 l 1
 184 206 l 1
 187 234 l 1
 187 247 168 258 162 265 c 0
 151 278 146 287 146 293 c 0
 146 305 153 315 161 323 c 2
 175 335 l 2
 180 339 184 344 188 351 c 1
 164 345 l 1xff4790
 158 340 153 354 153 358 c 2
 153 376 l 1
 158 385 162 389 165 389 c 1
 168 388 173 385 173 383 c 2
 170 370 l 1
 173 367 l 2xff0b80
 174 366 175 364 178 363 c 1
 189 389 l 1
 189 399 182 405 169 408 c 1
 147 401 l 1
 138 377 l 1
 135 359 l 1
 135 318 140 267 150 206 c 0
 159 145 164 103 164 80 c 2
 164 61 l 1
 160 45 l 1
 150 25 136 13 117 8 c 2
 104 5 l 1
 86 7 l 1
 75 7 59 26 59 37 c 0
 59 50 76 70 87 71 c 0
 99 73 105 70 105 63 c 1
 103 58 l 1
 93 58 l 1
 90 55 81 43 81 37 c 0
 81 31 91 21 96 21 c 2
 111 21 l 2
 121 21 122 45 122 61 c 0
 122 63 122 66 122 68 c 0xff4380
 122 104 114 159 109 195 c 0
 101 263 97 313 97 344 c 1
 104 377 l 2
 106 388 112 402 123 421 c 0
 131 434 144 446 163 457 c 0
 190 473 207 485 210 516 c 1
 207 531 197 540 178 543 c 2
 147 547 l 1
 136 547 l 2
 125 547 110 534 107 528 c 1
 106 521 l 1
 107 517 l 1
 110 507 l 1
 115 499 l 1
 123 495 l 1
 134 495 l 2
 143 495 147 497 147 501 c 2
 147 509 l 1
 139 509 l 1
 129 506 l 1
 130 514 144 526 153 526 c 2
 160 526 l 2
 166 526 169 513 169 504 c 0
 169 490 158 476 144 476 c 2
 123 476 l 2
 110 476 97 495 97 507 c 2
 97 522 l 1xff8b80
 103 546 104 550 119 558 c 1
 132 561 l 1xff2380
 117 569 107 581 100 596 c 0
 98 601 97 605 97 609 c 2
 97 621 l 2xff8380
 97 637 107 651 127 663 c 0
 130 665 132 666 132 667 c 2
 121 695 l 1
 136 695 l 1
 152 675 l 1
 154 662 l 1xff2380
 154 655 149 647 140 638 c 0
 124 622 116 612 115 607 c 1
 118 602 l 1
 123 613 131 623 139 627 c 1
 146 632 150 634 152 634 c 2
 174 634 l 2
 184 634 186 621 191 616 c 1
 191 600 l 2xff1380
 191 593 186 581 177 581 c 1
 169 576 l 1
 151 569 l 1
 152 568 157 565 164 562 c 2
 176 558 l 2
 181 557 185 556 188 555 c 2
 198 553 l 2
 211 550 215 548 221 538 c 0
 224 534 227 530 231 526 c 1
 231 699 l 1
 218 699 l 1
 218 715 l 1
 292 715 l 1
 292 699 l 1
 275 699 l 1
 275 431 l 1
 277 425 l 1
 277 435 l 2
 277 443 288 457 309 476 c 0
 316 482 323 488 330 495 c 0
 337 500 341 506 341 511 c 2
 341 533 l 1xff47c0
 330 551 l 1
 319 551 308 543 308 534 c 0
 308 529 314 526 326 526 c 1
 323 521 322 518 322 517 c 0
 321 512 316 509 309 509 c 1
 290 526 l 1
 290 533 l 2
 290 547 305 552 305 552 c 2
 311 555 l 2
 313 556 320 559 324 561 c 1
 301 578 289 595 289 610 c 2
 289 635 l 1
 303 672 l 2
 306 677 299 683 295 685 c 1
EndSplineSet
Validated: 1
Layer: 2
SplineSet
161 617 m 1,0,1
 153 616 153 616 143.5 608.5 c 128,-1,2
 134 601 134 601 134 593 c 0,3,4
 134 582 134 582 149 571 c 1,5,6
 156.857 582 156.857 582 153 582 c 1,7,-1
 153 599 l 1,8,-1
 163 599 l 1,9,-1
 165 607 l 1,10,-1
 161 617 l 1,0,1
295 685 m 1,11,12
 295 692 295 692 302 692 c 0,13,14
 312 692 312 692 312 683 c 1,15,-1
 315 670 l 2,16,17
 316 668 316 668 315 667 c 128,-1,18
 314 666 314 666 315 664 c 1,19,-1
 297 619 l 1,20,-1
 299 615 l 1,21,22
 304 630 304 630 315 630 c 1,23,-1
 334 611 l 1,24,25
 329 595 329 595 323 594 c 1,26,-1
 323 604 l 1,27,-1
 317 607 l 1,28,29
 312 602 312 602 312 598 c 128,-1,30
 312 594 312 594 315 591 c 2,31,-1
 323 583 l 2,32,33
 333 574 333 574 347 554 c 1,34,-1
 347 699 l 1,35,-1
 334 699 l 1,36,-1
 334 715 l 1,37,-1
 409 715 l 1,38,-1
 409 699 l 1,39,-1
 393 699 l 1,40,-1
 393 21 l 1,41,-1
 417 21 l 1,42,-1
 417 6 l 1,43,-1
 334 6 l 1,44,-1
 334 21 l 1,45,-1
 348 21 l 1,46,47
 358 222 358 222 358 314 c 0,48,49
 358 339 358 339 356.5 386.5 c 128,-1,50
 355 434 355 434 355 501 c 1,51,52
 349 495 349 495 331.5 481.5 c 128,-1,53
 314 468 314 468 304.5 456 c 128,-1,54
 295 444 295 444 293 431 c 0,55,56
 292 425 292 425 288.5 413 c 128,-1,57
 285 401 285 401 281.5 390 c 128,-1,58
 278 379 278 379 278 378 c 2,59,-1
 278 345 l 1,60,-1
 274 317 l 1,61,-1
 274 16 l 1,62,-1
 292 16 l 1,63,-1
 292 0 l 1,64,-1
 210 0 l 1,65,-1
 210 16 l 1,66,-1
 230 16 l 1,67,-1
 230 357 l 1,68,-1
 231 366 l 1,69,-1
 231 499 l 1,70,71
 218 478 218 478 197 461 c 1,72,73
 172 443 172 443 164 435 c 0,74,75
 154 425 154 425 150 413 c 1,76,-1
 165 420 l 1,77,-1
 177 420 l 2,78,79
 180 420 180 420 193 411 c 0,80,81
 195 410 195 410 207 398 c 0,82,83
 208 397 208 397 211 380 c 1,84,-1
 209 377 l 1,85,-1
 209 363 l 1,86,-1
 175 303 l 1,87,-1
 175 290 l 1,88,-1
 198 237 l 1,89,-1
 184 206 l 1,90,-1
 187 234 l 2,91,92
 187 240 187 240 182.5 245.5 c 128,-1,93
 178 251 178 251 171 257 c 128,-1,94
 164 263 164 263 162 265 c 0,95,96
 146 284 146 284 146 293 c 0,97,98
 146 308 146 308 161 323 c 1,99,-1
 175 335 l 2,100,101
 182 341 182 341 188 351 c 1,102,-1
 164 345 l 1,103,104
 160 342 160 342 156.5 348 c 128,-1,105
 153 354 153 354 153 358 c 2,106,-1
 153 376 l 1,107,108
 160 389 160 389 165 389 c 1,109,110
 173 386 173 386 173 383 c 2,111,-1
 170 370 l 1,112,-1
 173 367 l 2,113,114
 176 364 176 364 178 363 c 1,115,-1
 189 389 l 1,116,117
 189 403 189 403 169 408 c 1,118,-1
 147 401 l 1,119,-1
 138 377 l 1,120,-1
 135 359 l 1,121,122
 135 297.5 135 297.5 150 206 c 1,123,124
 164 111 164 111 164 80 c 2,125,-1
 164 61 l 1,126,-1
 160 45 l 1,127,128
 145 15 145 15 117 8 c 2,129,-1
 104 5 l 1,130,-1
 86 7 l 2,131,132
 78 7 78 7 68.5 18 c 128,-1,133
 59 29 59 29 59 37 c 0,134,135
 59 47 59 47 69 58.5 c 128,-1,136
 79 70 79 70 87 71 c 0,137,138
 105 74 105 74 105 63 c 1,139,-1
 103 58 l 1,140,-1
 93 58 l 1,141,142
 81 46 81 46 81 37 c 0,143,144
 81 33 81 33 86.5 27 c 128,-1,145
 92 21 92 21 96 21 c 2,146,-1
 111 21 l 2,147,148
 122 21 122 21 122 61 c 2,149,-1
 122 68 l 2,150,151
 122 101 122 101 109 195 c 1,152,153
 97 297 97 297 97 344 c 1,154,-1
 104 377 l 2,155,156
 107 393 107 393 123 421 c 0,157,158
 135 441 135 441 163 457 c 0,159,160
 187 471 187 471 197.5 483 c 128,-1,161
 208 495 208 495 210 516 c 1,162,163
 205 539 205 539 178 543 c 2,164,-1
 147 547 l 1,165,-1
 136 547 l 2,166,167
 128 547 128 547 119 540 c 128,-1,168
 110 533 110 533 107 528 c 1,169,-1
 106 521 l 1,170,-1
 107 517 l 1,171,-1
 110 507 l 1,172,-1
 115 499 l 1,173,-1
 123 495 l 1,174,-1
 134 495 l 2,175,176
 147 495 147 495 147 501 c 2,177,-1
 147 509 l 1,178,-1
 139 509 l 1,179,-1
 129 506 l 1,180,181
 130 512 130 512 138 519 c 128,-1,182
 146 526 146 526 153 526 c 2,183,-1
 160 526 l 2,184,185
 169 526 169 526 169 504 c 0,186,187
 169 493 169 493 161.5 484.5 c 128,-1,188
 154 476 154 476 144 476 c 2,189,-1
 123 476 l 2,190,191
 114 476 114 476 105.5 486.5 c 128,-1,192
 97 497 97 497 97 507 c 2,193,-1
 97 522 l 1,194,195
 102 541 102 541 105 546.5 c 128,-1,196
 108 552 108 552 119 558 c 1,197,-1
 132 561 l 1,198,199
 111 572 111 572 100 596 c 0,200,201
 97 604 97 604 97 609 c 2,202,-1
 97 621 l 2,203,204
 97 645 97 645 127 663 c 0,205,206
 132 666 132 666 132 667 c 2,207,-1
 121 695 l 1,208,-1
 136 695 l 1,209,-1
 152 675 l 1,210,-1
 154 662 l 1,211,212
 154 652 154 652 140 638 c 0,213,214
 116 614 116 614 115 607 c 1,215,-1
 118 602 l 1,216,217
 127 621 127 621 139 627 c 1,218,219
 149 634 149 634 152 634 c 2,220,-1
 174 634 l 2,221,222
 178 634 178 634 181 631 c 128,-1,223
 184 628 184 628 186.5 623 c 128,-1,224
 189 618 189 618 191 616 c 1,225,-1
 191 600 l 2,226,227
 191 594 191 594 187 587.5 c 128,-1,228
 183 581 183 581 177 581 c 1,229,-1
 169 576 l 1,230,-1
 151 569 l 1,231,232
 154 566 154 566 164 562 c 2,233,-1
 176 558 l 2,234,235
 183.5 556.5 183.5 556.5 188 555 c 2,236,-1
 198 553 l 2,237,238
 214 549 214 549 221 538 c 0,239,240
 227 530 227 530 231 526 c 1,241,-1
 231 699 l 1,242,-1
 218 699 l 1,243,-1
 218 715 l 1,244,-1
 292 715 l 1,245,-1
 292 699 l 1,246,-1
 275 699 l 1,247,-1
 275 431 l 1,248,-1
 277 425 l 1,249,-1
 277 435 l 2,250,251
 277 447 277 447 309 476 c 0,252,253
 323 488 323 488 330 495 c 1,254,255
 341 503 341 503 341 511 c 2,256,-1
 341 533 l 1,257,-1
 330 551 l 1,258,259
 322 551 322 551 315 546 c 128,-1,260
 308 541 308 541 308 534 c 0,261,262
 308 526 308 526 326 526 c 1,263,264
 322 519 322 519 322 517 c 0,265,266
 320 509 320 509 309 509 c 1,267,-1
 290 526 l 1,268,-1
 290 533 l 2,269,270
 290 539 290 539 294 544 c 128,-1,271
 298 549 298 549 301.5 550.5 c 2,272,-1
 305 552 l 1,273,-1
 311 555 l 2,274,275
 312 555 312 555 317 557.5 c 128,-1,276
 322 560 322 560 324 561 c 1,277,278
 289 587 289 587 289 610 c 2,279,-1
 289 635 l 1,280,-1
 303 672 l 1,281,282
 307 679 307 679 295 685 c 1,11,12
EndSplineSet
AlternateSubs2: "'ss02' Cyrillic Equivalent Forms-1" uni041C
EndChar

StartChar: uni004E
Encoding: 67 78 23
Width: 305
VWidth: 841
GlyphClass: 2
Flags: W
HStem: 4 15<46 67 114 128> 45 14<156 191.066> 87 25<184 187.953> 593 12<135 156.599> 627 44<129.058 149.86> 697 16<38 60 107 121 209 231 279 292>
VStem: 60 46<268.607 484 513.556 585.828 587 697> 67 48<19.0476 239.7 521.889 592.476> 134 23<64.5776 132.062> 134 5<246 269.907> 139 31<143 186 695.186 707.189> 158 30<500.066 533> 167 17<112.047 114> 174 9<622.424 653> 201 22<37 55> 231 49<158 697> 263 14<8 29.3182>
DStem2: 164 368 149 367 0.302656 -0.9531<-124.788 -3.58674 26.4744 220.429>
AnchorPoint: "Yerok" 256 798.591 basechar 0
AnchorPoint: "Diacritic" 164 798.591 basechar 0
LayerCount: 3
Fore
SplineSet
182 139 m 0xfc12
 172 139 159 124 157 114 c 1
 157 104 157 95 157 85 c 1
 162 68 170 59 182 59 c 0
 199 59 212 83 215 98 c 1
 219 136 l 1
 157 338 l 1
 143 338 l 1
 140 347 l 1
 149 367 l 1
 140 403 127 442 110 484 c 1
 110 478 l 1
 115 469 117 319 117 27 c 1
 116 25 115 24 115 23 c 0
 115 22 115 20 114 19 c 1
 128 19 l 1
 128 4 l 1
 46 4 l 1
 46 19 l 1
 67 19 l 1xfd92
 62 306 60 532 60 697 c 1
 38 697 l 1
 38 713 l 1
 61 714 l 1
 108 714 l 1
 108 713 l 1
 121 713 l 1
 121 697 l 1
 107 697 l 1
 107 683 l 1
 105 675 l 1
 106 667 l 1
 106 587 l 1
 109 584 l 1
 135 605 l 1
 142 605 l 1
 163 611 174 622 174 637 c 0xfe06
 174 648 170 656 161 660 c 1
 156 657 152 658 149 652 c 1
 155 651 164 639 154 632 c 1
 149 629 148 627 145 627 c 1
 132 629 l 1
 130 638 129 645 129 651 c 0
 129 662 134 671 142 671 c 0
 145 671 147 670 150 669 c 1
 145 687 l 1
 145 698 l 2
 145 701 158 711 162 711 c 0
 165 711 167 710 167 707 c 0xfc0a
 167 701 158 699 160 695 c 2
 183 653 l 1
 183 620 l 2xfc06
 183 608 170 607 163 603 c 1
 184 577 l 1xfc0a
 187 567 188 559 188 553 c 0
 188 528 183 522 178 499 c 1
 202 468 l 1
 198 451 l 1
 193 454 189 473 185 473 c 0
 175 474 158 491 158 501 c 2
 158 518 l 1
 160 533 l 1
 147 525 l 1
 137 526 131 532 128 541 c 1
 126 556 l 1
 127 566 137 575 149 575 c 1
 153 567 l 1
 151 564 150 562 149 561 c 0
 149 558 161 557 160 566 c 1
 168 581 l 1
 165 587 156 591 141 593 c 0
 140 593 l 0
 127 593 111 563 111 556 c 2
 111 533 l 1
 142 433 l 1
 158 388 l 1
 164 368 l 1
 171 371 l 1
 178 368 181 365 181 362 c 1
 172 347 l 1
 231 158 l 1
 231 697 l 1
 209 697 l 1
 209 713 l 1
 292 713 l 1
 292 697 l 1
 279 697 l 1
 280 584 280 471 280 356 c 2
 280 299 l 1xfc13
 278 188 277 90 277 5 c 1
 263 8 l 1
 241 75 l 1
 228 110 l 1
 223 85 l 1
 223 50 l 1
 226 37 l 1
 225 34 223 33 220 33 c 0
 211 33 210 39 206 44 c 0
 203 48 201 52 201 55 c 1
 172 46 l 1
 170 45 168 45 165 45 c 0
 147 45 134 75 134 85 c 0xfc8280
 134 96 136 107 136 123 c 0
 136 145 137 157 139 159 c 1
 139 159 139 159 139 170 c 0xfc22
 139 196 135 217 128 233 c 1
 135 257 l 1
 134 266 l 2xfc42
 135 267 136 268 139 270 c 1
 146 246 l 1
 146 239 l 2
 146 238 146 236 145 235 c 2
 147 222 l 1
 165 186 l 1
 170 164 l 1
 170 155 l 1xfc22
 167 143 l 1
 181 147 l 1
 195 145 212 132 212 120 c 0
 212 104 203 87 194 87 c 2
 181 87 l 1
 177 89 168 91 171 97 c 1
 167 107 l 1
 167 114 l 1
 173 119 l 1
 179 121 l 1
 181 123 184 116 184 116 c 0xfc0a
 184 114 184 113 185 112 c 0
 186 112 187 111 188 110 c 0
 191 108 194 110 196 116 c 1
 195 125 192 139 182 139 c 0xfc12
EndSplineSet
Validated: 1
Layer: 2
SplineSet
182 139 m 0,0,1
 175 139 175 139 167 130.5 c 128,-1,2
 159 122 159 122 157 114 c 1,3,-1
 157 85 l 1,4,5
 165 59 165 59 182 59 c 0,6,7
 194 59 194 59 203 72 c 128,-1,8
 212 85 212 85 215 98 c 1,9,-1
 219 136 l 1,10,-1
 157 338 l 1,11,-1
 143 338 l 1,12,-1
 140 347 l 1,13,-1
 149 367 l 1,14,15
 135.5 421 135.5 421 110 484 c 1,16,-1
 110 478 l 1,17,18
 117 465 117 465 117 27 c 1,19,20
 115 23 115 23 115 23 c 1,21,22
 115 20 115 20 114 19 c 1,23,-1
 128 19 l 1,24,-1
 128 4 l 1,25,-1
 46 4 l 1,26,-1
 46 19 l 1,27,-1
 67 19 l 1,28,29
 60 421 60 421 60 697 c 1,30,-1
 38 697 l 1,31,-1
 38 713 l 1,32,-1
 61 714 l 1,33,-1
 108 714 l 1,34,-1
 108 713 l 1,35,-1
 121 713 l 1,36,-1
 121 697 l 1,37,-1
 107 697 l 1,38,-1
 107 683 l 1,39,-1
 105 675 l 1,40,-1
 106 667 l 1,41,-1
 106 587 l 1,42,-1
 109 584 l 1,43,-1
 135 605 l 1,44,-1
 142 605 l 1,45,46
 174 614 174 614 174 637 c 0,47,48
 174 654 174 654 161 660 c 1,49,50
 159 659 159 659 156.5 658 c 128,-1,51
 154 657 154 657 152 656 c 128,-1,52
 150 655 150 655 149 652 c 1,53,54
 155 651 155 651 157.5 644 c 128,-1,55
 160 637 160 637 154 632 c 1,56,57
 146 627 146 627 145 627 c 2,58,-1
 132 629 l 1,59,60
 129 642 129 642 129 651 c 0,61,62
 129 671 129 671 142 671 c 0,63,64
 144 671 144 671 150 669 c 1,65,-1
 145 687 l 1,66,-1
 145 698 l 2,67,68
 145 700 145 700 152 705.5 c 128,-1,69
 159 711 159 711 162 711 c 0,70,71
 167 711 167 711 167 707 c 0,72,73
 167 704 167 704 163 700.5 c 128,-1,74
 159 697 159 697 160 695 c 2,75,-1
 183 653 l 1,76,-1
 183 620 l 2,77,78
 183 615 183 615 180 612 c 128,-1,79
 177 609 177 609 170.5 606.5 c 128,-1,80
 164 604 164 604 163 603 c 1,81,-1
 184 577 l 1,82,83
 188 564 188 564 188 553 c 128,-1,84
 188 542 188 542 187 534.5 c 128,-1,85
 186 527 186 527 183 516.5 c 128,-1,86
 180 506 180 506 178 499 c 1,87,-1
 202 468 l 1,88,-1
 198 451 l 1,89,90
 196 452 196 452 191.5 462.5 c 128,-1,91
 187 473 187 473 185 473 c 0,92,93
 177 474 177 474 167.5 484 c 128,-1,94
 158 494 158 494 158 501 c 2,95,-1
 158 518 l 1,96,-1
 160 533 l 1,97,-1
 147 525 l 1,98,99
 133 526 133 526 128 541 c 1,100,-1
 126 556 l 1,101,102
 127 564 127 564 133.5 569.5 c 128,-1,103
 140 575 140 575 149 575 c 1,104,-1
 153 567 l 1,105,-1
 149 561 l 1,106,107
 149 557.336 149 557.336 155.654 559.174 c 0,108,109
 160.606 560.543 160.606 560.543 160 566 c 1,110,-1
 168 581 l 1,111,112
 163.5 590 163.5 590 141 593 c 1,113,-1
 140 593 l 2,114,115
 131 593 131 593 121 578 c 128,-1,116
 111 563 111 563 111 556 c 2,117,-1
 111 533 l 1,118,-1
 142 433 l 1,119,-1
 158 388 l 1,120,-1
 164 368 l 1,121,-1
 171 371 l 1,122,123
 181 367 181 367 181 362 c 1,124,-1
 172 347 l 1,125,-1
 231 158 l 1,126,-1
 231 697 l 1,127,-1
 209 697 l 1,128,-1
 209 713 l 1,129,-1
 292 713 l 1,130,-1
 292 697 l 1,131,-1
 279 697 l 1,132,133
 280 584 280 584 280 356 c 2,134,-1
 280 299 l 1,135,136
 277 132.5 277 132.5 277 5 c 1,137,-1
 263 8 l 1,138,-1
 241 75 l 1,139,-1
 228 110 l 1,140,-1
 223 85 l 1,141,-1
 223 50 l 1,142,-1
 226 37 l 1,143,144
 225 33 225 33 220 33 c 0,145,146
 216 33 216 33 214 34 c 128,-1,147
 212 35 212 35 209 39.5 c 2,148,-1
 206 44 l 2,149,150
 201 51 201 51 201 55 c 1,151,-1
 172 46 l 2,152,153
 170 45 170 45 165 45 c 0,154,155
 153 45 153 45 143.5 60 c 128,-1,156
 134 75 134 75 134 85 c 0,157,158
 134 90 134 90 135 102 c 128,-1,159
 136 114 136 114 136 123 c 0,160,161
 136 156 136 156 139 159 c 1,162,-1
 139 170 l 2,163,164
 139 208 139 208 128 233 c 1,165,-1
 135 257 l 1,166,-1
 134 266 l 1,167,168
 136 268 136 268 139 270 c 1,169,-1
 146 246 l 1,170,-1
 146 239 l 2,171,172
 146 236 146 236 145 235 c 1,173,-1
 147 222 l 1,174,-1
 165 186 l 1,175,-1
 170 164 l 1,176,-1
 170 155 l 1,177,-1
 167 143 l 1,178,-1
 181 147 l 1,179,180
 192 145 192 145 202 137 c 128,-1,181
 212 129 212 129 212 120 c 0,182,183
 212 108 212 108 206.5 97.5 c 128,-1,184
 201 87 201 87 194 87 c 2,185,-1
 181 87 l 1,186,187
 170.952 92.024 170.952 92.024 170.504 93.848 c 0,188,189
 170.148 95.2965 170.148 95.2965 171 97 c 1,190,-1
 167 107 l 1,191,-1
 167 114 l 1,192,-1
 173 119 l 1,193,-1
 179 121 l 2,194,195
 180 122 180 122 182 119 c 2,196,-1
 184 116 l 1,197,198
 184 113 184 113 185 112 c 0,199,200
 186 112 186 112 188 110 c 0,201,202
 193 107 193 107 196 116 c 1,203,204
 193 139 193 139 182 139 c 0,0,1
EndSplineSet
AlternateSubs2: "'ss02' Cyrillic Equivalent Forms-1" uni041D
EndChar

StartChar: uni004F
Encoding: 68 79 24
Width: 305
VWidth: 841
GlyphClass: 2
Flags: W
HStem: 0 21G<153.5 174> 129 12<143.13 162> 583 12<142.402 158> 620 30<141.031 162.996> 698 21<135.247 169.077>
VStem: 36 45<147.626 567.21> 113 13<166.001 176.813 196.386 233.013> 117 43<184.382 222.766> 117 18<108 113.906 315.564 350 485.891 538.234> 123 18<315.564 350 484.206 546.647 596.267 620> 139 12<97 111.657> 145 10<402 417.997> 158 41<497 508> 168 20<96.0491 118> 174 22<549 565.375> 186 13<214 237.526 614.178 669.767> 241 48<184.061 608.923>
DStem2: 140 255 147 243 0.967075 0.254493<-13.7086 19.1831>
AnchorPoint: "Yerok" 255.4 756.025 basechar 0
AnchorPoint: "Diacritic" 167.4 804.025 basechar 0
LayerCount: 3
Fore
SplineSet
266 620 m 1xfc0280
 281 541 289 467 289 397 c 0
 289 327 283 244 272 149 c 1
 259 111 l 1
 245 74 l 1
 225 39 l 1
 195 8 l 1
 189 3 178 3 170 0 c 1
 137 3 110 23 89 58 c 0
 54 117 36 216 36 357 c 2
 36 373 l 2
 36 449 39 515 46 571 c 0
 54 639 104 711 166 719 c 1
 174 719 l 2
 175 718 176 718 178 719 c 1
 211 703 l 1
 234 686 253 659 266 620 c 1xfc0280
139 103 m 1xfc2480
 141 107 142 112 147 112 c 0
 152 112 153 110 151 105 c 1
 152 97 l 1
 159 96 l 1
 164 97 167 101 168 110 c 1
 168 118 l 1xfc2480
 162 129 l 1
 150 129 l 2
 148 129 142 124 132 114 c 0
 131 112 131 110 131 108 c 0
 130 105 130 105 129 102 c 2
 126 73 l 1
 128 62 l 1
 132 51 147 23 163 23 c 1
 178 28 192 48 204 83 c 0
 219 126 221 121 231 176 c 1
 238 202 241 232 241 265 c 1
 244 284 246 304 246 325 c 0
 246 338 245 352 244 366 c 0
 242 389 241 423 241 467 c 0
 241 582 224 653 190 678 c 1
 199 649 l 1
 199 625 l 2xfe0180
 199 619 205 603 203 596 c 0
 198 585 182 575 172 568 c 0
 152 554 140 537 135 517 c 1
 135 502 l 1
 138 497 142 483 148 484 c 1
 158 497 l 1
 158 508 l 1xfc8880
 150 526 l 1
 150 526 150 526 151 527 c 0
 151 528 152 529 153 529 c 2
 159 527 l 1
 161 528 165 526 172 522 c 1
 172 537 l 1
 174 546 l 1
 174 554 183 568 192 568 c 0
 196 568 197 567 196 564 c 2
 192 549 l 1
 196 519 l 1xfc2280
 199 512 l 1
 199 495 l 2xfc0180
 199 489 194 482 184 475 c 0
 173 467 168 463 167 464 c 2
 147 464 l 2
 133 464 117 481 117 503 c 2
 117 515 l 1
 125 547 139 564 158 583 c 1
 139 583 l 1xfca880
 134 584 123 596 123 602 c 2
 123 627 l 2
 123 640 134 650 149 650 c 0
 158 650 163 647 163 641 c 2
 163 628 l 2
 163 624 158 620 153 620 c 2
 141 620 l 1
 141 606 l 2
 141 599 147 595 158 595 c 0xfc4880
 169 595 183 614 187 633 c 1
 187 647 l 1
 184 664 l 2
 184 667 181 672 176 679 c 0
 167 692 159 698 154 698 c 2
 142 698 l 2
 129 698 117 690 108 674 c 0
 99 659 95 647 95 637 c 2
 95 628 l 1
 86 575 81 484 81 356 c 0
 81 228 88 139 101 90 c 1
 112 68 l 1
 112 104 l 2
 112 131 131 152 147 166 c 0
 154 172 186 201 186 220 c 0
 186 238 175 242 161 246 c 1
 147 243 l 2
 140 242 126 229 126 222 c 0xfe0180
 126 215 126 211 134 211 c 1
 140 217 132 226 146 223 c 1
 150 218 160 214 160 207 c 0xfd0080
 160 194 133 181 124 177 c 1
 122 173 121 170 121 169 c 0
 121 167 120 166 119 166 c 1
 117 181 l 1xfc8080
 117 196 113 205 113 221 c 0xfe0080
 113 236 122 248 140 255 c 0
 143 256 146 257 149 257 c 2
 159 260 l 1
 145 265 132 280 121 306 c 0
 118 312 117 317 117 320 c 2
 117 350 l 1
 145 402 l 1
 145 416 l 1
 146 417 148 418 150 418 c 0
 151 418 152 414 155 406 c 1
 155 398 l 2
 155 393 153 388 148 382 c 0
 139 371 135 362 135 355 c 0
 135 341 143 327 144 315 c 1
 146 313 l 1
 155 295 171 285 191 265 c 0
 196 260 199 253 199 245 c 2
 199 214 l 1xfc9180
 189 189 l 2
 187 186 184 183 179 179 c 0
 166 168 154 155 143 141 c 1
 161 141 l 2
 174 141 188 114 188 106 c 2
 188 97 l 2xfc0480
 188 96 187 96 186 96 c 0xfc0180
 185 95 186 94 188 91 c 1
 163 63 l 1
 163 55 l 1
 162 55 147 79 139 90 c 1
 139 103 l 1xfc2480
EndSplineSet
Validated: 1
Layer: 2
SplineSet
266 620 m 1,0,1
 289 499 289 499 289 397 c 0,2,3
 289 296 289 296 272 149 c 1,4,-1
 259 111 l 1,5,-1
 245 74 l 1,6,-1
 225 39 l 1,7,-1
 195 8 l 2,8,9
 192 5 192 5 182 3 c 128,-1,10
 172 1 172 1 170 0 c 1,11,12
 121 4 121 4 89 58 c 0,13,14
 36 147 36 147 36 357 c 2,15,-1
 36 373 l 2,16,17
 36 491 36 491 46 571 c 0,18,19
 52 624 52 624 86.5 668.5 c 128,-1,20
 121 713 121 713 166 719 c 1,21,-1
 174 719 l 1,22,23
 175 718 175 718 178 719 c 1,24,-1
 211 703 l 1,25,26
 247 676 247 676 266 620 c 1,0,1
139 103 m 1,27,28
 144 112 144 112 147 112 c 0,29,30
 154 112 154 112 151 105 c 1,31,-1
 152 97 l 1,32,-1
 159 96 l 1,33,34
 167 98 167 98 168 110 c 1,35,-1
 168 118 l 1,36,-1
 162 129 l 1,37,-1
 150 129 l 2,38,39
 147 129 147 129 132 114 c 0,40,41
 131 112 131 112 131 108 c 1,42,-1
 129 102 l 1,43,-1
 126 73 l 1,44,-1
 128 62 l 1,45,46
 132 50 132 50 142 36.5 c 128,-1,47
 152 23 152 23 163 23 c 1,48,49
 186 31 186 31 204 83 c 0,50,51
 208 94 208 94 213 107 c 128,-1,52
 218 120 218 120 219.5 125.5 c 128,-1,53
 221 131 221 131 224 143.5 c 128,-1,54
 227 156 227 156 231 176 c 1,55,56
 241 213 241 213 241 265 c 1,57,58
 246 297 246 297 246 325 c 0,59,60
 246 338 246 338 244 366 c 0,61,62
 241 400 241 400 241 467 c 0,63,64
 241 640 241 640 190 678 c 1,65,-1
 199 649 l 1,66,-1
 199 625 l 2,67,68
 199 623 199 623 201.5 611.5 c 128,-1,69
 204 600 204 600 203 596 c 0,70,71
 199 587 199 587 172 568 c 0,72,73
 143 547 143 547 135 517 c 1,74,-1
 135 502 l 1,75,76
 136 501 136 501 138.5 495.5 c 128,-1,77
 141 490 141 490 143 487 c 128,-1,78
 145 484 145 484 148 484 c 1,79,-1
 158 497 l 1,80,-1
 158 508 l 1,81,-1
 150 526 l 1,82,-1
 151 527 l 1,83,84
 151 529 151 529 153 529 c 2,85,-1
 159 527 l 1,86,87
 161 528 161 528 172 522 c 1,88,-1
 172 537 l 1,89,-1
 174 546 l 1,90,91
 174 552 174 552 180 560 c 128,-1,92
 186 568 186 568 192 568 c 0,93,94
 197 568 197 568 196 564 c 2,95,-1
 192 549 l 1,96,-1
 196 519 l 1,97,-1
 199 512 l 1,98,-1
 199 495 l 2,99,100
 199 486 199 486 184 475 c 0,101,102
 168 463 168 463 167 464 c 1,103,-1
 147 464 l 2,104,105
 136 464 136 464 126.5 475.5 c 128,-1,106
 117 487 117 487 117 503 c 2,107,-1
 117 515 l 1,108,109
 126 551 126 551 158 583 c 1,110,-1
 139 583 l 1,111,112
 135 584 135 584 129 591 c 128,-1,113
 123 598 123 598 123 602 c 2,114,-1
 123 627 l 2,115,116
 123 637 123 637 130.5 643.5 c 128,-1,117
 138 650 138 650 149 650 c 0,118,119
 163 650 163 650 163 641 c 2,120,-1
 163 628 l 2,121,122
 163 620 163 620 153 620 c 2,123,-1
 141 620 l 1,124,-1
 141 606 l 2,125,126
 141 595 141 595 158 595 c 0,127,128
 166 595 166 595 175 607 c 128,-1,129
 184 619 184 619 187 633 c 1,130,-1
 187 647 l 1,131,-1
 184 664 l 2,132,133
 184 668 184 668 176 679 c 0,134,135
 163 698 163 698 154 698 c 2,136,-1
 142 698 l 2,137,138
 122 698 122 698 108 674 c 0,139,140
 95 652 95 652 95 637 c 2,141,-1
 95 628 l 1,142,143
 81 546 81 546 81 356 c 0,144,145
 81 165 81 165 101 90 c 1,146,-1
 112 68 l 1,147,-1
 112 104 l 2,148,149
 112 135 112 135 147 166 c 1,150,151
 186 199 186 199 186 220 c 0,152,153
 186 239 186 239 161 246 c 1,154,-1
 147 243 l 2,155,156
 142 242 142 242 134 234.5 c 128,-1,157
 126 227 126 227 126 222 c 0,158,159
 126 211 126 211 134 211 c 1,160,161
 136 213 136 213 136.5 216 c 128,-1,162
 137 219 137 219 137 220.5 c 128,-1,163
 137 222 137 222 139 223 c 128,-1,164
 141 224 141 224 146 223 c 1,165,166
 147 221 147 221 151 218.5 c 128,-1,167
 155 216 155 216 157.5 213 c 128,-1,168
 160 210 160 210 160 207 c 0,169,170
 160 193 160 193 124 177 c 1,171,172
 121 171 121 171 121 169 c 0,173,174
 121 166 121 166 119 166 c 1,175,-1
 117 181 l 2,176,177
 117 188 117 188 115 200.5 c 128,-1,178
 113 213 113 213 113 221 c 0,179,180
 113 244 113 244 140 255 c 0,181,182
 146 257 146 257 149 257 c 2,183,-1
 159 260 l 1,184,185
 137 268 137 268 121 306 c 0,186,187
 117 314 117 314 117 320 c 2,188,-1
 117 350 l 1,189,-1
 145 402 l 1,190,-1
 145 416 l 1,191,192
 147 418 147 418 150 418 c 1,193,-1
 155 406 l 1,194,-1
 155 398 l 2,195,196
 155 390 155 390 148 382 c 0,197,198
 135 366 135 366 135 355 c 0,199,200
 135 347 135 347 139.5 333.5 c 128,-1,201
 144 320 144 320 144 315 c 1,202,-1
 146 313 l 1,203,204
 150 305 150 305 156 298 c 128,-1,205
 162 291 162 291 173.5 281 c 128,-1,206
 185 271 185 271 191 265 c 0,207,208
 199 257 199 257 199 245 c 2,209,-1
 199 214 l 1,210,-1
 189 189 l 1,211,212
 186 185 186 185 179 179 c 0,213,214
 161 163 161 163 143 141 c 1,215,-1
 161 141 l 2,216,217
 170 141 170 141 179 127 c 128,-1,218
 188 113 188 113 188 106 c 2,219,-1
 188 97 l 2,220,221
 188 96 188 96 186 96 c 1,222,223
 185 95 185 95 188 91 c 1,224,-1
 163 63 l 1,225,-1
 163 55 l 1,226,-1
 158.5 61 l 2,227,228
 154 67 154 67 148 76.5 c 128,-1,229
 142 86 142 86 139 90 c 1,230,-1
 139 103 l 1,27,28
EndSplineSet
AlternateSubs2: "'ss02' Cyrillic Equivalent Forms-1" uni041E
AlternateSubs2: "'salt' Stylistic Alternatives-1" uni004F.alt
EndChar

StartChar: uni0050
Encoding: 69 80 25
Width: 277
VWidth: 840
GlyphClass: 2
Flags: W
HStem: 0 16<35 59 109 141> 278 10<157 182.791> 296 35<160 173> 504 11<157.781 167> 543 9<160.35 176.781> 698 15<153.888 219.5>
VStem: 59 59<370.411 451.536> 59 50<16 386 424 634.816> 125 21<498.465 534 539 540.627> 148 22<164.108 222.614> 171 21<591.129 633.588> 178 16<525 542.375> 199 20<286.5 333.931> 227 41<523.774 676.534>
AnchorPoint: "Yerok" 238.5 776.724 basechar 0
AnchorPoint: "Diacritic" 168.5 794.724 basechar 0
LayerCount: 3
Fore
SplineSet
194 526 m 0xfcdc
 194 518 187 504 179 508 c 1
 166 504 l 1
 160 507 157 511 156 515 c 1
 167 515 l 1
 178 525 l 1
 178 534 l 2
 178 540 174 543 166 543 c 0
 153 543 146 533 146 513 c 0
 146 501 157 495 178 495 c 0xfcdc
 189 495 201 508 212 534 c 0
 222 557 227 573 227 582 c 0
 227 624 213 698 179 698 c 0
 154 698 136 683 123 653 c 0
 112 627 106 599 106 570 c 0
 106 553 108 539 108 522 c 2
 108 490 l 1
 109 470 110 448 110 424 c 1
 123 453 136 471 151 477 c 1
 134 488 125 504 125 523 c 2
 125 534 l 1
 129 539 l 1
 129 542 l 2
 129 554 147 570 150 575 c 0
 164 594 171 609 171 620 c 0
 171 623 170 628 167 636 c 1
 172 643 l 1
 182 643 192 609 192 606 c 0xfcec
 190 580 182 564 167 558 c 0
 162 556 160 554 160 552 c 1
 172 552 l 2
 182 552 194 535 194 526 c 0xfcdc
169 288 m 2
 183 288 199 305 199 319 c 0
 199 336 176 347 162 353 c 0
 135 364 117 375 109 386 c 1
 109 16 l 1
 141 16 l 1
 141 0 l 1
 35 0 l 1
 35 16 l 1
 59 16 l 1xfdec
 61 58 62 100 62 143 c 0
 62 265 59 210 59 385 c 0
 59 449 59 481 58 482 c 2
 58 482 58 482 58 491 c 0
 58 610 83 713 200 713 c 0
 239 713 268 656 268 611 c 0
 268 560 253 522 229 500 c 1
 208 482 188 477 157 462 c 0
 137 452 118 437 118 408 c 0
 118 384 134 367 155 367 c 1
 174 395 l 1
 175 401 170 408 164 405 c 1
 150 391 l 1
 143 393 l 1
 143 411 l 1
 153 422 l 1
 162 423 l 1
 178 423 191 409 191 394 c 0
 191 377 175 370 167 362 c 1
 204 347 219 335 219 289 c 0
 219 284 211 270 196 246 c 0
 181 223 173 211 171 208 c 1xfeec
 171 199 170 193 170 187 c 0
 170 181 171 175 177 163 c 1
 146 129 l 1
 160 163 l 1
 152 168 148 189 148 224 c 0
 148 236 157 250 176 266 c 0
 181 270 184 274 186 278 c 1
 160 278 l 2
 144 278 131 295 125 306 c 0
 118 318 115 330 115 343 c 0
 115 347 115 350 116 353 c 1
 120 357 l 1
 126 348 132 342 139 339 c 2
 157 331 l 2
 169 326 179 323 182 309 c 1
 173 296 l 1
 160 296 l 1
 148 308 l 1
 144 302 l 1
 157 288 l 1
 169 288 l 2
EndSplineSet
Validated: 1
Layer: 2
SplineSet
194 526 m 128,-1,1
 194 519 194 519 189.5 512 c 128,-1,2
 185 505 185 505 179 508 c 1,3,-1
 166 504 l 1,4,5
 158 508 158 508 156 515 c 1,6,-1
 167 515 l 1,7,-1
 178 525 l 1,8,-1
 178 534 l 2,9,10
 178 543 178 543 166 543 c 0,11,12
 146 543 146 543 146 513 c 0,13,14
 146 495 146 495 178 495 c 0,15,16
 196 495 196 495 212 534 c 0,17,18
 227 568.5 227 568.5 227 582 c 0,19,20
 227 621 227 621 214.5 659.5 c 128,-1,21
 202 698 202 698 179 698 c 0,22,23
 142 698 142 698 123 653 c 0,24,25
 106 613 106 613 106 570 c 0,26,27
 106 562 106 562 107 546 c 128,-1,28
 108 530 108 530 108 522 c 2,29,-1
 108 490 l 1,30,31
 110 450 110 450 110 424 c 1,32,33
 130 469 130 469 151 477 c 1,34,35
 125 494 125 494 125 523 c 2,36,-1
 125 534 l 1,37,-1
 129 539 l 1,38,-1
 129 542 l 2,39,40
 129 547 129 547 133.5 554 c 128,-1,41
 138 561 138 561 143.5 567.5 c 128,-1,42
 149 574 149 574 150 575 c 0,43,44
 171 603.5 171 603.5 171 620 c 0,45,46
 171 625 171 625 167 636 c 1,47,-1
 172 643 l 1,48,49
 178 643 178 643 185 627 c 128,-1,50
 192 611 192 611 192 606 c 0,51,52
 189 567 189 567 167 558 c 0,53,54
 160 555 160 555 160 552 c 1,55,-1
 172 552 l 2,56,57
 179 552 179 552 186.5 542.5 c 128,-1,0
 194 533 194 533 194 526 c 128,-1,1
169 288 m 2,58,59
 179 288 179 288 189 298 c 128,-1,60
 199 308 199 308 199 319 c 0,61,62
 199 337 199 337 162 353 c 0,63,64
 121 370 121 370 109 386 c 1,65,-1
 109 16 l 1,66,-1
 141 16 l 1,67,-1
 141 0 l 1,68,-1
 35 0 l 1,69,-1
 35 16 l 1,70,-1
 59 16 l 1,71,72
 62 79 62 79 62 143 c 0,73,74
 62 197 62 197 60.5 244 c 128,-1,75
 59 291 59 291 59 385 c 0,76,77
 59 481 59 481 58 482 c 1,78,-1
 58 491 l 2,79,80
 58 540 58 540 64 576.5 c 128,-1,81
 70 613 70 613 85 645.5 c 128,-1,82
 100 678 100 678 129 695.5 c 128,-1,83
 158 713 158 713 200 713 c 0,84,85
 228 713 228 713 248 680 c 128,-1,86
 268 647 268 647 268 611 c 0,87,88
 268 536 268 536 229 500 c 0,89,90
 219 492 219 492 209.5 486.5 c 128,-1,91
 200 481 200 481 183 473.5 c 128,-1,92
 166 466 166 466 157 462 c 0,93,94
 118 442 118 442 118 408 c 0,95,96
 118 390 118 390 128.5 378.5 c 128,-1,97
 139 367 139 367 155 367 c 1,98,-1
 174 395 l 1,99,100
 175 400 175 400 171.5 403.5 c 128,-1,101
 168 407 168 407 164 405 c 1,102,-1
 150 391 l 1,103,-1
 143 393 l 1,104,-1
 143 411 l 1,105,-1
 153 422 l 1,106,-1
 162 423 l 1,107,108
 174 423 174 423 182.5 414 c 128,-1,109
 191 405 191 405 191 394 c 0,110,111
 191 386 191 386 187.5 380.5 c 128,-1,112
 184 375 184 375 176 369 c 128,-1,113
 168 363 168 363 167 362 c 1,114,115
 197 350 197 350 208 336 c 128,-1,116
 219 322 219 322 219 289 c 0,117,118
 219 283 219 283 196 246 c 0,119,120
 181 223 181 223 171 208 c 1,121,122
 171 203 171 203 170.5 196.5 c 128,-1,123
 170 190 170 190 170 187 c 0,124,125
 170 177 170 177 177 163 c 1,126,-1
 146 129 l 1,127,-1
 160 163 l 1,128,129
 148 171 148 171 148 224 c 0,130,131
 148 242 148 242 176 266 c 0,132,133
 183 271 183 271 186 278 c 1,134,-1
 160 278 l 2,135,136
 140 278 140 278 125 306 c 0,137,138
 115 323 115 323 115 343 c 0,139,140
 115 350 115 350 116 353 c 1,141,-1
 120 357 l 1,142,143
 129 343 129 343 139 339 c 2,144,-1
 157 331 l 2,145,146
 179 322 179 322 182 309 c 1,147,-1
 173 296 l 1,148,-1
 160 296 l 1,149,-1
 148 308 l 1,150,-1
 144 302 l 1,151,-1
 157 288 l 1,152,-1
 169 288 l 2,58,59
EndSplineSet
AlternateSubs2: "'ss02' Cyrillic Equivalent Forms-1" uni0420
EndChar

StartChar: uni0051
Encoding: 70 81 26
Width: 311
VWidth: 838
GlyphClass: 2
Flags: W
HStem: -20 48<229.115 252> 6 22<145.938 177.905> 134 12<145.096 163> 580 12<143.424 160> 617 30<142.306 163.996> 695 24<132.635 171.656>
VStem: 37 44<185.96 582.462> 114 13<200.921 237.851> 119 42<189.134 226.418> 119 17<113 118.906 323.81 355 499 534.578> 140 13<102 116.669> 147 10<407 421.69> 160 40<494 506> 187 13<206.119 242.526 605.764 666.767> 229 48<-9.85791 19.8587> 246 44<209.343 573.884>
DStem2: 124 143 145 146 0.672673 0.73994<-15.3777 -7.38469 -2.21123 10.4283 16.3459 102.739>
AnchorPoint: "Yerok" 255.4 753.592 basechar 0
AnchorPoint: "Diacritic" 165.4 793.592 basechar 0
LayerCount: 3
Fore
SplineSet
140 108 m 2x7e64
 140 111 144 117 148 117 c 0
 151 117 153 116 153 115 c 2
 153 110 l 1
 154 102 l 1
 160 101 l 1x7e28
 165 102 168 106 169 115 c 1
 168 122 l 1
 163 134 l 1
 151 134 l 2
 149 134 146 132 143 129 c 0
 137 123 137 123 133 119 c 0
 132 117 132 115 132 113 c 0
 131 110 131 110 130 107 c 2
 127 78 l 1
 129 67 l 1
 133 55 148 28 165 28 c 1
 181 33 194 53 205 88 c 0
 219 132 217 117 232 180 c 0
 240 218 246 298 246 357 c 2
 246 357 246 357 246 367 c 0
 246 384 245 417 242 466 c 0
 235 583 218 653 191 675 c 1
 200 646 l 1
 200 622 l 2x7f05
 200 616 206 600 204 593 c 0
 201 583 183 572 173 565 c 0
 153 552 141 535 136 514 c 1
 136 499 l 1
 138 495 138 495 142 487 c 0
 144 482 146 480 149 481 c 1
 160 494 l 1
 160 506 l 1
 151 523 l 2
 151 525 152 526 154 526 c 2
 160 524 l 1x7e48
 162 525 166 523 173 520 c 1
 173 534 l 1
 176 555 183 565 193 565 c 0
 196 565 197 564 197 562 c 2
 193 546 l 1
 197 516 l 1
 200 509 l 1
 200 492 l 2
 200 488 195 482 185 473 c 0
 175 464 169 460 168 461 c 2
 147 461 l 2x7e14
 134 461 119 478 119 500 c 2
 119 513 l 1
 122 545 142 563 160 580 c 1
 140 580 l 1
 135 581 124 593 124 599 c 2
 124 624 l 2
 124 638 136 647 151 647 c 0
 160 647 164 644 164 638 c 2
 164 625 l 2
 164 620 159 617 154 617 c 2
 142 617 l 1
 142 603 l 2
 142 596 148 592 160 592 c 0x7e68
 175 592 184 605 188 630 c 1
 188 645 l 1
 185 661 l 2
 185 664 182 669 177 676 c 0
 168 689 160 695 155 695 c 2
 144 695 l 2
 123 695 96 658 96 634 c 2
 96 625 l 1
 86 567 81 490 81 393 c 0
 81 297 86 156 102 95 c 1
 113 73 l 1
 113 109 l 2
 113 122 117 134 124 143 c 2
 124 143 124 143 149 170 c 0
 158 179 166 189 174 198 c 0
 183 207 187 216 187 225 c 0
 187 243 176 247 162 251 c 1
 148 248 l 2
 141 247 127 234 127 226 c 0x7f04
 127 219 128 216 136 216 c 1
 139 221 137 231 147 228 c 1x7e50
 149 226 161 219 161 212 c 0x7e80
 161 198 135 186 126 182 c 1
 125 180 123 171 119 171 c 1
 119 185 l 2x7e40
 119 200 114 211 114 222 c 0x7f
 114 236 119 245 129 252 c 0
 138 258 145 261 150 262 c 2
 161 265 l 1x7e80
 147 270 134 285 123 311 c 0
 120 317 119 322 119 325 c 2
 119 355 l 1
 147 407 l 1
 147 421 l 2
 148 422 149 423 150 423 c 0
 152 423 154 419 157 411 c 1
 157 403 l 2x7e50
 157 398 154 393 149 387 c 0
 140 378 136 369 136 360 c 0
 136 348 144 331 145 320 c 1
 146 319 148 317 149 313 c 0
 152 305 168 293 176 286 c 0
 192 273 200 261 200 250 c 2
 200 219 l 1
 193 201 187 190 182 185 c 0
 170 175 158 162 145 146 c 1
 162 146 l 2
 175 146 189 120 189 111 c 2
 189 102 l 2
 189 101 188 100 187 100 c 0
 186 100 187 99 189 96 c 1
 164 68 l 1
 164 60 l 1
 155 61 149 70 146 86 c 0
 145 89 144 92 142 95 c 1
 140 108 l 2x7e64
277 0 m 0x7e02
 277 -8 264 -20 256 -20 c 0
 249 -20 249 -20 247 -20 c 1xbe02
 246 -21 243 -22 240 -22 c 0
 230 -22 209 -12 178 7 c 1
 176 6 172 6 166 6 c 0
 165 6 164 6 163 6 c 0
 140 6 118 22 97 55 c 0
 57 118 37 219 37 358 c 0
 37 366 37 366 37 373 c 0
 37 423 40 488 47 568 c 0
 50 599 61 629 82 659 c 0
 107 695 135 715 167 719 c 1
 175 719 l 1
 175 718 176 716 179 715 c 2
 212 701 l 1
 237 684 255 656 267 617 c 1
 282 539 290 472 290 416 c 0x7e01
 290 342 284 255 273 154 c 1
 268 139 261 117 250 87 c 0
 242 64 229 44 210 25 c 1
 211 23 215 11 216 9 c 0
 219 2 225 -4 234 -10 c 1
 231 -7 229 -2 229 4 c 0
 229 16 239 28 252 28 c 1xbe02
 252 41 251 46 251 52 c 0
 251 56 252 61 256 71 c 0
 259 78 264 83 271 88 c 0
 276 91 284 99 296 112 c 1
 272 56 l 1
 276 20 l 1
 279 17 279 13 278 10 c 0
 277 7 276 6 277 6 c 0
 279 6 277 4 277 0 c 0x7e02
EndSplineSet
Validated: 1
Layer: 2
SplineSet
140 108 m 2,0,1
 140 110 140 110 142.5 113.5 c 128,-1,2
 145 117 145 117 148 117 c 0,3,4
 153 117 153 117 153 115 c 2,5,-1
 153 110 l 1,6,-1
 154 102 l 1,7,-1
 160 101 l 1,8,9
 168 103 168 103 169 115 c 1,10,-1
 168 122 l 1,11,-1
 163 134 l 1,12,-1
 151 134 l 2,13,14
 148 134 148 134 143 129 c 2,15,-1
 133 119 l 2,16,17
 132 117 132 117 132 113 c 1,18,19
 130 107 l 1,20,-1
 127 78 l 1,21,-1
 129 67 l 1,22,23
 133 55 133 55 143.5 41.5 c 128,-1,24
 154 28 154 28 165 28 c 1,25,26
 188 35 188 35 205 88 c 0,27,28
 225 152 225 152 232 180 c 1,29,30
 246 247 246 247 246 357 c 2,31,-1
 246 367 l 2,32,33
 246 401 246 401 242 466 c 0,34,35
 231 642 231 642 191 675 c 1,36,-1
 200 646 l 1,37,-1
 200 622 l 2,38,39
 200 620 200 620 202.5 608.5 c 128,-1,40
 205 597 205 597 204 593 c 0,41,42
 202 585 202 585 173 565 c 0,43,44
 144 546 144 546 136 514 c 1,45,-1
 136 499 l 1,46,-1
 142 487 l 2,47,48
 145 480 145 480 149 481 c 1,49,-1
 160 494 l 1,50,-1
 160 506 l 1,51,-1
 151 523 l 1,52,53
 151 526 151 526 154 526 c 2,54,-1
 160 524 l 1,55,56
 162 525 162 525 173 520 c 1,57,-1
 173 534 l 1,58,59
 177 565 177 565 193 565 c 0,60,61
 197 565 197 565 197 562 c 2,62,-1
 193 546 l 1,63,-1
 197 516 l 1,64,-1
 200 509 l 1,65,-1
 200 492 l 2,66,67
 200 487 200 487 185 473 c 128,-1,68
 170 459 170 459 168 461 c 1,69,-1
 147 461 l 2,70,71
 137 461 137 461 128 472.5 c 128,-1,72
 119 484 119 484 119 500 c 2,73,-1
 119 513 l 1,74,75
 122 544 122 544 160 580 c 1,76,-1
 140 580 l 1,77,78
 136 581 136 581 130 588 c 128,-1,79
 124 595 124 595 124 599 c 2,80,-1
 124 624 l 2,81,82
 124 634 124 634 131.5 640.5 c 128,-1,83
 139 647 139 647 151 647 c 0,84,85
 164 647 164 647 164 638 c 2,86,-1
 164 625 l 2,87,88
 164 617 164 617 154 617 c 2,89,-1
 142 617 l 1,90,-1
 142 603 l 2,91,92
 142 592 142 592 160 592 c 0,93,94
 182 592 182 592 188 630 c 1,95,-1
 188 645 l 1,96,-1
 185 661 l 2,97,98
 185 665 185 665 177 676 c 0,99,100
 164 695 164 695 155 695 c 2,101,-1
 144 695 l 2,102,103
 129 695 129 695 112.5 673.5 c 128,-1,104
 96 652 96 652 96 634 c 2,105,-1
 96 625 l 1,106,107
 81 538 81 538 81 393 c 0,108,109
 81 175 81 175 102 95 c 1,110,-1
 113 73 l 1,111,-1
 113 109 l 2,112,113
 113 129 113 129 124 143 c 1,114,-1
 149 170 l 2,115,116
 150 171 150 171 174 198 c 1,117,118
 187 211 187 211 187 225 c 0,119,120
 187 244 187 244 162 251 c 1,121,-1
 148 248 l 2,122,123
 142 247 142 247 134.5 239.5 c 128,-1,124
 127 232 127 232 127 226 c 0,125,126
 127 216 127 216 136 216 c 1,127,128
 137 217 137 217 137.5 220 c 128,-1,129
 138 223 138 223 138.5 225 c 128,-1,130
 139 227 139 227 141.5 228.5 c 128,-1,131
 144 230 144 230 147 228 c 2,132,-1
 151 225 l 2,133,134
 155 222 155 222 158 218.5 c 128,-1,135
 161 215 161 215 161 212 c 0,136,137
 161 198 161 198 126 182 c 1,138,139
 120 171 120 171 119 171 c 1,140,-1
 119 185 l 2,141,142
 119 193 119 193 116.5 205 c 128,-1,143
 114 217 114 217 114 222 c 0,144,145
 114 242 114 242 129 252 c 0,146,147
 141 260 141 260 150 262 c 2,148,-1
 161 265 l 1,149,150
 139 273 139 273 123 311 c 0,151,152
 119 319 119 319 119 325 c 2,153,-1
 119 355 l 1,154,-1
 147 407 l 1,155,-1
 147 421 l 1,156,157
 149 423 149 423 150 423 c 0,158,159
 152 423 152 423 157 411 c 1,160,-1
 157 403 l 2,161,162
 157 397 157 397 149 387 c 1,163,164
 136 374 136 374 136 360 c 0,165,166
 136 353 136 353 140.5 339 c 128,-1,167
 145 325 145 325 145 320 c 1,168,169
 148 317 148 317 149 313 c 0,170,171
 151 308 151 308 176 286 c 1,172,173
 200 266.5 200 266.5 200 250 c 2,174,-1
 200 219 l 1,175,176
 190 193 190 193 182 185 c 0,177,178
 166 171 166 171 145 146 c 1,179,-1
 162 146 l 2,180,181
 171 146 171 146 180 132.5 c 128,-1,182
 189 119 189 119 189 111 c 2,183,-1
 189 102 l 2,184,185
 189 100 189 100 187 100 c 0,186,187
 186.333 100 186.333 100 189 96 c 1,188,-1
 164 68 l 1,189,-1
 164 60 l 1,190,191
 151 61 151 61 146 86 c 0,192,193
 144 92 144 92 142 95 c 1,194,-1
 140 108 l 2,0,1
277 0 m 2,195,196
 277 -6 277 -6 269.5 -13 c 128,-1,197
 262 -20 262 -20 256 -20 c 2,198,-1
 247 -20 l 1,199,200
 245 -22 245 -22 240 -22 c 0,201,202
 225 -22 225 -22 178 7 c 1,203,204
 176 6 176 6 166 6 c 2,205,-1
 163 6 l 2,206,207
 128 6 128 6 97 55 c 0,208,209
 37 149.5 37 149.5 37 358 c 2,210,-1
 37 373 l 2,211,212
 37 454 37 454 47 568 c 0,213,214
 52 616 52 616 82 659 c 0,215,216
 120 713 120 713 167 719 c 1,217,-1
 175 719 l 1,218,219
 175 716 175 716 179 715 c 2,220,-1
 212 701 l 1,221,222
 249 676 249 676 267 617 c 1,223,224
 290 497 290 497 290 416 c 0,225,226
 290 310 290 310 273 154 c 1,227,228
 257 107 257 107 250 87 c 0,229,230
 238 53 238 53 210 25 c 0,231,232
 210 24 210 24 212.5 17 c 128,-1,233
 215 10 215 10 216 9 c 0,234,235
 220 -1 220 -1 234 -10 c 1,236,237
 229 -5 229 -5 229 4 c 128,-1,238
 229 13 229 13 236 20.5 c 128,-1,239
 243 28 243 28 252 28 c 1,240,241
 252 35 252 35 251.5 42.5 c 128,-1,242
 251 50 251 50 251 52 c 0,243,244
 251 58 251 58 256 71 c 0,245,246
 260 80 260 80 271 88 c 0,247,248
 277 92 277 92 296 112 c 1,249,-1
 272 56 l 1,250,-1
 276 20 l 1,251,252
 280 16 280 16 278 10 c 0,253,254
 276.667 6 276.667 6 277 6 c 2,255,-1
 277 0 l 2,195,196
EndSplineSet
EndChar

StartChar: uni0052
Encoding: 71 82 27
Width: 280
VWidth: 842
GlyphClass: 2
Flags: W
HStem: 0 16<36 64 107.921 134 176 199 248 274> 355 14<164.826 185> 695 16<160.7 208.368>
VStem: 57 47<21.0498 573.655> 120 19<542 583.709> 129 11<405.734 453.998> 200 49<16.1406 257.739> 227 37<564.476 683.125>
AnchorPoint: "Yerok" 244 772.902 basechar 0
AnchorPoint: "Diacritic" 176 796.902 basechar 0
LayerCount: 3
Fore
SplineSet
157 355 m 1xf6
 134 380 129 389 129 418 c 0xf6
 129 432 131 448 135 465 c 1
 118 456 l 1
 120 475 l 1
 157 508 l 1
 123 539 l 1
 120 566 l 1
 120 567 120 569 120 570 c 0
 120 583 131 598 134 605 c 1
 168 622 l 1
 183 620 l 1
 201 595 l 1
 171 561 l 1
 169 571 l 2
 167 582 166 592 160 600 c 1
 146 584 139 568 139 552 c 1
 142 542 l 1
 167 524 l 1
 180 524 l 1
 179 515 181 514 186 520 c 0
 189 523 195 533 202 548 c 0
 210 566 227 613 227 642 c 0xf9
 227 672 214 695 182 695 c 0
 178 695 178 695 172 695 c 1
 159 684 145 682 131 673 c 0
 113 661 104 642 104 615 c 2
 104 407 l 2
 104 390 108 375 116 362 c 0
 131 337 146 325 160 325 c 1
 159 319 157 315 155 311 c 1
 181 285 209 270 238 265 c 1
 238 157 240 91 244 66 c 0
 247 49 249 36 249 27 c 0
 249 22 249 19 248 16 c 1
 274 16 l 1
 274 0 l 1
 176 0 l 1
 176 16 l 1
 199 16 l 1
 200 61 200 87 200 93 c 0xf2
 199 118 198 141 198 160 c 0
 198 172 197 185 194 198 c 0
 192 211 191 232 191 259 c 1
 142 301 l 1
 131 297 l 1
 119 297 130 310 132 312 c 1
 102 357 l 1
 105 207 106 116 106 83 c 0
 106 42 107 20 110 16 c 1
 134 16 l 1
 134 0 l 1
 36 0 l 1
 36 16 l 1
 63 16 l 1
 64 19 64 20 64 21 c 0
 63 22 63 27 62 34 c 0
 61 41 61 53 61 69 c 0
 57 138 57 160 57 219 c 0
 57 251 57 293 57 360 c 0
 57 443 59 506 63 551 c 0
 67 597 75 631 87 653 c 0
 106 688 125 711 171 711 c 2
 195 711 l 2
 226 711 264 673 264 643 c 0xf1
 264 580 243 535 200 508 c 0
 175 492 158 477 150 463 c 0
 143 452 140 438 140 423 c 0
 140 420 140 420 140 416 c 1
 149 396 160 380 171 369 c 1
 185 369 l 1
 209 385 l 1
 209 406 l 1
 204 410 198 400 202 396 c 1
 183 389 l 1
 175 401 l 1
 183 419 192 453 203 471 c 1
 218 454 228 432 232 407 c 0
 233 399 233 392 231 385 c 1
 199 355 l 1
 185 355 171 355 157 355 c 1xf6
EndSplineSet
Validated: 1
Layer: 2
SplineSet
157 355 m 1,0,1
 139 374 139 374 134 385.5 c 128,-1,2
 129 397 129 397 129 418 c 0,3,4
 129 440 129 440 135 465 c 1,5,-1
 118 456 l 1,6,-1
 120 475 l 1,7,-1
 157 508 l 1,8,-1
 123 539 l 1,9,-1
 120 566 l 1,10,-1
 120 570 l 2,11,12
 120 576 120 576 122.5 582.5 c 128,-1,13
 125 589 125 589 129 596 c 128,-1,14
 133 603 133 603 134 605 c 1,15,-1
 168 622 l 1,16,-1
 183 620 l 1,17,-1
 201 595 l 1,18,-1
 171 561 l 1,19,-1
 169 571 l 2,20,21
 165 593 165 593 160 600 c 1,22,23
 139 576 139 576 139 552 c 1,24,-1
 142 542 l 1,25,-1
 167 524 l 1,26,-1
 180 524 l 1,27,28
 179 517 179 517 180.5 516 c 128,-1,29
 182 515 182 515 186 520 c 0,30,31
 191 526 191 526 202 548 c 1,32,33
 227 604 227 604 227 642 c 0,34,35
 227 695 227 695 182 695 c 2,36,-1
 172 695 l 1,37,38
 165 689 165 689 151 683 c 128,-1,39
 137 677 137 677 131 673 c 0,40,41
 104 655 104 655 104 615 c 2,42,-1
 104 407 l 2,43,44
 104 381.5 104 381.5 116 362 c 0,45,46
 138 325 138 325 160 325 c 1,47,48
 159 319 159 319 155 311 c 1,49,50
 193 273 193 273 238 265 c 1,51,52
 238 104 238 104 244 66 c 0,53,54
 249 38 249 38 249 27 c 0,55,56
 249 19 249 19 248 16 c 1,57,-1
 274 16 l 1,58,-1
 274 0 l 1,59,-1
 176 0 l 1,60,-1
 176 16 l 1,61,-1
 199 16 l 1,62,63
 200 61 200 61 200 93 c 1,64,65
 198 143 198 143 198 160 c 0,66,67
 198 181 198 181 194 198 c 1,68,69
 191 218 191 218 191 259 c 1,70,-1
 142 301 l 1,71,-1
 131 297 l 1,72,73
 127 297 127 297 126 299 c 128,-1,74
 125 301 125 301 126.5 304 c 128,-1,75
 128 307 128 307 129.5 309 c 128,-1,76
 131 311 131 311 132 312 c 1,77,-1
 102 357 l 1,78,79
 106 157 106 157 106 83 c 0,80,81
 106 21 106 21 110 16 c 1,82,-1
 134 16 l 1,83,-1
 134 0 l 1,84,-1
 36 0 l 1,85,-1
 36 16 l 1,86,-1
 63 16 l 1,87,88
 64 19 64 19 64 21 c 2,89,-1
 62 34 l 2,90,91
 61 41 61 41 61 69 c 1,92,93
 57 138 57 138 57 219 c 2,94,-1
 57 360 l 2,95,96
 57 484 57 484 63 551 c 0,97,98
 69 620 69 620 87 653 c 0,99,100
 103 683 103 683 121 697 c 128,-1,101
 139 711 139 711 171 711 c 2,102,-1
 195 711 l 2,103,104
 218 711 218 711 241 688.5 c 128,-1,105
 264 666 264 666 264 643 c 0,106,107
 264 548 264 548 200 508 c 1,108,109
 162 483 162 483 150 463 c 0,110,111
 140 447 140 447 140 423 c 2,112,-1
 140 416 l 1,113,114
 153 387 153 387 171 369 c 1,115,-1
 185 369 l 1,116,-1
 209 385 l 1,117,-1
 209 406 l 1,118,119
 207 408 207 408 204 406 c 128,-1,120
 201 404 201 404 200.5 401 c 128,-1,121
 200 398 200 398 202 396 c 1,122,-1
 183 389 l 1,123,-1
 175 401 l 1,124,125
 177 406 177 406 187 433.5 c 128,-1,126
 197 461 197 461 203 471 c 1,127,128
 226 445 226 445 232 407 c 0,129,130
 234 394 234 394 231 385 c 1,131,-1
 199 355 l 1,132,-1
 157 355 l 1,0,1
EndSplineSet
EndChar

StartChar: uni0053
Encoding: 72 83 28
Width: 309
VWidth: 840
GlyphClass: 2
Flags: W
HStem: 3 21<152.882 221.861> 83 19<226.176 234> 200 8<118.138 178.016> 477 14<160 172.872> 510 21<154.239 188.58> 573 67<169 190.388> 696 19<158 164.379>
VStem: 50 35<81.66 187.235 497.713 623.974> 71 6<401.87 417> 105 20<557.614 606.042> 123 36<133.329 147.609> 127 16<291 299> 188 11<434.265 479.959> 219 45<448.25 466.526 537.155 659.555> 251 11<433.25 444> 275 25<93.7377 189.898>
AnchorPoint: "Yerok" 233.603 750.513 basechar 0
AnchorPoint: "Diacritic" 157.603 790.513 basechar 0
LayerCount: 3
Fore
SplineSet
152 640 m 0xfe4b
 170 640 193 628 193 607 c 0
 193 584 186 573 171 573 c 0
 169 573 166 574 161 577 c 1
 155 576 l 1
 147 584 l 1
 151 591 l 1
 158 594 l 1
 171 615 l 1
 163 619 l 1
 155 616 146 612 136 607 c 0
 129 603 125 595 125 582 c 0
 125 579 129 569 137 553 c 1
 148 546 161 531 178 531 c 0
 198 531 204 541 211 553 c 0
 216 563 219 577 219 594 c 0
 219 644 209 654 178 673 c 0
 168 679 157 686 145 693 c 1
 104 688 84 637 84 580 c 0
 84 523 112 471 140 436 c 0
 197 364 300 280 300 170 c 0
 300 81 257 3 173 3 c 0
 142 3 112 18 85 49 c 0
 62 75 50 106 50 142 c 0xff4d
 50 157 54 172 62 185 c 0
 72 203 101 236 115 257 c 0
 123 269 127 283 127 299 c 1
 108 331 l 1
 105 333 l 1
 82 321 l 1
 78 309 l 1
 84 297 l 1
 93 302 l 1
 92 305 l 1
 99 314 l 1
 108 305 l 1
 98 287 l 1
 89 284 83 283 79 284 c 2
 73 284 l 1
 67 289 l 1
 65 296 63 301 63 310 c 0
 63 325 80 340 92 343 c 1
 71 378 l 1
 71 417 l 1
 77 420 l 1
 77 385 109 349 133 313 c 0
 140 303 143 296 143 291 c 1
 168 301 l 1
 179 294 l 1
 172 280 l 1
 166 286 l 1
 143 275 127 255 117 227 c 0
 114 220 110 211 105 200 c 1
 106 200 l 1
 119 205 132 208 146 208 c 0
 208 208 205 136 232 102 c 1
 234 102 l 1
 242 117 l 1
 251 122 258 130 262 141 c 1xfedb
 263 136 l 1
 257 116 253 98 241 83 c 1
 231 83 l 1
 223 84 l 1
 223 84 223 84 215 86 c 1
 203 105 l 1
 193 90 175 85 156 79 c 1
 136 86 126 104 126 133 c 0
 126 140 125 148 123 155 c 1
 126 159 l 1
 141 150 152 138 159 123 c 1
 154 112 l 1
 159 106 l 1
 177 106 186 127 186 153 c 0
 186 178 150 200 132 200 c 0
 103 200 85 171 85 144 c 0
 85 116 86 128 91 108 c 1
 91 107 l 1
 101 69 131 49 157 27 c 1
 164 26 164 26 171 25 c 0
 176 24 182 24 191 24 c 0
 216 24 238 43 250 58 c 0
 267 79 275 102 275 127 c 0
 275 186 242 237 218 270 c 0
 187 312 144 363 112 408 c 0
 74 463 55 515 55 564 c 0
 55 595 65 627 84 659 c 0
 107 696 132 715 159 715 c 0
 188 715 212 704 233 681 c 0
 254 658 264 635 264 612 c 0xff2d
 264 566 252 549 231 522 c 0
 225 513 199 482 199 459 c 0
 199 431 207 417 224 417 c 0
 235 417 249 432 249 444 c 1
 246 453 l 1
 231 434 l 1
 226 436 l 1
 220 461 l 1
 238 476 l 1
 257 476 266 472 266 452 c 0
 266 436 257 420 239 404 c 1
 234 405 l 1
 231 404 l 1
 241 398 262 391 262 376 c 0
 262 362 251 344 251 331 c 1
 236 367 220 386 203 413 c 0
 196 423 188 446 188 469 c 0
 188 474 188 478 189 483 c 1
 188 483 l 1
 178 479 l 1
 176 480 l 1
 165 477 l 1
 155 485 l 1
 153 491 l 1
 166 493 178 499 189 510 c 1
 133 510 105 533 105 580 c 0
 105 607 135 640 152 640 c 0xfe4b
165 696 m 1
 158 696 l 1
 158 695 l 1
 165 695 l 1
 165 696 l 1
EndSplineSet
Validated: 1
Layer: 2
SplineSet
152 640 m 0,0,1
 167 640 167 640 180 631 c 128,-1,2
 193 622 193 622 193 607 c 0,3,4
 193 573 193 573 171 573 c 0,5,6
 168 573 168 573 161 577 c 1,7,-1
 155 576 l 1,8,-1
 147 584 l 1,9,-1
 151 591 l 1,10,-1
 158 594 l 1,11,-1
 171 615 l 1,12,-1
 163 619 l 1,13,14
 151 614.5 151 614.5 136 607 c 0,15,16
 125 601 125 601 125 582 c 0,17,18
 125 577 125 577 137 553 c 1,19,20
 139 552 139 552 147.5 545 c 128,-1,21
 156 538 156 538 163 534.5 c 128,-1,22
 170 531 170 531 178 531 c 0,23,24
 198 531 198 531 211 553 c 1,25,26
 219 569 219 569 219 594 c 0,27,28
 219 630 219 630 211 644 c 128,-1,29
 203 658 203 658 178 673 c 0,30,31
 175 675 175 675 163.5 682 c 128,-1,32
 152 689 152 689 145 693 c 1,33,34
 116 689 116 689 100 657 c 128,-1,35
 84 625 84 625 84 580 c 0,36,37
 84 506 84 506 140 436 c 0,38,39
 152 421 152 421 187.5 381 c 128,-1,40
 223 341 223 341 243 315.5 c 128,-1,41
 263 290 263 290 281.5 249 c 128,-1,42
 300 208 300 208 300 170 c 0,43,44
 300 99 300 99 266.5 51 c 128,-1,45
 233 3 233 3 173 3 c 0,46,47
 125 3 125 3 85 49 c 0,48,49
 50 89 50 89 50 142 c 0,50,51
 50 166 50 166 62 185 c 0,52,53
 68 195 68 195 88.5 221.5 c 128,-1,54
 109 248 109 248 115 257 c 0,55,56
 127 275 127 275 127 299 c 1,57,-1
 108 331 l 1,58,-1
 105 333 l 1,59,-1
 82 321 l 1,60,-1
 78 309 l 1,61,-1
 84 297 l 1,62,-1
 93 302 l 1,63,-1
 92 305 l 1,64,-1
 99 314 l 1,65,-1
 108 305 l 1,66,-1
 98 287 l 1,67,68
 85 283 85 283 79 284 c 1,69,-1
 73 284 l 1,70,-1
 67 289 l 1,71,72
 63 303 63 303 63 310 c 0,73,74
 63 321 63 321 72.5 331 c 128,-1,75
 82 341 82 341 92 343 c 1,76,-1
 71 378 l 1,77,-1
 71 417 l 1,78,-1
 77 420 l 1,79,80
 77 408 77 408 83 392.5 c 128,-1,81
 89 377 89 377 95 368 c 128,-1,82
 101 359 101 359 115 339 c 128,-1,83
 129 319 129 319 133 313 c 0,84,85
 143 299 143 299 143 291 c 1,86,-1
 168 301 l 1,87,-1
 179 294 l 1,88,-1
 172 280 l 1,89,-1
 166 286 l 1,90,91
 132 270 132 270 117 227 c 0,92,93
 112.5 216.5 112.5 216.5 105 200 c 1,94,-1
 106 200 l 1,95,96
 127 208 127 208 146 208 c 0,97,98
 174 208 174 208 188.5 190 c 128,-1,99
 203 172 203 172 213 142.5 c 128,-1,100
 223 113 223 113 232 102 c 1,101,-1
 234 102 l 1,102,-1
 242 117 l 1,103,104
 256 125 256 125 262 141 c 1,105,-1
 263 136 l 1,106,107
 251 95 251 95 241 83 c 1,108,-1
 231 83 l 1,109,-1
 223 84 l 1,110,-1
 215 86 l 1,111,-1
 203 105 l 1,112,113
 194 91 194 91 156 79 c 1,114,115
 126 89.5 126 89.5 126 133 c 0,116,117
 126 144 126 144 123 155 c 1,118,-1
 126 159 l 1,119,120
 148.5 145.5 148.5 145.5 159 123 c 1,121,-1
 154 112 l 1,122,-1
 159 106 l 1,123,124
 186 106 186 106 186 153 c 0,125,126
 186 170 186 170 166.5 185 c 128,-1,127
 147 200 147 200 132 200 c 0,128,129
 111 200 111 200 98 183 c 128,-1,130
 85 166 85 166 85 144 c 0,131,132
 85 134 85 134 85.5 129.5 c 128,-1,133
 86 125 86 125 86.5 123.5 c 128,-1,134
 87 122 87 122 88.5 118 c 128,-1,135
 90 114 90 114 91 108 c 1,136,-1
 91 107 l 1,137,138
 93 98 93 98 97.5 89 c 128,-1,139
 102 80 102 80 106 74.5 c 128,-1,140
 110 69 110 69 118 61 c 128,-1,141
 126 53 126 53 130 49.5 c 128,-1,142
 134 46 134 46 144 37.5 c 128,-1,143
 154 29 154 29 157 27 c 1,144,-1
 171 25 l 2,145,146
 176 24 176 24 191 24 c 0,147,148
 223 24 223 24 250 58 c 0,149,150
 275 89 275 89 275 127 c 0,151,152
 275 192 275 192 218 270 c 0,153,154
 205 288 205 288 167.5 335.5 c 128,-1,155
 130 383 130 383 112 408 c 0,156,157
 55 490.5 55 490.5 55 564 c 0,158,159
 55 610 55 610 84 659 c 1,160,161
 119 715 119 715 159 715 c 0,162,163
 202 715 202 715 233 681 c 128,-1,164
 264 647 264 647 264 612 c 0,165,166
 264 580 264 580 256.5 563 c 128,-1,167
 249 546 249 546 231 522 c 2,168,-1
 224 512 l 2,169,170
 217 502 217 502 212.5 495 c 128,-1,171
 208 488 208 488 203.5 477.5 c 128,-1,172
 199 467 199 467 199 459 c 0,173,174
 199 417 199 417 224 417 c 0,175,176
 232 417 232 417 240.5 426 c 128,-1,177
 249 435 249 435 249 444 c 1,178,-1
 246 453 l 1,179,-1
 231 434 l 1,180,-1
 226 436 l 1,181,-1
 220 461 l 1,182,-1
 238 476 l 1,183,184
 253 476 253 476 259.5 471 c 128,-1,185
 266 466 266 466 266 452 c 0,186,187
 266 428 266 428 239 404 c 1,188,-1
 234 405 l 1,189,-1
 231 404 l 1,190,191
 233 403 233 403 240 399.5 c 128,-1,192
 247 396 247 396 250.5 393.5 c 128,-1,193
 254 391 254 391 258 386 c 128,-1,194
 262 381 262 381 262 376 c 0,195,196
 262 369 262 369 256.5 353 c 128,-1,197
 251 337 251 337 251 331 c 1,198,199
 244 347 244 347 237 360 c 128,-1,200
 230 373 230 373 218 390.5 c 128,-1,201
 206 408 206 408 203 413 c 0,202,203
 188 434 188 434 188 469 c 0,204,205
 188 478 188 478 189 483 c 1,206,-1
 188 483 l 1,207,-1
 178 479 l 1,208,-1
 176 480 l 1,209,-1
 165 477 l 1,210,-1
 155 485 l 1,211,-1
 153 491 l 1,212,213
 173 494 173 494 189 510 c 1,214,215
 105 510 105 510 105 580 c 0,216,217
 105 599 105 599 122 619.5 c 128,-1,218
 139 640 139 640 152 640 c 0,0,1
165 696 m 1,219,-1
 158 696 l 1,220,-1
 158 695 l 1,221,-1
 165 695 l 1,222,-1
 165 696 l 1,219,-1
EndSplineSet
AlternateSubs2: "'ss02' Cyrillic Equivalent Forms-1" uni0405
AlternateSubs2: "'salt' Stylistic Alternatives-1" uni0053.alt
EndChar

StartChar: uni0054
Encoding: 73 84 29
Width: 352
VWidth: 841
GlyphClass: 2
Flags: W
HStem: 5 15<126 147 204 232> 324 16<295 297> 408 11<271.787 289.424> 493 15<309 312> 696 17<82 146 194 262>
VStem: 54 31<568.423 678.143> 54 24<568 598.439> 147 57<20 251.509> 147 50<39.804 358.669 383 696> 240 22<328 362.508 597 609.582> 322 15<448.31 492.852>
DStem2: 297 548 273 550 0.784416 -0.620236<0 31.5387>
AnchorPoint: "Yerok" 300 796.491 basechar 0
AnchorPoint: "Diacritic" 174 798.491 basechar 0
LayerCount: 3
Fore
SplineSet
286 419 m 0xfc60
 311 419 322 454 322 473 c 0
 322 482 321 488 318 493 c 1
 309 493 l 1
 302 503 l 1
 303 508 307 510 312 508 c 1
 309 517 303 525 296 532 c 2
 273 550 l 1
 253 570 l 1
 244 597 l 1
 244 636 250 669 262 696 c 1
 194 696 l 1
 194 383 l 1
 212 369 l 1
 199 359 l 1
 198 352 197 341 197 329 c 0xfce0
 197 304 198 277 198 255 c 0
 198 180 199 139 202 134 c 1
 203 95 204 54 204 20 c 1
 232 20 l 1
 232 5 l 1
 126 5 l 1
 126 20 l 1
 147 20 l 1xf960
 147 359 l 1
 130 369 l 1
 148 383 l 1
 147 492 146 596 146 696 c 1
 82 696 l 1
 84 690 85 686 85 681 c 0
 85 673 83 665 83 655 c 0
 83 652 83 650 83 647 c 0
 84 634 85 621 85 606 c 0
 85 602 85 602 85 599 c 0xfce0
 85 587 83 577 78 568 c 1
 54 568 l 1xfa60
 54 602 l 2
 54 633 44 670 25 713 c 1
 257 713 l 1
 294 714 l 1
 316 715 l 1
 345 715 l 1
 293 650 267 609 267 591 c 0
 267 584 269 579 272 574 c 0
 277 567 277 567 282 560 c 1
 290 560 l 2
 296 560 309 567 312 568 c 1
 314 574 317 579 317 587 c 0
 317 606 298 604 290 617 c 1
 328 636 l 1
 332 628 l 1
 330 618 l 1
 340 590 l 1
 334 567 320 553 297 548 c 1
 323 517 l 1
 336 519 l 1
 340 514 l 1
 330 498 l 1
 335 484 337 474 337 469 c 0
 337 462 335 456 331 450 c 2
 317 428 l 2
 304 407 298 390 298 377 c 1
 304 369 l 1
 316 363 l 1
 299 353 l 1
 288 355 277 366 277 379 c 1
 267 363 262 346 262 328 c 1
 281 301 l 1
 297 318 l 1
 297 328 l 1
 289 324 l 1
 289 333 l 1
 295 340 l 1
 306 340 l 1
 323 316 l 1
 323 303 l 2
 323 281 300 274 271 274 c 0
 255 274 240 297 240 316 c 0
 240 353 257 384 290 408 c 1
 258 408 246 417 246 447 c 0
 246 469 260 490 283 490 c 1
 305 473 l 1
 287 437 l 1
 283 439 l 1
 283 459 l 1
 272 468 l 1
 259 446 l 1
 259 432 273 419 286 419 c 0xfc60
EndSplineSet
Validated: 1
Layer: 2
SplineSet
286 419 m 0,0,1
 303 419 303 419 312.5 437 c 128,-1,2
 322 455 322 455 322 473 c 0,3,4
 322 486 322 486 318 493 c 1,5,-1
 309 493 l 1,6,-1
 302 503 l 1,7,8
 304 511 304 511 312 508 c 1,9,10
 308 520 308 520 296 532 c 1,11,-1
 273 550 l 1,12,-1
 253 570 l 1,13,-1
 244 597 l 1,14,15
 244 655.5 244 655.5 262 696 c 1,16,-1
 194 696 l 1,17,-1
 194 383 l 1,18,-1
 212 369 l 1,19,-1
 199 359 l 1,20,21
 197 345 197 345 197 329 c 0,22,23
 197 316 197 316 197.5 291 c 128,-1,24
 198 266 198 266 198 255 c 0,25,26
 198 141 198 141 202 134 c 1,27,28
 204 56 204 56 204 20 c 1,29,-1
 232 20 l 1,30,-1
 232 5 l 1,31,-1
 126 5 l 1,32,-1
 126 20 l 1,33,-1
 147 20 l 1,34,-1
 147 359 l 1,35,-1
 130 369 l 1,36,-1
 148 383 l 1,37,38
 146 601 146 601 146 696 c 1,39,-1
 82 696 l 1,40,41
 85 687 85 687 85 681 c 0,42,43
 85 677 85 677 84 668.5 c 128,-1,44
 83 660 83 660 83 655 c 2,45,-1
 83 647 l 1,46,47
 85 621 85 621 85 606 c 2,48,-1
 85 599 l 2,49,50
 85 581 85 581 78 568 c 1,51,-1
 54 568 l 1,52,-1
 54 602 l 2,53,54
 54 647 54 647 25 713 c 1,55,-1
 257 713 l 1,56,-1
 294 714 l 1,57,-1
 316 715 l 1,58,-1
 345 715 l 1,59,60
 267 618 267 618 267 591 c 0,61,62
 267 582 267 582 272 574 c 2,63,-1
 282 560 l 1,64,-1
 290 560 l 2,65,66
 293 560 293 560 297.5 561.5 c 128,-1,67
 302 563 302 563 306.5 565.5 c 128,-1,68
 311 568 311 568 312 568 c 0,69,70
 317 583 317 583 317 587 c 0,71,72
 317 598 317 598 305 605.5 c 128,-1,73
 293 613 293 613 290 617 c 1,74,-1
 328 636 l 1,75,-1
 332 628 l 1,76,-1
 330 618 l 1,77,-1
 340 590 l 1,78,79
 331 555 331 555 297 548 c 1,80,-1
 323 517 l 1,81,-1
 336 519 l 1,82,-1
 340 514 l 1,83,-1
 330 498 l 1,84,85
 337 478 337 478 337 469 c 0,86,87
 337 459 337 459 331 450 c 2,88,-1
 317 428 l 2,89,90
 298 397 298 397 298 377 c 1,91,-1
 304 369 l 1,92,-1
 316 363 l 1,93,-1
 299 353 l 1,94,95
 290 355 290 355 283.5 362.5 c 128,-1,96
 277 370 277 370 277 379 c 1,97,98
 262 355 262 355 262 328 c 1,99,-1
 281 301 l 1,100,-1
 297 318 l 1,101,-1
 297 328 l 1,102,-1
 289 324 l 1,103,-1
 289 333 l 1,104,-1
 295 340 l 1,105,-1
 306 340 l 1,106,-1
 323 316 l 1,107,-1
 323 303 l 2,108,109
 323 274 323 274 271 274 c 0,110,111
 259 274 259 274 249.5 287.5 c 128,-1,112
 240 301 240 301 240 316 c 0,113,114
 240 372 240 372 290 408 c 1,115,116
 266 408 266 408 256 416.5 c 128,-1,117
 246 425 246 425 246 447 c 0,118,119
 246 464 246 464 256 477 c 128,-1,120
 266 490 266 490 283 490 c 1,121,-1
 305 473 l 1,122,-1
 287 437 l 1,123,-1
 283 439 l 1,124,-1
 283 459 l 1,125,-1
 272 468 l 1,126,-1
 259 446 l 1,127,128
 259 436 259 436 267.5 427.5 c 128,-1,129
 276 419 276 419 286 419 c 0,0,1
EndSplineSet
AlternateSubs2: "'ss02' Cyrillic Equivalent Forms-1" uni0422
EndChar

StartChar: uni0055
Encoding: 74 85 30
Width: 301
VWidth: 841
GlyphClass: 2
Flags: W
HStem: 0 23<162 172> 197 25<173 178> 702 17<38 58 107.316 113.997 114 139 201 221 272 293>
VStem: 55 48<200.412 699> 137 14<174.387 219> 143 24<371 423.164> 156 23<412.315 441.73> 178 15<68 89 304.528 316> 221 50<71.0056 702>
AnchorPoint: "Yerok" 246 779.203 basechar 0
AnchorPoint: "Diacritic" 160 780.203 basechar 0
LayerCount: 3
Fore
SplineSet
179 424 m 0xf280
 179 406 167 398 167 381 c 0xf480
 167 362 173 361 180 344 c 1
 189 327 193 314 193 305 c 0
 193 295 184 280 165 259 c 1
 175 259 l 1
 197 233 l 1
 197 221 l 1
 183 197 l 1
 173 197 l 1
 162 214 l 1
 167 224 173 227 178 222 c 1
 186 230 l 1
 176 248 l 1
 171 249 l 1
 151 219 l 1
 151 202 l 2
 151 177 174 145 187 122 c 0
 191 115 193 105 193 94 c 0
 193 70 183 46 162 23 c 1
 172 23 l 1
 214 63 l 1
 215 74 221 93 221 106 c 2
 221 702 l 1
 201 702 l 1
 201 719 l 1
 296 719 l 1
 293 702 l 1
 272 702 l 1
 271 663 271 623 271 580 c 2
 271 197 l 2
 271 110 251 50 211 19 c 0
 195 6 173 0 146 0 c 0
 85 0 55 85 55 254 c 2
 55 299 l 1
 57 436 58 569 58 699 c 1
 38 699 l 1
 38 715 l 1
 65 715 l 1
 65 719 l 1
 96 719 96 719 102 719 c 0
 110 719 114 718 114 716 c 1
 117 716 126 717 139 719 c 1
 139 699 l 1
 108 699 l 1
 105 677 103 639 103 586 c 2
 103 413 l 2
 103 276 106 183 112 135 c 0
 118 87 124 55 130 38 c 1
 152 33 l 1
 178 68 l 1
 178 89 l 1xf980
 179 90 l 1xf280
 167 111 l 1xf480
 155 111 l 1
 164 94 l 1
 151 75 l 1
 130 94 l 1
 130 104 l 1
 157 129 l 1
 144 154 137 184 137 217 c 0
 137 226 141 237 149 252 c 0
 164 281 172 302 172 316 c 1
 166 329 l 1
 145 317 l 1
 156 305 l 1
 144 294 l 1
 131 308 l 1
 131 319 l 1
 156 340 l 1xfa80
 162 340 l 1
 143 371 l 1
 143 398 l 2xf480
 143 420 156 441 156 463 c 1
 171 446 179 433 179 424 c 0xf280
EndSplineSet
Validated: 1
Layer: 2
SplineSet
179 424 m 0,0,1
 179 415 179 415 173 402 c 128,-1,2
 167 389 167 389 167 381 c 0,3,4
 167 372 167 372 168.5 367.5 c 128,-1,5
 170 363 170 363 174 356.5 c 128,-1,6
 178 350 178 350 180 344 c 0,7,8
 193 319 193 319 193 305 c 0,9,10
 193 290 193 290 165 259 c 1,11,-1
 175 259 l 1,12,-1
 197 233 l 1,13,-1
 197 221 l 1,14,-1
 183 197 l 1,15,-1
 173 197 l 1,16,-1
 162 214 l 1,17,18
 170 230 170 230 178 222 c 1,19,-1
 186 230 l 1,20,-1
 176 248 l 1,21,-1
 171 249 l 1,22,-1
 151 219 l 1,23,-1
 151 202 l 2,24,25
 151 193 151 193 155.5 181.5 c 128,-1,26
 160 170 160 170 164 162 c 128,-1,27
 168 154 168 154 176.5 140 c 128,-1,28
 185 126 185 126 187 122 c 0,29,30
 193 112 193 112 193 94 c 0,31,32
 193 57 193 57 162 23 c 1,33,-1
 172 23 l 1,34,-1
 214 63 l 1,35,36
 214 67 214 67 217.5 83 c 128,-1,37
 221 99 221 99 221 106 c 2,38,-1
 221 702 l 1,39,-1
 201 702 l 1,40,-1
 201 719 l 1,41,-1
 296 719 l 1,42,-1
 293 702 l 1,43,-1
 272 702 l 1,44,45
 271 663 271 663 271 580 c 2,46,-1
 271 197 l 2,47,48
 271 66 271 66 211 19 c 0,49,50
 188 0 188 0 146 0 c 0,51,52
 55 0 55 0 55 254 c 2,53,-1
 55 299 l 1,54,55
 58 504 58 504 58 699 c 1,56,-1
 38 699 l 1,57,-1
 38 715 l 1,58,-1
 65 715 l 1,59,-1
 65 719 l 1,60,-1
 102 719 l 2,61,62
 114 719 114 719 114 716 c 1,63,64
 120 716 120 716 139 719 c 1,65,-1
 139 699 l 1,66,-1
 108 699 l 1,67,68
 103 662 103 662 103 586 c 2,69,-1
 103 413 l 2,70,71
 103 207 103 207 112 135 c 0,72,73
 121 64 121 64 130 38 c 1,74,-1
 152 33 l 1,75,-1
 178 68 l 1,76,-1
 178 89 l 1,77,-1
 179 90 l 1,78,-1
 167 111 l 1,79,-1
 155 111 l 1,80,-1
 164 94 l 1,81,-1
 151 75 l 1,82,-1
 130 94 l 1,83,-1
 130 104 l 1,84,-1
 157 129 l 1,85,86
 137 167 137 167 137 217 c 0,87,88
 137 230 137 230 149 252 c 0,89,90
 172 296 172 296 172 316 c 1,91,-1
 166 329 l 1,92,-1
 145 317 l 1,93,-1
 156 305 l 1,94,-1
 144 294 l 1,95,-1
 131 308 l 1,96,-1
 131 319 l 1,97,-1
 156 340 l 1,98,-1
 162 340 l 1,99,-1
 143 371 l 1,100,-1
 143 398 l 2,101,102
 143 409 143 409 149.5 430.5 c 128,-1,103
 156 452 156 452 156 463 c 1,104,105
 179 437 179 437 179 424 c 0,0,1
EndSplineSet
EndChar

StartChar: uni0056
Encoding: 75 86 31
Width: 398
VWidth: 841
GlyphClass: 2
Flags: W
HStem: 0 21G<197 210> 549 17<214 246.301> 643 19<268.236 288.37> 680 12<230.293 266> 701 14<43 56 111 132 330 346.998 383 391.556>
VStem: 174 12<583.052 643.797> 221 7<262.562 295.547> 241 20<474 508.404>
DStem2: 213 139 269 233 0.25025 0.968181<1.25147 243.389 434.077 463.857>
AnchorPoint: "Yerok" 340.577 794.411 basechar 0
AnchorPoint: "Diacritic" 222.577 794.411 basechar 0
LayerCount: 3
Fore
SplineSet
263 680 m 0
 224 680 186 656 186 622 c 0
 186 583 190 572 227 566 c 0
 228 566 228 566 229 566 c 0
 238 566 251 578 256 582 c 1
 244 594 l 1
 240 590 l 1
 223 607 l 1
 229 617 l 1
 240 608 243 618 257 615 c 1
 274 599 l 2
 274 598 274 597 274 596 c 0
 274 588 271 578 265 566 c 1
 259 564 l 1
 250 554 238 549 223 549 c 0
 219 549 219 549 214 549 c 1
 245 534 261 501 261 451 c 1
 237 384 l 1
 241 374 253 345 253 334 c 0
 253 333 253 333 253 332 c 1
 232 304 228 296 228 262 c 1
 223 274 221 286 221 298 c 1
 224 321 l 2
 224 327 221 337 214 350 c 0
 206 366 202 378 202 386 c 0
 202 407 215 418 227 430 c 0
 233 436 233 436 237 440 c 1
 203 429 l 1
 177 465 l 1
 196 498 l 1
 196 507 l 1
 197 511 199 515 200 518 c 1
 219 487 l 1
 211 461 l 1
 214 458 l 1
 225 458 l 1
 241 474 l 1
 241 492 238 506 231 516 c 0
 223 529 191 564 184 576 c 0
 177 586 174 598 174 613 c 0
 174 644 186 661 203 674 c 0
 218 686 237 692 260 692 c 0
 263 692 263 692 266 692 c 1
 293 677 l 1
 307 691 l 1
 313 685 l 1
 308 680 l 1
 308 670 l 1
 316 658 325 638 335 611 c 1
 344 639 349 664 349 687 c 0
 349 690 347 694 344 701 c 1
 330 701 l 1
 330 715 l 1
 380 715 l 1
 389 716 l 2
 392 716 393 714 392 710 c 2
 391 699 l 1
 383 700 l 1
 377 694 363 645 342 554 c 0
 331 504 282 282 269 233 c 1
 254 171 219 18 201 0 c 1
 193 115 158 261 135 351 c 0
 99 489 74 567 56 701 c 1
 43 702 l 1
 43 715 l 1
 132 715 l 1
 132 699 l 1
 111 700 l 1
 113 616 126 522 151 418 c 0
 171 334 182 287 184 278 c 0
 195 231 205 184 213 139 c 1
 279 386 318 533 329 580 c 0
 330 583 330 585 330 588 c 0
 330 615 299 643 276 643 c 0
 269 643 263 641 258 636 c 1
 251 643 l 1
 261 652 267 657 268 658 c 0
 273 661 280 663 289 662 c 1
 280 674 272 680 263 680 c 0
EndSplineSet
Validated: 1
Layer: 2
SplineSet
263 680 m 0,0,1
 233 680 233 680 209.5 663.5 c 128,-1,2
 186 647 186 647 186 622 c 0,3,4
 186 591 186 591 193 580.5 c 128,-1,5
 200 570 200 570 227 566 c 1,6,-1
 229 566 l 2,7,8
 236 566 236 566 256 582 c 1,9,-1
 244 594 l 1,10,-1
 240 590 l 1,11,-1
 223 607 l 1,12,-1
 229 617 l 1,13,14
 232 611 232 611 241.5 613.5 c 128,-1,15
 251 616 251 616 257 615 c 1,16,-1
 274 599 l 1,17,-1
 274 596 l 2,18,19
 274 584 274 584 265 566 c 1,20,-1
 259 564 l 1,21,22
 245.5 549 245.5 549 223 549 c 2,23,-1
 214 549 l 1,24,25
 261 526 261 526 261 451 c 1,26,-1
 237 384 l 1,27,28
 253 344 253 344 253 334 c 2,29,30
 253 332 l 1,31,32
 237 310 237 310 232.5 298.5 c 128,-1,33
 228 287 228 287 228 262 c 1,34,35
 221 279 221 279 221 298 c 1,36,-1
 224 321 l 1,37,38
 224 331 224 331 214 350 c 0,39,40
 202 374 202 374 202 386 c 0,41,42
 202 405 202 405 227 430 c 2,43,-1
 237 440 l 1,44,-1
 203 429 l 1,45,-1
 177 465 l 1,46,-1
 196 498 l 1,47,-1
 196 507 l 1,48,49
 197 509 197 509 198.5 513 c 128,-1,50
 200 517 200 517 200 518 c 2,51,-1
 219 487 l 1,52,-1
 211 461 l 1,53,-1
 214 458 l 1,54,-1
 225 458 l 1,55,-1
 241 474 l 1,56,57
 241 502 241 502 231 516 c 0,58,59
 227 522 227 522 207.5 546 c 128,-1,60
 188 570 188 570 184 576 c 0,61,62
 174 590 174 590 174 613 c 0,63,64
 174 652 174 652 203 674 c 0,65,66
 225.5 692 225.5 692 260 692 c 2,67,-1
 266 692 l 1,68,-1
 293 677 l 1,69,-1
 307 691 l 1,70,-1
 313 685 l 1,71,-1
 308 680 l 1,72,-1
 308 670 l 1,73,74
 320 653 320 653 335 611 c 1,75,76
 349 655 349 655 349 687 c 0,77,78
 349 689 349 689 344 701 c 1,79,-1
 330 701 l 1,80,-1
 330 715 l 1,81,-1
 380 715 l 1,82,-1
 389 716 l 2,83,84
 393.5 716 393.5 716 392 710 c 2,85,-1
 391 699 l 1,86,-1
 383 700 l 1,87,88
 373 690 373 690 342 554 c 1,89,90
 283 286 283 286 269 233 c 1,91,92
 216 15 216 15 201 0 c 1,93,94
 192 127 192 127 135 351 c 0,95,96
 128 377 128 377 115 425.5 c 128,-1,97
 102 474 102 474 96 497 c 128,-1,98
 90 520 90 520 81.5 557.5 c 128,-1,99
 73 595 73 595 67 628.5 c 128,-1,100
 61 662 61 662 56 701 c 1,101,-1
 43 702 l 1,102,-1
 43 715 l 1,103,-1
 132 715 l 1,104,-1
 132 699 l 1,105,-1
 111 700 l 1,106,107
 114 572 114 572 151 418 c 0,108,109
 179 299 179 299 184 278 c 0,110,111
 202 202 202 202 213 139 c 1,112,113
 316 525 316 525 329 580 c 0,114,115
 330 583 330 583 330 588 c 0,116,117
 330 608 330 608 312 625.5 c 128,-1,118
 294 643 294 643 276 643 c 0,119,120
 265 643 265 643 258 636 c 1,121,-1
 251 643 l 1,122,123
 254 646 254 646 257.5 649 c 128,-1,124
 261 652 261 652 263 653.5 c 128,-1,125
 265 655 265 655 266.5 656.5 c 2,126,-1
 268 658 l 1,127,128
 277 663 277 663 289 662 c 1,129,130
 276 680 276 680 263 680 c 0,0,1
EndSplineSet
AlternateSubs2: "'ss02' Cyrillic Equivalent Forms-1" uni0474
AlternateSubs2: "'salt' Stylistic Alternatives-1" uni0056.alt
EndChar

StartChar: uni0057
Encoding: 76 87 32
Width: 538
VWidth: 841
GlyphClass: 2
Flags: W
HStem: 509 23<358.922 383> 605 18<206.281 234> 612 16<351 381.893> 700 16<60 80.6951 130 157 246 255 321.632 349 425 459 509.287 530>
VStem: 166 23<542 551> 210 24<418.182 468.22> 229 18<529.849 549> 266 52<612 686> 273 40<485.076 569.203> 339 17<538.515 553> 351 24<430 475.149>
DStem2: 164 367 108 522 0.149095 -0.988823<-198.581 235.073> 148 613 158 625 0.287348 0.957826<14.3674 24.8077> 158 625 148 613 0.756613 -0.653863<0.280227 31.2971> 202 135 231 166 0.192532 0.981291<0.709969 36.0034 109.215 146.022>
AnchorPoint: "Yerok" 480 794.4 basechar 0
AnchorPoint: "Diacritic" 290 798 basechar 0
LayerCount: 3
Fore
SplineSet
377 509 m 1xbd20
 356 509 339 524 339 544 c 0
 339 554 344 564 355 575 c 1
 369 568 l 1
 356 553 l 1
 356 552 356 552 356 551 c 0
 356 542 370 532 380 532 c 0
 381 532 382 532 383 532 c 1
 399 549 l 1
 399 591 386 612 359 612 c 0xb840
 352 612 342 608 327 601 c 1
 313 579 l 2
 312 578 312 577 313 576 c 2
 313 525 l 2
 313 448 327 356 356 249 c 0
 370 198 379 162 384 142 c 1
 398 202 409 275 417 361 c 0
 425 447 432 513 436 560 c 0
 442 607 449 653 459 700 c 1
 425 700 l 1
 425 716 l 1
 455 715 473 714 478 714 c 2
 501 714 l 2
 504 713 514 714 530 716 c 1
 530 700 l 1
 511 700 l 1
 504 669 493 604 479 506 c 0
 447 285 463 391 428 170 c 0
 414 74 403 20 396 11 c 1
 362 90 333 208 310 366 c 0
 303 411 298 449 293 482 c 1
 286 451 286 434 279 387 c 0
 258 250 242 176 231 166 c 1
 216 109 211 55 189 3 c 1
 184 10 177 50 166 123 c 0
 141 292 134 342 108 522 c 0
 96 612 86 672 79 700 c 1
 60 700 l 1
 60 716 l 1
 157 716 l 1
 157 700 l 1
 130 700 l 1
 148 579 150 510 164 367 c 0
 172 286 185 208 202 135 c 1
 214 184 223 219 229 241 c 0
 258 352 273 444 273 517 c 0
 273 536 272 553 270 570 c 1
 272 569 l 1
 273 570 l 1
 258 593 l 1
 242 601 231 605 224 605 c 0
 218 605 212 603 206 598 c 0
 193 588 187 569 187 542 c 1
 203 522 l 1
 217 523 229 535 229 549 c 1
 215 560 l 1
 231 567 l 1
 242 556 247 546 247 534 c 0xdac0
 247 524 242 515 232 510 c 0
 223 505 215 502 210 502 c 0
 204 502 199 502 195 503 c 1
 199 497 207 487 218 474 c 0
 229 461 234 449 234 440 c 0
 234 431 232 422 228 414 c 1
 215 408 l 1
 206 414 l 1
 184 404 l 1
 201 419 210 432 210 444 c 0
 210 469 186 497 175 513 c 1
 172 532 170 544 170 551 c 1
 185 589 l 1
 173 591 l 1
 148 613 l 1
 157 643 l 1
 161 635 l 1
 158 625 l 1
 176 609 l 1
 200 609 210 623 234 623 c 1xdc
 267 604 l 1
 266 645 l 1
 266 666 l 1
 262 686 l 1
 255 700 l 1
 246 700 l 1
 237 713 l 1
 352 716 l 1
 349 699 l 1
 325 699 l 1
 320 692 318 680 318 662 c 2
 318 612 l 1
 351 628 l 1
 374 628 385 616 408 616 c 1
 427 633 l 1
 422 642 l 1
 431 650 l 1
 437 622 l 1
 414 601 l 1
 399 598 l 1
 408 579 413 568 414 563 c 0
 415 558 415 550 414 540 c 2
 411 520 l 1
 399 503 375 479 375 452 c 0
 375 439 384 427 401 415 c 1
 379 420 l 1
 371 416 l 1
 358 420 l 1
 353 430 l 1
 351 438 l 1
 351 454 358 470 371 487 c 2
 391 512 l 1
 377 509 l 1xbd20
EndSplineSet
Validated: 1
Layer: 2
SplineSet
377 509 m 1,0,1
 361 509 361 509 350 519 c 128,-1,2
 339 529 339 529 339 544 c 128,-1,3
 339 559 339 559 355 575 c 1,4,-1
 369 568 l 1,5,-1
 356 553 l 1,6,7
 356 551 l 2,8,9
 356 544 356 544 364 538 c 128,-1,10
 372 532 372 532 380 532 c 2,11,-1
 383 532 l 1,12,-1
 399 549 l 1,13,14
 399 612 399 612 359 612 c 0,15,16
 351 612 351 612 327 601 c 1,17,-1
 313 579 l 2,18,19
 311.5 577.5 311.5 577.5 313 576 c 1,20,-1
 313 525 l 2,21,22
 313 408 313 408 356 249 c 0,23,24
 370 198 370 198 384 142 c 1,25,26
 405 232 405 232 417 361 c 0,27,28
 421 400 421 400 427.5 467.5 c 128,-1,29
 434 535 434 535 436 560 c 1,30,31
 446 640 446 640 459 700 c 1,32,-1
 425 700 l 1,33,-1
 425 716 l 1,34,35
 438 716 438 716 450.5 715.5 c 128,-1,36
 463 715 463 715 469.5 714.5 c 128,-1,37
 476 714 476 714 478 714 c 2,38,-1
 501 714 l 1,39,40
 505 713 505 713 530 716 c 1,41,-1
 530 700 l 1,42,-1
 511 700 l 1,43,44
 499 648 499 648 479 506 c 0,45,46
 455 343 455 343 428 170 c 1,47,48
 407 25 407 25 396 11 c 1,49,50
 344 132 344 132 310 366 c 0,51,52
 306 391 306 391 300.5 430.5 c 128,-1,53
 295 470 295 470 293 482 c 1,54,55
 290 468 290 468 288 455.5 c 128,-1,56
 286 443 286 443 284 424 c 128,-1,57
 282 405 282 405 279 387 c 0,58,59
 247 181 247 181 231 166 c 1,60,61
 226 146 226 146 219 113 c 128,-1,62
 212 80 212 80 205.5 53 c 128,-1,63
 199 26 199 26 189 3 c 1,64,65
 183 12 183 12 166 123 c 0,66,67
 150 228 150 228 108 522 c 0,68,69
 90 655 90 655 79 700 c 1,70,-1
 60 700 l 1,71,-1
 60 716 l 1,72,-1
 157 716 l 1,73,-1
 157 700 l 1,74,-1
 130 700 l 1,75,76
 138 646 138 646 143 599 c 128,-1,77
 148 552 148 552 153.5 483 c 128,-1,78
 159 414 159 414 164 367 c 0,79,80
 176 247 176 247 202 135 c 1,81,82
 219 204 219 204 229 241 c 0,83,84
 273 409 273 409 273 517 c 0,85,86
 273 544 273 544 270 570 c 1,87,-1
 272 569 l 1,88,-1
 273 570 l 1,89,-1
 258 593 l 1,90,91
 234 605 234 605 224 605 c 128,-1,92
 214 605 214 605 206 598 c 0,93,94
 187 583 187 583 187 542 c 1,95,-1
 203 522 l 1,96,97
 214 523 214 523 221.5 531 c 128,-1,98
 229 539 229 539 229 549 c 1,99,-1
 215 560 l 1,100,-1
 231 567 l 1,101,102
 247 551 247 551 247 534 c 0,103,104
 247 518 247 518 232 510 c 0,105,106
 218 502 218 502 210 502 c 0,107,108
 199 502 199 502 195 503 c 1,109,110
 201 494 201 494 218 474 c 0,111,112
 234 455 234 455 234 440 c 0,113,114
 234 426 234 426 228 414 c 1,115,-1
 215 408 l 1,116,-1
 206 414 l 1,117,-1
 184 404 l 1,118,119
 210 427 210 427 210 444 c 0,120,121
 210 451 210 451 207.5 459 c 128,-1,122
 205 467 205 467 200.5 475 c 128,-1,123
 196 483 196 483 192.5 488.5 c 128,-1,124
 189 494 189 494 183 502.5 c 128,-1,125
 177 511 177 511 175 513 c 1,126,127
 170 545 170 545 170 551 c 1,128,-1
 185 589 l 1,129,-1
 173 591 l 1,130,-1
 148 613 l 1,131,-1
 157 643 l 1,132,-1
 161 635 l 1,133,-1
 158 625 l 1,134,-1
 176 609 l 1,135,136
 188 609 188 609 205 616 c 128,-1,137
 222 623 222 623 234 623 c 1,138,-1
 267 604 l 1,139,-1
 266 645 l 1,140,-1
 266 666 l 1,141,-1
 262 686 l 1,142,-1
 255 700 l 1,143,-1
 246 700 l 1,144,-1
 237 713 l 1,145,-1
 352 716 l 1,146,-1
 349 699 l 1,147,-1
 325 699 l 1,148,149
 318 689 318 689 318 662 c 2,150,-1
 318 612 l 1,151,-1
 351 628 l 1,152,153
 362 628 362 628 379 622 c 128,-1,154
 396 616 396 616 408 616 c 1,155,-1
 427 633 l 1,156,-1
 422 642 l 1,157,-1
 431 650 l 1,158,-1
 437 622 l 1,159,-1
 414 601 l 1,160,-1
 399 598 l 1,161,162
 413 569 413 569 414 563 c 0,163,164
 416 555 416 555 414 540 c 2,165,-1
 411 520 l 1,166,167
 409 517 409 517 400.5 506.5 c 128,-1,168
 392 496 392 496 388 489.5 c 128,-1,169
 384 483 384 483 379.5 472 c 128,-1,170
 375 461 375 461 375 452 c 0,171,172
 375 433 375 433 401 415 c 1,173,-1
 379 420 l 1,174,-1
 371 416 l 1,175,-1
 358 420 l 1,176,-1
 353 430 l 1,177,-1
 351 438 l 1,178,179
 351 461 351 461 371 487 c 2,180,-1
 391 512 l 1,181,-1
 377 509 l 1,0,1
EndSplineSet
AlternateSubs2: "'ss02' Cyrillic Equivalent Forms-1" uni0460
EndChar

StartChar: uni0058
Encoding: 77 88 33
Width: 358
VWidth: 841
GlyphClass: 2
Flags: W
HStem: 0 21G<86.5 115> 7 15<46 60.4098 110.458 128 279 289 332 336.766 339 346> 49 11<132.558 164.062> 52 19<224 233> 612 93<189.026 232.5> 698 16<46 58.5605 108 121 285 288 340 352>
VStem: 60 32<40.9067 206.587> 107 14<71.9589 116.699> 148 25<99 121.584> 164 30<635.148 664> 174 8<205.97 221> 285 67<7 8 12 22 698 714>
DStem2: 108 698 56 698 0.325861 -0.945418<0 290.263 295.159 334.493 347.35 347.35>
AnchorPoint: "Yerok" 304 796.504 basechar 0
AnchorPoint: "Diacritic" 195 796.504 basechar 0
LayerCount: 3
Fore
SplineSet
337 10 m 1x0310
 345 8 l 1
 339 12 l 1
 337 10 l 1x0310
164 664 m 0x0b50
 164 688 181 705 204 705 c 0
 205 705 207 704 209 702 c 0
 218 694 226 691 233 694 c 1
 253 708 l 1
 256 699 l 1
 243 672 l 1
 236 672 l 1
 205 682 l 1
 194 664 l 1
 194 653 l 2x0b50
 194 646 206 635 229 622 c 0
 261 604 269 596 272 569 c 0
 273 564 275 558 279 549 c 1
 282 566 284 588 284 613 c 0
 284 639 285 667 288 698 c 1
 285 698 l 1
 285 714 l 1
 352 714 l 1
 352 698 l 1
 340 698 l 1
 342 692 342 687 340 682 c 2
 325 611 l 2
 314 562 285 507 240 447 c 0
 227 430 216 414 205 398 c 1
 332 22 l 1
 346 22 l 1
 346 7 l 1
 337 7 l 1
 337 5 l 1
 332 6 328 7 323 7 c 2
 279 7 l 1
 279 22 l 1
 289 22 l 1
 268 78 229 188 173 353 c 1
 145 328 124 295 109 256 c 0
 104 243 102 234 102 227 c 0
 102 210 120 186 138 186 c 0
 156 186 174 202 174 221 c 1
 162 235 l 1
 152 229 l 1
 160 214 l 1
 152 205 l 1
 134 230 l 1
 149 248 l 1
 142 273 l 1
 152 282 l 1
 158 277 l 1
 155 271 l 1
 158 267 164 258 173 245 c 0
 179 236 182 225 182 214 c 2
 182 199 l 1
 161 175 l 1
 192 144 202 111 222 71 c 1
 240 74 l 1
 233 64 l 1
 236 52 l 1x57b0
 224 49 l 1
 203 63 l 1
 194 85 l 1x2350
 187 78 l 1
 187 67 l 1
 177 61 171 57 169 55 c 0
 165 51 158 49 148 49 c 0
 122 49 107 76 107 100 c 0
 107 124 123 140 145 140 c 0
 166 140 173 119 173 99 c 1
 148 79 l 1
 148 85 l 2
 148 98 144 110 135 123 c 1
 129 122 121 109 121 88 c 0
 121 76 132 60 145 60 c 0
 146 60 l 0x2390
 174 61 186 88 186 116 c 0
 186 145 169 152 149 163 c 0
 133 172 123 177 120 179 c 0
 110 184 103 191 98 200 c 1
 94 165 92 145 92 140 c 0
 92 92 106 59 112 19 c 1
 128 19 l 1
 128 3 l 1
 115 3 l 1
 89 0 l 2
 84 0 79 1 74 3 c 1
 46 3 l 1
 46 19 l 1
 59 19 l 1
 60 25 61 32 61 41 c 0
 62 43 62 47 61 52 c 0
 60 59 60 75 60 100 c 0
 60 208 95 300 166 377 c 1
 120 518 83 625 56 698 c 1
 46 698 l 1
 46 714 l 1
 66 714 l 2
 69 715 72 715 76 715 c 0
 79 715 84 715 89 714 c 2
 121 714 l 1
 121 698 l 1
 108 698 l 1x9790
 198 422 l 1
 226 445 247 474 261 509 c 0
 266 520 268 530 268 539 c 0
 268 540 268 541 268 542 c 0
 268 589 250 612 215 612 c 0
 202 612 193 598 189 570 c 1
 210 554 l 1
 228 567 l 1
 218 567 l 1
 209 574 l 1
 209 580 l 1
 226 590 l 1
 234 590 240 579 245 556 c 1
 237 543 225 539 209 533 c 1
 214 525 221 517 229 510 c 1
 209 468 l 2
 209 468 211 482 211 488 c 0
 211 511 176 541 176 574 c 0
 176 584 184 598 199 617 c 1
 182 625 164 641 164 664 c 0x0b50
EndSplineSet
Validated: 1
Layer: 2
SplineSet
337 10 m 1,0,-1
 345 8 l 1,1,-1
 339 12 l 1,2,-1
 337 10 l 1,0,-1
164 664 m 0,3,4
 164 682 164 682 175.5 693.5 c 128,-1,5
 187 705 187 705 204 705 c 0,6,7
 206 705 206 705 209 702 c 0,8,9
 223 690 223 690 233 694 c 1,10,-1
 253 708 l 1,11,-1
 256 699 l 1,12,-1
 243 672 l 1,13,-1
 236 672 l 1,14,-1
 205 682 l 1,15,-1
 194 664 l 1,16,-1
 194 653 l 2,17,18
 194 642 194 642 229 622 c 0,19,20
 254 608 254 608 262 598.5 c 128,-1,21
 270 589 270 589 272 569 c 1,22,23
 274 561 274 561 279 549 c 1,24,25
 284 577 284 577 284 613 c 0,26,27
 284 657 284 657 288 698 c 1,28,-1
 285 698 l 1,29,-1
 285 714 l 1,30,-1
 352 714 l 1,31,-1
 352 698 l 1,32,-1
 340 698 l 1,33,34
 343 689 343 689 340 682 c 1,35,-1
 325 611 l 2,36,37
 309 539 309 539 240 447 c 0,38,39
 227 430 227 430 205 398 c 1,40,-1
 332 22 l 1,41,-1
 346 22 l 1,42,-1
 346 7 l 1,43,-1
 337 7 l 1,44,-1
 337 5 l 1,45,46
 327 7 327 7 323 7 c 2,47,-1
 279 7 l 1,48,-1
 279 22 l 1,49,-1
 289 22 l 1,50,51
 250 125 250 125 173 353 c 1,52,53
 132 317 132 317 109 256 c 0,54,55
 102 238 102 238 102 227 c 0,56,57
 102 214 102 214 113.5 200 c 128,-1,58
 125 186 125 186 138 186 c 0,59,60
 152 186 152 186 163 196.5 c 128,-1,61
 174 207 174 207 174 221 c 1,62,-1
 162 235 l 1,63,-1
 152 229 l 1,64,-1
 160 214 l 1,65,-1
 152 205 l 1,66,-1
 134 230 l 1,67,-1
 149 248 l 1,68,-1
 142 273 l 1,69,-1
 152 282 l 1,70,-1
 158 277 l 1,71,-1
 155 271 l 1,72,73
 156 269 156 269 158.5 265.5 c 128,-1,74
 161 262 161 262 165.5 256 c 128,-1,75
 170 250 170 250 173 245 c 0,76,77
 182 232 182 232 182 214 c 2,78,-1
 182 199 l 1,79,-1
 161 175 l 1,80,81
 172 164 172 164 181 150.5 c 128,-1,82
 190 137 190 137 195 127.5 c 128,-1,83
 200 118 200 118 208.5 99 c 128,-1,84
 217 80 217 80 222 71 c 1,85,-1
 240 74 l 1,86,-1
 233 64 l 1,87,-1
 236 52 l 1,88,-1
 224 49 l 1,89,-1
 203 63 l 1,90,-1
 194 85 l 1,91,-1
 187 78 l 1,92,-1
 187 67 l 1,93,94
 172 58 172 58 169 55 c 0,95,96
 163 49 163 49 148 49 c 0,97,98
 130 49 130 49 118.5 64.5 c 128,-1,99
 107 80 107 80 107 100 c 0,100,101
 107 118 107 118 117.5 129 c 128,-1,102
 128 140 128 140 145 140 c 0,103,104
 173 140 173 140 173 99 c 1,105,-1
 148 79 l 1,106,-1
 148 85 l 2,107,108
 148 104 148 104 135 123 c 1,109,110
 130 122 130 122 125.5 112.5 c 128,-1,111
 121 103 121 103 121 88 c 0,112,113
 121 78 121 78 128.5 69 c 128,-1,114
 136 60 136 60 145 60 c 2,115,-1
 146 60 l 1,116,117
 166 61 166 61 176 77 c 128,-1,118
 186 93 186 93 186 116 c 0,119,120
 186 130 186 130 179.5 139.5 c 128,-1,121
 173 149 173 149 168.5 152 c 128,-1,122
 164 155 164 155 149 163 c 0,123,124
 142 167 142 167 135.5 170.5 c 128,-1,125
 129 174 129 174 125 176 c 128,-1,126
 121 178 121 178 120 179 c 0,127,128
 106 186 106 186 98 200 c 1,129,130
 92 147.5 92 147.5 92 140 c 0,131,132
 92 112 92 112 101.5 68.5 c 128,-1,133
 111 25 111 25 112 19 c 1,134,-1
 128 19 l 1,135,-1
 128 3 l 1,136,-1
 115 3 l 1,137,-1
 89 0 l 2,138,139
 81.5 0 81.5 0 74 3 c 1,140,-1
 46 3 l 1,141,-1
 46 19 l 1,142,-1
 59 19 l 1,143,144
 61 31 61 31 61 41 c 1,145,146
 63 44 63 44 61 52 c 0,147,148
 60 59 60 59 60 100 c 0,149,150
 60 262 60 262 166 377 c 1,151,152
 101 577 101 577 56 698 c 1,153,-1
 46 698 l 1,154,-1
 46 714 l 1,155,-1
 66 714 l 1,156,157
 69 715 69 715 76 715 c 0,158,159
 84 715 84 715 89 714 c 1,160,-1
 121 714 l 1,161,-1
 121 698 l 1,162,-1
 108 698 l 1,163,-1
 198 422 l 1,164,165
 240 456.5 240 456.5 261 509 c 0,166,167
 268 524 268 524 268 539 c 2,168,-1
 268 542 l 2,169,170
 268 612 268 612 215 612 c 0,171,172
 195 612 195 612 189 570 c 1,173,-1
 210 554 l 1,174,-1
 228 567 l 1,175,-1
 218 567 l 1,176,-1
 209 574 l 1,177,-1
 209 580 l 1,178,-1
 226 590 l 1,179,180
 238 590 238 590 245 556 c 1,181,182
 237 544 237 544 209 533 c 1,183,184
 217 521 217 521 229 510 c 1,185,-1
 209 468 l 1,186,187
 211 482 211 482 211 488 c 0,188,189
 211 498 211 498 193.5 527 c 128,-1,190
 176 556 176 556 176 574 c 0,191,192
 176 588 176 588 199 617 c 1,193,194
 164 633 164 633 164 664 c 0,3,4
EndSplineSet
AlternateSubs2: "'ss02' Cyrillic Equivalent Forms-1" uni0425
EndChar

StartChar: uni0059
Encoding: 78 89 34
Width: 327
VWidth: 841
GlyphClass: 2
Flags: W
HStem: 5 20<99.6677 145.946> 67 41<89.3652 105> 155 19<110 122.538> 168 27<129.051 153> 342 21<251 258> 402 11<232.259 267.375> 635 40<239.806 264.859> 701 15<42 70.9668 105 147>
VStem: 43 24<56.819 133.595> 70 35<649.31 701> 128 29<94.8303 154.576 178 191.74> 199 16<407.297 634.642> 205 18<181.338 378.748> 246 29<207.708 265.332 573 597.539> 281 16<168.214 192.8 519.067 548.125> 288 29<345 388.972> 291 19<640.391 680>
AnchorPoint: "Yerok" 276.5 791.313 basechar 0
AnchorPoint: "Diacritic" 178.5 794.313 basechar 0
LayerCount: 3
Fore
SplineSet
153 168 m 1xdfe4
 139 168 l 2
 134 168 128 178 129 182 c 0
 130 185 137 190 150 195 c 1
 155 193 157 189 157 183 c 2
 157 182 l 1
 158 178 l 1
 153 168 l 1xdfe4
265 663 m 1
 259 657 l 1
 262 658 264 660 265 663 c 1
110 174 m 1xefed
 119 174 l 1
 130 171 139 164 146 152 c 0
 153 138 157 128 157 121 c 0
 157 120 157 120 157 119 c 0
 157 99 138 67 122 67 c 0
 108 67 92 82 87 91 c 1
 86 97 l 1
 94 108 l 1
 105 106 l 1
 116 94 l 1
 124 99 128 108 128 121 c 0
 128 134 124 146 117 155 c 1
 107 155 l 1
 78 134 l 1
 71 124 67 113 67 101 c 0
 67 77 74 61 85 49 c 0
 99 33 111 25 122 25 c 0
 151 25 164 59 171 80 c 0
 189 137 205 206 205 269 c 2
 205 379 l 1xefed
 175 361 161 335 139 309 c 1
 136 314 l 1
 137 320 l 2
 137 326 134 343 129 370 c 0
 100 521 80 631 70 701 c 1
 42 701 l 1
 42 716 l 1
 147 716 l 1
 147 701 l 1
 105 701 l 1
 120 664 133 610 143 539 c 2
 155 455 l 1
 171 373 l 1
 203 399 l 1
 200 442 199 482 199 518 c 0
 199 554 199 581 200 600 c 0
 200 617 202 635 207 654 c 0
 218 696 240 717 273 717 c 0
 282 717 291 708 299 689 c 0
 306 672 310 659 310 650 c 0
 310 614 275 595 275 573 c 1
 294 541 l 1
 282 494 l 1
 282 537 l 2
 282 546 266 552 261 554 c 0
 252 557 248 563 248 570 c 0
 248 571 249 575 251 581 c 0
 251 583 275 622 277 629 c 0
 286 650 291 667 291 680 c 1xeff480
 267 702 l 2
 271 698 283 676 283 666 c 0
 283 655 266 635 254 635 c 1
 245 642 239 652 238 663 c 1
 242 670 248 675 256 675 c 0
 259 675 262 674 265 672 c 1
 266 682 l 1
 254 700 l 1
 228 694 215 630 215 507 c 2
 215 476 l 2
 215 441 217 434 220 406 c 1
 234 409 246 413 264 413 c 0
 300 413 317 376 317 342 c 0xeff5
 317 297 299 278 281 255 c 0
 277 248 275 241 275 233 c 0
 275 225 282 212 297 195 c 1
 297 182 l 2
 297 182 278 144 277 143 c 1
 280 152 281 160 281 168 c 0
 281 187 274 192 263 204 c 0
 252 217 246 233 246 250 c 0
 246 264 278 296 284 300 c 0
 290 305 294 309 297 314 c 1xdfe6
 270 304 l 1
 250 311 238 319 234 343 c 1
 251 363 l 1
 258 363 l 1
 272 355 l 1
 259 342 l 1
 251 344 l 1
 242 340 l 1
 245 333 253 328 265 324 c 1
 288 345 l 1
 288 366 281 383 268 396 c 0
 264 400 259 402 253 402 c 0
 244 402 234 398 221 391 c 1
 222 385 223 376 223 363 c 2
 223 308 l 2
 223 227 215 141 192 80 c 0
 173 30 146 5 113 5 c 0
 94 5 77 17 62 42 c 0
 49 62 43 81 43 98 c 0
 43 131 65 152 79 165 c 0
 88 174 97 182 104 189 c 0
 111 196 115 204 115 211 c 1
 96 237 l 1
 102 243 l 1
 116 239 143 230 143 209 c 1
 110 174 l 1xefed
EndSplineSet
Validated: 1
Layer: 2
SplineSet
153 168 m 1,0,-1
 139 168 l 2,1,2
 135 168 135 168 131.5 173.5 c 128,-1,3
 128 179 128 179 129 182 c 0,4,5
 131 188 131 188 150 195 c 1,6,7
 157 192 157 192 157 183 c 2,8,-1
 157 182 l 1,9,-1
 158 178 l 1,10,-1
 153 168 l 1,0,-1
265 663 m 1,11,-1
 259 657 l 1,12,13
 263.5 658.5 263.5 658.5 265 663 c 1,11,-1
110 174 m 1,14,-1
 119 174 l 1,15,16
 136 169 136 169 146 152 c 1,17,18
 157 130 157 130 157 121 c 2,19,-1
 157 119 l 2,20,21
 157 103 157 103 145.5 85 c 128,-1,22
 134 67 134 67 122 67 c 0,23,24
 112 67 112 67 101.5 75 c 128,-1,25
 91 83 91 83 87 91 c 1,26,-1
 86 97 l 1,27,-1
 94 108 l 1,28,-1
 105 106 l 1,29,-1
 116 94 l 1,30,31
 128 101.5 128 101.5 128 121 c 0,32,33
 128 141 128 141 117 155 c 1,34,-1
 107 155 l 1,35,-1
 78 134 l 1,36,37
 67 118 67 118 67 101 c 0,38,39
 67 69 67 69 85 49 c 0,40,41
 106 25 106 25 122 25 c 0,42,43
 153 25 153 25 171 80 c 0,44,45
 205 188 205 188 205 269 c 2,46,-1
 205 379 l 1,47,48
 191 371 191 371 181 361 c 128,-1,49
 171 351 171 351 157.5 333 c 128,-1,50
 144 315 144 315 139 309 c 1,51,-1
 136 314 l 1,52,-1
 137 320 l 1,53,54
 137 327 137 327 129 370 c 0,55,56
 83 608 83 608 70 701 c 1,57,-1
 42 701 l 1,58,-1
 42 716 l 1,59,-1
 147 716 l 1,60,-1
 147 701 l 1,61,-1
 105 701 l 1,62,63
 128 644 128 644 143 539 c 2,64,-1
 155 455 l 1,65,-1
 171 373 l 1,66,-1
 203 399 l 1,67,68
 199 456 199 456 199 518 c 0,69,70
 199 581 199 581 200 600 c 1,71,72
 200 627 200 627 207 654 c 0,73,74
 223.5 717 223.5 717 273 717 c 0,75,76
 287 717 287 717 299 689 c 0,77,78
 310 662 310 662 310 650 c 0,79,80
 310 630 310 630 292.5 606 c 128,-1,81
 275 582 275 582 275 573 c 1,82,-1
 294 541 l 1,83,-1
 282 494 l 1,84,-1
 282 537 l 2,85,86
 282 546 282 546 261 554 c 0,87,88
 248 558 248 558 248 570 c 0,89,90
 248 572 248 572 251 581 c 0,91,92
 251 582 251 582 257 592.5 c 128,-1,93
 263 603 263 603 269.5 614.5 c 128,-1,94
 276 626 276 626 277 629 c 0,95,96
 291 662 291 662 291 680 c 1,97,-1
 267 702 l 2,98,99
 271 698 271 698 277 685.5 c 128,-1,100
 283 673 283 673 283 666 c 0,101,102
 283 657 283 657 273 646 c 128,-1,103
 263 635 263 635 254 635 c 1,104,105
 240 646 240 646 238 663 c 1,106,107
 245 675 245 675 256 675 c 0,108,109
 260.5 675 260.5 675 265 672 c 1,110,-1
 266 682 l 1,111,-1
 254 700 l 1,112,113
 215 691 215 691 215 507 c 2,114,-1
 215 476 l 2,115,116
 215 453 215 453 220 406 c 1,117,118
 253 413 253 413 264 413 c 0,119,120
 289 413 289 413 303 391.5 c 128,-1,121
 317 370 317 370 317 342 c 0,122,123
 317 321 317 321 310.5 303 c 128,-1,124
 304 285 304 285 299.5 279 c 128,-1,125
 295 273 295 273 281 255 c 1,126,127
 275 244 275 244 275 233 c 0,128,129
 275 220 275 220 297 195 c 1,130,-1
 297 182 l 1,131,132
 278 144 278 144 277 143 c 1,133,134
 281 155 281 155 281 168 c 0,135,136
 281 172 281 172 280.5 175 c 128,-1,137
 280 178 280 178 279 181.5 c 128,-1,138
 278 185 278 185 277.5 186.5 c 128,-1,139
 277 188 277 188 274.5 191 c 128,-1,140
 272 194 272 194 271.5 195 c 128,-1,141
 271 196 271 196 267.5 199.5 c 128,-1,142
 264 203 264 203 263 204 c 0,143,144
 246 224 246 224 246 250 c 0,145,146
 246 259 246 259 261.5 277 c 128,-1,147
 277 295 277 295 284 300 c 0,148,149
 293 308 293 308 297 314 c 1,150,-1
 270 304 l 1,151,152
 254 310 254 310 245.5 318 c 128,-1,153
 237 326 237 326 234 343 c 1,154,-1
 251 363 l 1,155,-1
 258 363 l 1,156,-1
 272 355 l 1,157,-1
 259 342 l 1,158,-1
 251 344 l 1,159,-1
 242 340 l 1,160,161
 246 330 246 330 265 324 c 1,162,-1
 288 345 l 1,163,164
 288 376 288 376 268 396 c 0,165,166
 262 402 262 402 253 402 c 0,167,168
 241 402 241 402 221 391 c 1,169,170
 223 379 223 379 223 363 c 2,171,-1
 223 308 l 2,172,173
 223 162 223 162 192 80 c 0,174,175
 164 5 164 5 113 5 c 0,176,177
 84 5 84 5 62 42 c 1,178,179
 43 71 43 71 43 98 c 0,180,181
 43 132 43 132 79 165 c 0,182,183
 84 170 84 170 92.5 178 c 128,-1,184
 101 186 101 186 104 189 c 0,185,186
 115 200 115 200 115 211 c 1,187,-1
 96 237 l 1,188,-1
 102 243 l 1,189,190
 143 231 143 231 143 209 c 1,191,-1
 110 174 l 1,14,-1
EndSplineSet
AlternateSubs2: "'ss02' Cyrillic Equivalent Forms-1" uni0423
EndChar

StartChar: uni005A
Encoding: 79 90 35
Width: 308
VWidth: 841
GlyphClass: 2
Flags: W
HStem: 0 16<37 56.3262 105 219 270.715 298> 695 20<114 202> 700 15<257.796 298>
VStem: 53 26<486.6 531.592> 160 18<201.021 291.753> 200 35<379 395> 213 24<250.659 273> 230 25<161 189> 230 14<449.599 468> 257 30<367.047 402> 268 21<267 294.854>
DStem2: 111 230 105 16 0.219648 0.975579<-210.092 190.055 280.151 472.307>
AnchorPoint: "Yerok" 266 796.13 basechar 0
AnchorPoint: "Diacritic" 176 796.13 basechar 0
LayerCount: 3
Fore
SplineSet
287 388 m 0xb8c0
 287 372 259 344 250 344 c 0
 249 344 249 344 248 344 c 2
 240 342 l 1
 254 337 266 323 277 299 c 0
 285 281 289 267 289 255 c 0
 289 225 287 228 275 206 c 0
 264 185 257 174 255 171 c 1
 255 161 l 1
 275 130 l 1
 267 137 252 143 242 152 c 0
 234 159 230 171 230 189 c 1xb920
 260 235 l 1
 251 233 246 232 244 232 c 0xb880
 230 232 213 261 213 274 c 1xba
 231 301 l 1
 244 288 l 1xb880
 237 273 l 1xba
 237 261 242 253 251 249 c 1
 268 267 l 1
 268 283 l 2
 268 304 253 333 230 333 c 0
 191 333 178 285 178 248 c 0
 178 231 182 212 190 193 c 0
 204 160 232 105 250 71 c 0
 260 51 268 33 273 16 c 1
 298 16 l 1
 301 0 l 1
 37 0 l 1
 37 16 l 1
 54 16 l 1
 79 87 98 159 111 230 c 0
 133 351 145 425 165 521 c 0
 172 556 176 576 177 582 c 0
 181 624 190 669 202 695 c 1
 172 695 l 2xd8a0
 152 695 134 693 114 693 c 1
 125 670 130 638 130 596 c 0
 130 587 117 566 92 533 c 0
 85 524 81 519 79 516 c 1
 76 493 l 1
 89 477 l 1
 107 492 l 1
 106 495 l 1
 100 488 l 1
 94 492 l 1
 114 509 l 1
 136 485 l 1
 135 474 126 465 110 458 c 1
 122 435 l 1
 112 412 l 1
 98 403 82 388 63 365 c 1
 79 401 l 2
 84 413 87 424 87 433 c 0
 87 450 76 454 70 460 c 0
 59 471 53 484 53 499 c 0
 53 515 64 534 87 556 c 1
 79 559 l 1
 57 591 l 1
 57 602 l 1
 64 618 l 1
 62 637 l 1
 66 639 l 1
 92 605 l 1
 79 587 l 1
 78 579 l 1
 84 574 l 1
 95 576 l 1
 110 597 l 1
 103 630 84 669 52 715 c 1
 134 715 216 715 298 715 c 1
 301 700 l 1
 259 700 l 1
 255 675 248 649 238 620 c 0
 229 593 218 552 205 496 c 0
 165 322 132 162 105 16 c 1
 219 16 l 1
 214 43 206 72 194 104 c 0
 181 139 172 166 167 185 c 0
 162 204 160 223 160 242 c 0
 160 290 179 321 208 339 c 0
 230 352 257 374 257 402 c 1
 236 413 l 1
 216 395 l 1
 231 399 l 1
 235 395 l 1
 235 379 l 1
 205 355 l 1
 195 371 l 1
 198 382 200 391 200 398 c 0xbc40
 200 401 200 403 199 405 c 1
 210 422 221 430 233 430 c 0
 236 430 238 430 241 429 c 1
 234 440 230 453 230 468 c 1
 241 492 l 1
 247 488 l 1
 245 479 244 471 244 465 c 0
 244 454 264 434 266 432 c 0
 280 417 287 402 287 388 c 0xb8c0
EndSplineSet
Validated: 1
Layer: 2
SplineSet
287 388 m 0,0,1
 287 377 287 377 272 360.5 c 128,-1,2
 257 344 257 344 250 344 c 2,3,-1
 248 344 l 1,4,-1
 240 342 l 1,5,6
 261 335 261 335 277 299 c 0,7,8
 289 272 289 272 289 255 c 0,9,10
 289 247 289 247 288.5 242 c 128,-1,11
 288 237 288 237 288 234 c 128,-1,12
 288 231 288 231 286.5 227.5 c 128,-1,13
 285 224 285 224 284 222 c 128,-1,14
 283 220 283 220 280 215 c 128,-1,15
 277 210 277 210 275 206 c 0,16,17
 263 183 263 183 255 171 c 1,18,-1
 255 161 l 1,19,-1
 275 130 l 1,20,21
 271 133 271 133 259 140 c 128,-1,22
 247 147 247 147 242 152 c 0,23,24
 230 162 230 162 230 189 c 1,25,-1
 260 235 l 1,26,27
 246 232 246 232 244 232 c 0,28,29
 234 232 234 232 223.5 247.5 c 128,-1,30
 213 263 213 263 213 274 c 1,31,-1
 231 301 l 1,32,-1
 244 288 l 1,33,-1
 237 273 l 1,34,35
 237 255 237 255 251 249 c 1,36,-1
 268 267 l 1,37,-1
 268 283 l 2,38,39
 268 300 268 300 257 316.5 c 128,-1,40
 246 333 246 333 230 333 c 0,41,42
 203 333 203 333 190.5 307 c 128,-1,43
 178 281 178 281 178 248 c 0,44,45
 178 222 178 222 190 193 c 0,46,47
 209 149 209 149 250 71 c 0,48,49
 267 38 267 38 273 16 c 1,50,-1
 298 16 l 1,51,-1
 301 0 l 1,52,-1
 37 0 l 1,53,-1
 37 16 l 1,54,-1
 54 16 l 1,55,56
 91 121 91 121 111 230 c 0,57,58
 156 480 156 480 165 521 c 0,59,60
 176 576 176 576 177 582 c 0,61,62
 184 656 184 656 202 695 c 1,63,-1
 172 695 l 2,64,65
 162 695 162 695 143 694 c 128,-1,66
 124 693 124 693 114 693 c 1,67,68
 130 660 130 660 130 596 c 0,69,70
 130 583 130 583 92 533 c 0,71,72
 80 518 80 518 79 516 c 2,73,-1
 76 493 l 1,74,-1
 89 477 l 1,75,-1
 107 492 l 1,76,-1
 106 495 l 1,77,-1
 100 488 l 1,78,-1
 94 492 l 1,79,-1
 114 509 l 1,80,-1
 136 485 l 1,81,82
 135 469 135 469 110 458 c 1,83,-1
 122 435 l 1,84,-1
 112 412 l 1,85,86
 90 398 90 398 63 365 c 1,87,-1
 79 401 l 2,88,89
 87 420 87 420 87 433 c 0,90,91
 87 439 87 439 85 443.5 c 128,-1,92
 83 448 83 448 81 450.5 c 128,-1,93
 79 453 79 453 75 456 c 128,-1,94
 71 459 71 459 70 460 c 0,95,96
 53 477 53 477 53 499 c 0,97,98
 53 523 53 523 87 556 c 1,99,-1
 79 559 l 1,100,-1
 57 591 l 1,101,-1
 57 602 l 1,102,-1
 64 618 l 1,103,-1
 62 637 l 1,104,-1
 66 639 l 1,105,-1
 92 605 l 1,106,-1
 79 587 l 1,107,-1
 78 579 l 1,108,-1
 84 574 l 1,109,-1
 95 576 l 1,110,-1
 110 597 l 1,111,112
 99 647 99 647 52 715 c 1,113,-1
 298 715 l 1,114,-1
 301 700 l 1,115,-1
 259 700 l 1,116,117
 253 664 253 664 238 620 c 0,118,119
 224 578 224 578 205 496 c 0,120,121
 148 246 148 246 105 16 c 1,122,-1
 219 16 l 1,123,124
 211 58 211 58 194 104 c 0,125,126
 174.5 156.5 174.5 156.5 167 185 c 0,127,128
 160 212 160 212 160 242 c 0,129,130
 160 309 160 309 208 339 c 1,131,132
 257 368 257 368 257 402 c 1,133,-1
 236 413 l 1,134,-1
 216 395 l 1,135,-1
 231 399 l 1,136,-1
 235 395 l 1,137,-1
 235 379 l 1,138,-1
 205 355 l 1,139,-1
 195 371 l 1,140,141
 200 389 200 389 200 398 c 0,142,143
 200 403 200 403 199 405 c 1,144,145
 215 430 215 430 233 430 c 0,146,147
 238 430 238 430 241 429 c 1,148,149
 230 446 230 446 230 468 c 1,150,-1
 241 492 l 1,151,-1
 247 488 l 1,152,153
 244 474 244 474 244 465 c 0,154,155
 244 454 244 454 266 432 c 0,156,157
 287 410 287 410 287 388 c 0,0,1
EndSplineSet
EndChar

StartChar: uni005B
Encoding: 80 91 36
Width: 168
GlyphClass: 1
Flags: W
HStem: 8 16<84.5632 126.687> 36 25<25.4182 65> 39 40<106 123.93> 67 15<79.1602 93.0152> 105 10<80.2856 121.836> 618 16<68.0098 131.032> 651 38<94.5538 121.019> 661 16<35.6964 58.9994> 674 5<29.0483 32.166> 708 11<89.8195 119.974>
VStem: 23 44<117.057 618.266> 65 11<55 62.1109> 93 31<39.0404 66.7656> 108 14<673.04 687.108> 141 10<44.6641 84.1069 651.632 684.869>
LayerCount: 3
Fore
SplineSet
140 672 m 0x9c62
 140 686 121 708 107 708 c 0
 93 708 86 703 86 692 c 0
 86 679 89 672 94 672 c 0
 106 672 106 677 108 686 c 0
 108 688 109 689 112 689 c 0
 118 689 122 669 122 662 c 0
 123 652 110 650 100 651 c 0x9e66
 84 653 74 661 70 674 c 1x8ce6
 65 669 63 666 63 664 c 0
 63 662 60 661 54 661 c 0x8d66
 42 661 38 668 29 674 c 1
 30 677 33 679 38 679 c 1x8ce6
 48 677 l 1
 53 677 57 679 59 684 c 0
 70 706 79 719 107 719 c 0
 130 719 153 699 153 673 c 0
 153 649 138 624 118 620 c 0
 112 619 105 618 96 618 c 0
 90 618 67 620 67 617 c 0x8d66
 70 446 73 281 74 109 c 1
 85 111 91 115 108 115 c 0
 137 115 151 87 151 58 c 0
 151 33 140 25 127 16 c 1
 117 11 109 8 102 8 c 0
 89 8 77 18 71 22 c 0
 64 27 54 36 45 36 c 256
 41 36 23 29 21 27 c 1
 19 30 18 33 18 36 c 0
 18 41 21 45 27 50 c 0
 36 57 43 61 48 61 c 0
 58 61 58 55 65 55 c 1
 65 71 80 82 96 82 c 1xdd56
 106 78 l 1
 109 78 105 79 108 79 c 0xac56
 118 79 124 69 124 60 c 0xac4a
 124 53 115 39 108 39 c 0xac46
 104 39 93 43 93 47 c 0xac4a
 93 53 114 67 96 67 c 0
 83 67 76 61 76 48 c 0
 76 32 94 24 111 24 c 0
 130 24 141 49 141 67 c 256
 141 84 124 105 108 105 c 0
 94 105 83 102 76 98 c 0x9c56
 58 85 39 81 24 68 c 1
 22 141 21 218 21 299 c 0
 21 424 22 546 23 666 c 1
 45 645 70 634 99 634 c 2
 112 634 l 2
 124 634 132 639 135 648 c 0
 138 657 140 665 140 672 c 0x9c62
EndSplineSet
Validated: 1
Layer: 2
SplineSet
140 672 m 0,0,1
 140 683 140 683 128.5 695.5 c 128,-1,2
 117 708 117 708 107 708 c 0,3,4
 86 708 86 708 86 692 c 0,5,6
 86 672 86 672 94 672 c 0,7,8
 100 672 100 672 103 674 c 128,-1,9
 106 676 106 676 106.5 678 c 128,-1,10
 107 680 107 680 108 686 c 0,11,12
 108 689 108 689 112 689 c 128,-1,13
 116 689 116 689 119 679 c 128,-1,14
 122 669 122 669 122 662 c 0,15,16
 123 655 123 655 116 652.5 c 128,-1,17
 109 650 109 650 100 651 c 0,18,19
 76 654 76 654 70 674 c 1,20,21
 63 667 63 667 63 664 c 128,-1,22
 63 661 63 661 54 661 c 0,23,24
 49 661 49 661 45 662.5 c 128,-1,25
 41 664 41 664 36 668.5 c 128,-1,26
 31 673 31 673 29 674 c 1,27,28
 31 679 31 679 38 679 c 1,29,-1
 48 677 l 1,30,31
 56 677 56 677 59 684 c 0,32,33
 68 703 68 703 78 711 c 128,-1,34
 88 719 88 719 107 719 c 0,35,36
 125 719 125 719 139 705.5 c 128,-1,37
 153 692 153 692 153 673 c 0,38,39
 153 655 153 655 143 639 c 128,-1,40
 133 623 133 623 118 620 c 0,41,42
 106 618 106 618 96 618 c 0,43,44
 67 618 67 618 67 617 c 0,45,46
 73 272 73 272 74 109 c 1,47,48
 107 115 107 115 108 115 c 0,49,50
 129 115 129 115 140 98.5 c 128,-1,51
 151 82 151 82 151 58 c 0,52,53
 151 33 151 33 127 16 c 1,54,55
 111 8 111 8 102 8 c 0,56,57
 92 8 92 8 71 22 c 0,58,59
 51 36 51 36 45 36 c 0,60,61
 42 36 42 36 32.5 32.5 c 128,-1,62
 23 29 23 29 21 27 c 1,63,64
 18 31.5 18 31.5 18 36 c 0,65,66
 18 42 18 42 27 50 c 0,67,68
 41 61 41 61 48 61 c 0,69,70
 53 61 53 61 57.5 58 c 128,-1,71
 62 55 62 55 65 55 c 1,72,73
 65 67 65 67 74.5 74.5 c 128,-1,74
 84 82 84 82 96 82 c 1,75,-1
 106 78 l 1,76,77
 108.5 78.5 108.5 78.5 108 79 c 1,78,79
 124 79 124 79 124 60 c 0,80,81
 124 54 124 54 118.5 46.5 c 128,-1,82
 113 39 113 39 108 39 c 0,83,84
 104 39 104 39 98.5 41.5 c 128,-1,85
 93 44 93 44 93 47 c 0,86,87
 93 49.0645 93 49.0645 98.0145 55.1386 c 0,88,89
 107.807 67 107.807 67 96 67 c 0,90,91
 76 67 76 67 76 48 c 0,92,93
 76 37 76 37 86.5 30.5 c 128,-1,94
 97 24 97 24 111 24 c 0,95,96
 124 24 124 24 132.5 38 c 128,-1,97
 141 52 141 52 141 67 c 0,98,99
 141 80 141 80 130.5 92.5 c 128,-1,100
 120 105 120 105 108 105 c 0,101,102
 88 105 88 105 76 98 c 1,103,104
 68 92 68 92 50 83.5 c 128,-1,105
 32 75 32 75 24 68 c 1,106,107
 21 177.5 21 177.5 21 299 c 0,108,109
 21 426 21 426 23 666 c 1,110,111
 57 634 57 634 99 634 c 2,112,-1
 112 634 l 2,113,114
 130 634 130 634 135 648 c 0,115,116
 140 663 140 663 140 672 c 0,0,1
EndSplineSet
EndChar

StartChar: uni005D
Encoding: 82 93 37
Width: 150
GlyphClass: 1
Flags: W
HStem: 8 16<26.1957 67.859> 36 25<83.5257 127.915> 39 40<28.0811 46> 67 15<57 72.7163> 105 10<31.5033 71.3461> 618 15<22.6806 84.9375> 651 21<46.0491 66.2422> 661 16<93.5773 116.991> 674 3<121.793 122.875> 708 11<33.0132 63.49>
VStem: 0 11<44.4843 85.2608 650.274 683.531> 76 59<36.3984 57.7535> 79 49<109 604.925> 86 45<112.815 618.292> 131 4<27.1406 29>
LayerCount: 3
Fore
SplineSet
46 115 m 0xdc62
 62 115 68 111 79 109 c 1xdc6a
 79 189 81 358 86 617 c 0
 86 620 63 618 56 618 c 0
 23 618 0 628 0 660 c 2
 0 673 l 2
 0 699 23 719 48 719 c 0
 75 719 85 700 94 684 c 0
 96 679 99 677 104 677 c 2xdd64
 115 679 l 2
 120 679 123 677 124 674 c 1x8ce4
 114 668 112 661 97 661 c 0x8d64
 92 661 89 662 90 664 c 0
 91 666 88 669 83 674 c 1
 79 661 69 653 53 651 c 0x8ee4
 38 649 30 652 30 661 c 0x8d64
 30 668 35 689 40 689 c 0
 46 689 45 685 46 680 c 0
 47 675 51 672 58 672 c 0
 64 672 67 679 67 692 c 0
 67 703 60 708 46 708 c 0
 32 708 13 686 13 672 c 0
 13 646 22 633 41 633 c 2
 54 633 l 2
 83 633 108 644 129 666 c 1
 130 546 131 451 131 382 c 0x8e64
 131 246 130 141 128 68 c 1x8e68
 115 79 92 87 78 96 c 0
 70 102 60 105 50 105 c 0
 29 105 11 87 11 67 c 256
 11 49 23 24 42 24 c 0
 59 24 76 32 76 48 c 0
 76 61 69 67 56 67 c 0x9e70
 51 67 49 66 49 65 c 2
 59 48 l 1
 59 43 49 39 44 39 c 0
 38 39 28 53 28 60 c 0
 28 69 35 79 45 79 c 0xac70
 46 79 44 78 46 78 c 2
 57 82 l 1
 73 82 86 70 88 55 c 1
 93 55 95 61 100 61 c 0
 113 61 135 48 135 36 c 1
 134 33 133 30 131 27 c 1
 131 29 110 36 108 36 c 0
 101 36 81 22 81 22 c 1
 65 11 59 8 51 8 c 0
 43 8 28 14 26 16 c 0
 9 27 0 42 0 61 c 0
 0 87 18 115 46 115 c 0xdc62
EndSplineSet
Validated: 1
Layer: 2
SplineSet
46 115 m 1,0,1
 79 109 l 1,2,3
 79 254 79 254 86 617 c 0,4,5
 86 618 86 618 56 618 c 0,6,7
 0 618 0 618 0 660 c 2,8,-1
 0 673 l 2,9,10
 0 692 0 692 14.5 705.5 c 128,-1,11
 29 719 29 719 48 719 c 0,12,13
 61 719 61 719 70.5 712.5 c 128,-1,14
 80 706 80 706 84 700.5 c 128,-1,15
 88 695 88 695 94 684 c 0,16,17
 97 677 97 677 104 677 c 1,18,-1
 115 679 l 1,19,20
 122 679 122 679 124 674 c 1,21,22
 121 672 121 672 116.5 668 c 128,-1,23
 112 664 112 664 108 662.5 c 128,-1,24
 104 661 104 661 97 661 c 0,25,26
 90.1312 661.796 90.1312 661.796 90 664 c 1,27,28
 91 666 91 666 83 674 c 1,29,30
 77 654 77 654 53 651 c 0,31,32
 30 648 30 648 30 661 c 0,33,34
 30 667 30 667 33.5 678 c 128,-1,35
 37 689 37 689 40 689 c 0,36,37
 44 689 44 689 46 680 c 0,38,39
 48 672 48 672 58 672 c 0,40,41
 67 672 67 672 67 692 c 0,42,43
 67 708 67 708 46 708 c 0,44,45
 36 708 36 708 24.5 695.5 c 128,-1,46
 13 683 13 683 13 672 c 0,47,48
 13 633 13 633 41 633 c 2,49,-1
 54 633 l 2,50,51
 97.5 633 97.5 633 129 666 c 1,52,53
 131 426 131 426 131 382 c 0,54,55
 131 178 131 178 128 68 c 1,56,57
 121 74 121 74 102 83.5 c 128,-1,58
 83 93 83 93 78 96 c 0,59,60
 66 105 66 105 50 105 c 128,-1,61
 34 105 34 105 22.5 93.5 c 128,-1,62
 11 82 11 82 11 67 c 128,-1,63
 11 52 11 52 20 38 c 128,-1,64
 29 24 29 24 42 24 c 0,65,66
 56 24 56 24 66 30.5 c 128,-1,67
 76 37 76 37 76 48 c 0,68,69
 76 67 76 67 56 67 c 0,70,71
 49 67 49 67 49 65 c 1,72,-1
 59 48 l 1,73,74
 59 45 59 45 53.5 42 c 128,-1,75
 48 39 48 39 44 39 c 128,-1,76
 40 39 40 39 34 47 c 128,-1,77
 28 55 28 55 28 60 c 0,78,79
 28 67 28 67 33 73 c 128,-1,80
 38 79 38 79 45 79 c 1,81,-1
 45 78.5 l 2,82,83
 45 78 45 78 46 78 c 2,84,-1
 57 82 l 1,85,86
 69 82 69 82 77.5 74 c 128,-1,87
 86 66 86 66 88 55 c 1,88,89
 90 55 90 55 94 58 c 128,-1,90
 98 61 98 61 100 61 c 0,91,92
 110 61 110 61 122.5 53 c 128,-1,93
 135 45 135 45 135 36 c 1,94,95
 133 30 133 30 131 27 c 1,96,97
 131 28 131 28 120.5 32 c 128,-1,98
 110 36 110 36 108 36 c 0,99,100
 105 36 105 36 98 32.5 c 128,-1,101
 91 29 91 29 86 25.5 c 2,102,-1
 81 22 l 2,103,104
 61 8 61 8 51 8 c 0,105,106
 34 8 34 8 26 16 c 1,107,108
 0 33 0 33 0 61 c 0,109,110
 0 82 0 82 13 98.5 c 128,-1,111
 26 115 26 115 46 115 c 1,0,1
EndSplineSet
EndChar

